<?xml version="1.0" encoding="utf-8"?>
<!-- Generator: Adobe Illustrator 27.5.0, SVG Export Plug-In . SVG Version: 6.00 Build 0)  -->
<svg version="1.1" id="Layer_1" xmlns="http://www.w3.org/2000/svg" xmlns:xlink="http://www.w3.org/1999/xlink" x="0px" y="0px"
	 viewBox="0 0 3000 2000" style="enable-background:new 0 0 3000 2000;" xml:space="preserve">
<g>
	<rect style="fill:#FFFFFF;" width="3000" height="2000"/>
	<g>
		<path style="fill:#C2E7F2;" d="M2507.754,1821.471c0,0,462.115-709.186-28.498-903.149
			c-123.58-48.857-166.689-732.858-715.613-390.857c-218.3,136.008-532.63-28.58-833.649,61.38
			c-276.45,82.617-282.805,320.935-247.851,406.73c38.193,93.746-114.112,205.827-270.094,282.805
			c-244.673,120.748-64.754,545.104,166.391,547.132C809.584,1827.54,2507.754,1821.471,2507.754,1821.471z"/>
		<g>
			<g>
				<path style="fill:#D9935C;" d="M1985.502,1115.639c16.695-85.573,31.995-167.494,31.995-167.494s-47.523,7.199-67.984,24.25
					c-20.461,17.051-22.53,125.624-29.35,156.316c-1.341,6.025-2.546,15.755-3.584,27.607
					c-3.879,44.142,0.949,110.246,4.603,128.777c-0.241,1.781-1.754,10.53-9.81,27.311c0,0-4.168,12.883,23.114,32.208
					C1951.872,1356.931,1967.367,1208.654,1985.502,1115.639z"/>
				<path style="fill:#FFA412;" d="M2017.497,948.145c0,0-8.821,47.212-20.37,107.391c-3.661,19.097-7.601,39.49-11.625,60.103
					c-16.354,32.056-30.389,53.851-34.724,49.751c-8.843-8.351-24.371-9.382-34.2-9.071c1.038-11.852,2.243-21.583,3.585-27.607
					c0.538-2.425,1.046-5.335,1.539-8.647c5.721-38.619,8.965-131.967,27.812-147.669
					C1969.974,955.344,2017.497,948.145,2017.497,948.145z"/>
				<path style="fill:#E27F2B;" d="M1997.127,1055.536c-3.661,19.097-7.601,39.49-11.625,60.103
					c-16.354,32.056-30.389,53.851-34.724,49.751c-8.843-8.351-24.371-9.382-34.2-9.071c1.038-11.852,2.243-21.583,3.585-27.607
					c0.538-2.425,1.046-5.335,1.539-8.647l49.033-118.364L1997.127,1055.536z"/>
				<path style="fill:#D9935C;" d="M2085.362,946.939c0.361-16.522,0.089-36.25-2.144-52.916l-65.947,10.777
					c0,0,0,20.123,0.29,42.454c-0.039,0.006-0.064,0.009-0.064,0.009s-1.798,20.715,23.715,23.746
					C2066.725,974.04,2086.05,962.925,2085.362,946.939z"/>
				<path style="fill:#CB7D45;" d="M2017.088,908.867c0,0,15.535,31.829,33.344,31.829s34.481-29.934,34.481-29.934
					L2017.088,908.867z"/>
				<path style="fill:#233862;" d="M2061.042,1821.663c0,0,2.399-19.198,7.957-30.313c5.557-11.114,40.922-4.042,40.922-4.042
					s7.073,6.063,8.589,34.354H2061.042z"/>
				<path style="fill:#233862;" d="M1940.552,1821.511c8.309-5.072,3.581-42.91,3.581-42.91s-38.722-30.977-44.045-7.261
					c-5.324,23.717-36.786,34.365-54.694,37.27c-12.363,2.005-16.19,8.852-17.375,12.901H1940.552z"/>
				<path style="fill:#233862;" d="M2091.643,875.006c0,0,44.023-69.41-40.509-74.004c0,0-31.706,3.732-38.883-3.445
					c0,0-24.593,37.377-1.626,77.449C2033.592,915.077,2091.643,875.006,2091.643,875.006z"/>
				<path style="fill:#D9935C;" d="M2019.229,911.226c6.408,5.042,25.196,10.048,30.628,10.634c0,0,27.86-6.213,32.925-9.268
					c7.843-4.755,7.338-14.378,7.74-27.757c0.482-15.836,2.078-28.274,0.31-37.404c-2.102-10.921-9.026-17.134-28.411-18.822
					c-35.589-3.089-50.415,5.823-51.035,17.754c-0.161,3.204-0.31,6.259-0.413,9.153
					C2009.548,892.725,2012.488,905.921,2019.229,911.226z"/>
				<path style="fill:#2B478B;" d="M2020.756,1539.731c-1.576,8.685-2.577,15.808-2.842,20.916
					c-3.599,70.212-59.103,230.749-69.03,234.493c-15.361,5.797-39.551-6.525-52.206-10.556c-5.244-1.675-8.783-6.965-7.616-12.33
					c27.486-126.359,37.588-308.313,41.263-416.037c1.857-54.261,11.17-91.742,11.17-91.742s135.37-36.118,136.173,9.571
					C2078.381,1314.476,2032.828,1473.035,2020.756,1539.731z"/>
				<path style="fill:#233862;" d="M2020.756,1539.731l-90.431-183.514c1.857-54.261,11.17-91.742,11.17-91.742
					s135.37-36.118,136.173,9.571C2078.381,1314.476,2032.828,1473.035,2020.756,1539.731z"/>
				<path style="fill:#2B478B;" d="M1990.636,1274.206l71.562,518.66c0,0,31.426,7.579,55.869,1.516
					c0,0,20.95-275.847,19.204-342.536c-1.746-66.688,15.037-178.446-3.83-190.771S1990.636,1274.206,1990.636,1274.206z"/>
				<path style="fill:#739AF0;" d="M2143.727,1261.073c0.235,6.01-4.524,11.019-10.526,11.11l-112.772,1.72l-82.83,1.265
					c-3.88,0.068,8.382-30.964,8.631-233.303c0.061-45.151,69.962-93.735,71.25-93.735l0.015,0.015
					c0,6.502,10.246,18.506,26.031,19.537c18.733,1.227,41.717-8.094,41.717-18.885c0-0.121,2.176,2.236,5.677,7.328
					c9.351,13.626,28.191,46.849,40.217,104.686c9.496,45.674,5.843,106.739,12.678,185.53
					C2144.319,1252.032,2143.583,1257.087,2143.727,1261.073z"/>
				<path style="fill:#FFA412;" d="M2139.567,1272.811c0,0-14.99,6.715-43.029,12.527c-20.848,4.327-48.903,8.162-83.368,8.374
					c-54.813,0.349-75.57-18.544-75.57-18.544c-3.88,0.068,8.382-30.964,8.631-233.303c0.061-45.151,69.962-93.735,71.25-93.735
					l0.015,0.015c0,0-1.796,60.125,16.392,77.805c0,0,25.509-19.703,58.602-75.782c9.352,13.626,26.622,52.805,38.649,110.642
					c2.441,11.769,4.017,24.553,5.123,38.399c3.19,39.907,2.478,88.635,7.555,147.131c0.5,5.692-0.235,10.746-0.091,14.732
					C2143.963,1267.082,2145.576,1272.72,2139.567,1272.811z"/>
				<path style="fill:#E27F2B;" d="M2139.567,1272.811c0,0-14.99,6.715-43.029,12.527c-8.822-13.451-19.939-37.732-21.477-75.994
					c-2.607-64.703,58.857-148.028,58.857-148.028l2.345,37.894c3.19,39.907,2.478,88.635,7.555,147.131
					c0.5,5.692-0.235,10.746-0.091,14.732C2143.963,1267.082,2145.576,1272.72,2139.567,1272.811z"/>
				
					<rect x="2014.946" y="1072.848" transform="matrix(0.866 -0.5 0.5 0.866 -299.8548 1192.5718)" style="fill:#2B478B;" width="120.976" height="165.946"/>
				<path style="fill:#D9935C;" d="M2151.601,969.872c-12.83-9.7-42.969-16.581-57.799-19.506c-5.228-1.031-8.556-1.569-8.556-1.569
					c1.546,7.131,5.025,18.317,9.572,31.745c19.051,56.284,56.814,151.989,49.205,154.028c-6.191,1.659-14.11,3.122-22.826,4.395
					c-33.122,4.85-77.691,6.996-82.355,7.211c-0.366-0.342-16.241-15.141-22.422-15.141c-6.254,0-24.279,6.568-26.118,11.62
					c-1.839,5.052-2.575,14.146,2.575,16.167c5.15,2.021,26.486,7.073,32.004,7.578c0.755,0.069,1.665,0.068,2.654-0.023
					c39.632,11.651,73.746,17.37,100.036,20.073c36.678,3.766,58.132,1.675,58.132,1.675
					C2212.273,1130.939,2168.956,982.99,2151.601,969.872z"/>
				<path style="fill:#FFA412;" d="M2185.703,1188.124c0,0-21.454,2.092-58.132-1.675c2.023-9.965,3.903-29.427-6.374-47.485
					c8.715-1.273,16.635-2.735,22.826-4.395c7.609-2.039-30.154-97.744-49.205-154.028c-1.523-18.195-2.327-30.373-2.327-30.373
					l1.311,0.197c14.831,2.925,44.97,9.806,57.799,19.506C2168.956,982.99,2212.273,1130.939,2185.703,1188.124z"/>
				<path style="fill:#E27F2B;" d="M2033.886,1025.95c0,0,51.027-22.482,51.784-24.25c0.758-1.768-2.526-15.409-6.063-19.451
					c0,0,24.503,2.273,26.019-0.758c1.516-3.031,2.651-27.972,2.651-27.972s-10.199-10.558-22.829-11.568
					c0,0-11.089,27.555-15.188,35.752C2059.399,999.427,2033.886,1025.95,2033.886,1025.95z"/>
				<path style="fill:#E27F2B;" d="M2021.761,981.492c0,0,3.284,26.271,12.125,44.459c0,0-26.65-18.567-28.924-24.629
					c-2.273-6.062,6.442-17.809,6.442-17.809s-15.914-0.379-16.293-5.684c-0.379-5.305,4.926-26.145,4.926-26.145
					s13.688-9.994,17.477-9.615L2021.761,981.492z"/>
				<g>
					<path style="fill:#FFA412;" d="M2108.144,836.338l-113.319,1.212c0,0-1.663-34.17,17.976-55.958
						c0.896-1.008,1.846-1.983,2.85-2.932c4.238-4.025,9.341-7.5,15.478-10.059c22.65-9.449,41.438-0.729,53.177,8.203
						c1.157,0.873,2.245,1.754,3.257,2.627c6.383,5.424,9.946,10.263,9.946,10.263S2108.512,804.703,2108.144,836.338z"/>
					<path style="fill:#E27F2B;" d="M2076.313,836.679c-0.311-4.602-2.311-43.788,11.454-57.073
						c-1.012-0.873-0.721-0.695-1.878-1.568c-14.677,15.275-15.845,53.842-15.783,58.708l-36.225,0.387
						c-1.074-27.753-16.391-55.388-18.23-58.472c-1.004,0.949-1.193,1.135-2.09,2.144c2.658,4.676,12.659,31.433,13.615,56.4
						l-32.352,0.346c0,0,30.182,7.803,52.914,7.52c22.732-0.283,60.405-8.732,60.405-8.732L2076.313,836.679z"/>
				</g>
			</g>
			<g>
				<path style="fill:#FFA412;" d="M2229.293,1157.192h18.566c8.629-3.918,55.116-24.053,99.799-24.299
					c32.24-0.177,68.977,23.909,71.188,24.169c5.604,0.66-18.676,0.879-18.676,0.879s-36.385-16.099-52.732-16.479
					c-15.583-0.362-50.177,10.965-63.996,15.729h104.05c8.7,0,15.819,7.119,15.819,15.819v118.648
					c0,8.701-7.119,15.819-15.819,15.819h-158.197c-8.701,0-15.819-7.118-15.819-15.819v-118.648
					C2213.474,1164.311,2220.592,1157.192,2229.293,1157.192z"/>
				<path style="fill:#E27F2B;" d="M2280.708,1157.192h158.196c8.701,0,15.82,7.119,15.82,15.819v118.648
					c0,8.701-7.119,15.819-15.82,15.819h-158.196c-8.701,0-15.82-7.118-15.82-15.819v-118.648
					C2264.887,1164.311,2272.007,1157.192,2280.708,1157.192z"/>
			</g>
			<g>
				<rect x="596.813" y="566.379" style="fill:#7A97F3;" width="841.714" height="593.619"/>
				<rect x="625.956" y="597.233" style="fill:#35488B;" width="783.429" height="531.912"/>
				<path style="fill:#7A97F3;" d="M1246.593,1796.946h-18.477l-115.46-39.906c-49.154-16.989-82.129-63.275-82.129-115.282
					v-490.899c0-6.923-5.32-12.88-12.235-13.206c-7.383-0.348-13.479,5.536-13.479,12.842v491.255
					c0,52.007-32.976,98.294-82.129,115.282l-115.48,39.913h-21.028c-6.923,0-12.88,5.32-13.206,12.235
					c-0.348,7.383,5.536,13.479,12.843,13.479h23.465c0.029,0,0.057,0.003,0.086,0.003c0.027,0,0.054-0.003,0.081-0.003h51.474
					c6.798,0,12.665-5.146,13.147-11.927c0.236-3.315-0.8-6.375-2.652-8.772l84.845-29.325c39.78-13.749,83.023-13.749,122.802,0
					l82.862,28.64c-2.113,2.377-3.368,5.533-3.245,8.992c0.248,6.978,6.228,12.392,13.211,12.392h53.986
					c0.027,0,0.054,0.003,0.081,0.003c0.029,0,0.057-0.003,0.086-0.003h20.913c7.307,0,13.19-6.095,12.842-13.479
					C1259.473,1802.266,1253.516,1796.946,1246.593,1796.946z"/>
				<rect x="1438.528" y="566.379" style="fill:#35488B;" width="11.143" height="593.619"/>
				<rect x="1004.813" y="1159.998" style="fill:#35488B;" width="25.714" height="23.861"/>
				<g>
					<path style="fill:#FFFFFF;" d="M1334.529,1068.452h-34.982v-71.027h34.982V1068.452z M1300.547,1067.452h32.982v-69.027
						h-32.982V1067.452z"/>
					<path style="fill:#FFFFFF;" d="M1310.256,1068.452H833.363c-0.276,0-0.5-0.224-0.5-0.5s0.224-0.5,0.5-0.5h475.893V930.872
						h-39.563V772.765h-38.562v85.649h-32.027v31.52h-56.782v-18.305h-24.285V798.97h-64.995V675.819l-50.392-16.7v81.706h-12.719
						V679.55l-50.392,19.073v72.286h-47.572v-52.624h-48.813v52.624h-9.291v30.605h-39.691v104.409c0,0.276-0.224,0.5-0.5,0.5
						c-0.276,0-0.5-0.224-0.5-0.5V800.515h39.691V769.91h9.291v-52.624h50.813v52.624h45.572v-71.977l52.392-19.829v61.722h10.719
						v-82.091l52.392,17.362V797.97h64.995v72.659h24.285v18.305h54.782v-31.52h32.027v-85.649h40.562v158.107h39.563V1068.452z"/>
					<path style="fill:#FFFFFF;" d="M1046.362,694.881h-35.668v-13.695h35.668V694.881z M1011.694,693.881h33.668v-11.695h-33.668
						V693.881z"/>
					<path style="fill:#FFFFFF;" d="M1046.362,718.732h-35.668v-13.696h35.668V718.732z M1011.694,717.732h33.668v-11.696h-33.668
						V717.732z"/>
					<path style="fill:#FFFFFF;" d="M1046.362,740.189h-35.668v-13.695h35.668V740.189z M1011.694,739.189h33.668v-11.695h-33.668
						V739.189z"/>
					<g>
						<path style="fill:#FFFFFF;" d="M1270.693,850.065h-33.065v-20.597h33.065V850.065z M1238.628,849.065h31.065v-18.597h-31.065
							V849.065z"/>
						<path style="fill:#FFFFFF;" d="M1270.693,910.217h-40.91v-20.597h40.91V910.217z M1230.783,909.217h38.91v-18.597h-38.91
							V909.217z"/>
						<path style="fill:#FFFFFF;" d="M1270.693,939.821h-40.91v-20.597h40.91V939.821z M1230.783,938.821h38.91v-18.597h-38.91
							V938.821z"/>
					</g>
					<path style="fill:#FFFFFF;" d="M1271.344,970.792h-40.91v-20.597h40.91V970.792z M1231.434,969.792h38.91v-18.597h-38.91
						V969.792z"/>
					<path style="fill:#FFFFFF;" d="M1271.344,1001.122h-40.91v-20.597h40.91V1001.122z M1231.434,1000.122h38.91v-18.597h-38.91
						V1000.122z"/>
					<path style="fill:#FFFFFF;" d="M1271.344,1032.094h-40.91v-20.597h40.91V1032.094z M1231.434,1031.094h38.91v-18.597h-38.91
						V1031.094z"/>
					<g>
						<path style="fill:#FFFFFF;" d="M984.164,740.189H946.7v-13.695h37.463V740.189z M947.7,739.189h35.463v-11.695H947.7V739.189z
							"/>
						<path style="fill:#FFFFFF;" d="M984.164,718.925H946.7V705.23h37.463V718.925z M947.7,717.925h35.463V706.23H947.7V717.925z"
							/>
						<path style="fill:#FFFFFF;" d="M1047.245,760.995H946.7v-13.696h100.545V760.995z M947.7,759.995h98.545v-11.696H947.7
							V759.995z"/>
						<path style="fill:#FFFFFF;" d="M1047.245,780.083H946.7v-13.695h100.545V780.083z M947.7,779.083h98.545v-11.695H947.7
							V779.083z"/>
						<path style="fill:#FFFFFF;" d="M1047.245,798.558H946.7v-13.209h100.545V798.558z M947.7,797.558h98.545v-11.209H947.7
							V797.558z"/>
					</g>
					<path style="fill:#FFFFFF;" d="M1270.693,880.615h-40.91v-20.597h40.91V880.615z M1230.783,879.615h38.91v-18.597h-38.91
						V879.615z"/>
					<g>
						<path style="fill:#FFFFFF;" d="M1109.085,823.159h-9.712v-13.28h9.712V823.159z M1100.374,822.159h7.712v-11.28h-7.712
							V822.159z"/>
						<path style="fill:#FFFFFF;" d="M1092.793,823.159h-9.712v-13.28h9.712V823.159z M1084.082,822.159h7.712v-11.28h-7.712
							V822.159z"/>
						<path style="fill:#FFFFFF;" d="M1076.867,823.159h-9.712v-13.28h9.712V823.159z M1068.154,822.159h7.712v-11.28h-7.712
							V822.159z"/>
						<path style="fill:#FFFFFF;" d="M1061.765,823.159h-9.712v-13.28h9.712V823.159z M1053.053,822.159h7.712v-11.28h-7.712
							V822.159z"/>
						<path style="fill:#FFFFFF;" d="M1046.374,823.159h-9.712v-13.28h9.712V823.159z M1037.662,822.159h7.712v-11.28h-7.712
							V822.159z"/>
						<path style="fill:#FFFFFF;" d="M1030.807,823.159h-9.712v-13.28h9.712V823.159z M1022.094,822.159h7.712v-11.28h-7.712
							V822.159z"/>
						<path style="fill:#FFFFFF;" d="M1014.515,823.159h-9.712v-13.28h9.712V823.159z M1005.803,822.159h7.712v-11.28h-7.712
							V822.159z"/>
						<path style="fill:#FFFFFF;" d="M998.588,823.159h-9.712v-13.28h9.712V823.159z M989.875,822.159h7.712v-11.28h-7.712V822.159z
							"/>
						<path style="fill:#FFFFFF;" d="M983.486,823.159h-9.712v-13.28h9.712V823.159z M974.774,822.159h7.712v-11.28h-7.712V822.159z
							"/>
						<path style="fill:#FFFFFF;" d="M968.095,823.159h-9.712v-13.28h9.712V823.159z M959.383,822.159h7.712v-11.28h-7.712V822.159z
							"/>
						<path style="fill:#FFFFFF;" d="M952.056,823.159h-9.712v-13.28h9.712V823.159z M943.344,822.159h7.712v-11.28h-7.712V822.159z
							"/>
						<path style="fill:#FFFFFF;" d="M935.765,823.159h-9.712v-13.28h9.712V823.159z M927.053,822.159h7.712v-11.28h-7.712V822.159z
							"/>
						<path style="fill:#FFFFFF;" d="M919.837,823.159h-9.712v-13.28h9.712V823.159z M911.125,822.159h7.712v-11.28h-7.712V822.159z
							"/>
						<path style="fill:#FFFFFF;" d="M904.736,823.159h-9.712v-13.28h9.712V823.159z M896.024,822.159h7.712v-11.28h-7.712V822.159z
							"/>
						<path style="fill:#FFFFFF;" d="M889.345,823.159h-9.712v-13.28h9.712V823.159z M880.633,822.159h7.712v-11.28h-7.712V822.159z
							"/>
						<path style="fill:#FFFFFF;" d="M873.777,823.159h-9.712v-13.28h9.712V823.159z M865.065,822.159h7.712v-11.28h-7.712V822.159z
							"/>
						<path style="fill:#FFFFFF;" d="M857.486,823.159h-9.712v-13.28h9.712V823.159z M848.774,822.159h7.712v-11.28h-7.712V822.159z
							"/>
						<path style="fill:#FFFFFF;" d="M841.559,823.159h-9.712v-13.28h9.712V823.159z M832.847,822.159h7.712v-11.28h-7.712V822.159z
							"/>
						<path style="fill:#FFFFFF;" d="M826.457,823.159h-9.712v-13.28h9.712V823.159z M817.745,822.159h7.712v-11.28h-7.712V822.159z
							"/>
						<path style="fill:#FFFFFF;" d="M811.066,823.159h-9.712v-13.28h9.712V823.159z M802.354,822.159h7.712v-11.28h-7.712V822.159z
							"/>
						<path style="fill:#FFFFFF;" d="M1109.085,844.828h-9.712v-13.279h9.712V844.828z M1100.374,843.828h7.712v-11.279h-7.712
							V843.828z"/>
						<path style="fill:#FFFFFF;" d="M1092.793,844.828h-9.712v-13.279h9.712V844.828z M1084.082,843.828h7.712v-11.279h-7.712
							V843.828z"/>
						<path style="fill:#FFFFFF;" d="M1076.867,844.828h-9.712v-13.279h9.712V844.828z M1068.154,843.828h7.712v-11.279h-7.712
							V843.828z"/>
						<path style="fill:#FFFFFF;" d="M1061.765,844.828h-9.712v-13.279h9.712V844.828z M1053.053,843.828h7.712v-11.279h-7.712
							V843.828z"/>
						<path style="fill:#FFFFFF;" d="M1046.374,844.828h-9.712v-13.279h9.712V844.828z M1037.662,843.828h7.712v-11.279h-7.712
							V843.828z"/>
						<path style="fill:#FFFFFF;" d="M1030.807,844.828h-9.712v-13.279h9.712V844.828z M1022.094,843.828h7.712v-11.279h-7.712
							V843.828z"/>
						<path style="fill:#FFFFFF;" d="M1014.515,844.828h-9.712v-13.279h9.712V844.828z M1005.803,843.828h7.712v-11.279h-7.712
							V843.828z"/>
						<path style="fill:#FFFFFF;" d="M998.588,844.828h-9.712v-13.279h9.712V844.828z M989.875,843.828h7.712v-11.279h-7.712
							V843.828z"/>
						<path style="fill:#FFFFFF;" d="M983.486,844.828h-9.712v-13.279h9.712V844.828z M974.774,843.828h7.712v-11.279h-7.712
							V843.828z"/>
						<path style="fill:#FFFFFF;" d="M968.095,844.828h-9.712v-13.279h9.712V844.828z M959.383,843.828h7.712v-11.279h-7.712
							V843.828z"/>
						<path style="fill:#FFFFFF;" d="M952.056,844.828h-9.712v-13.279h9.712V844.828z M943.344,843.828h7.712v-11.279h-7.712
							V843.828z"/>
						<path style="fill:#FFFFFF;" d="M935.765,844.828h-9.712v-13.279h9.712V844.828z M927.053,843.828h7.712v-11.279h-7.712
							V843.828z"/>
						<path style="fill:#FFFFFF;" d="M919.837,844.828h-9.712v-13.279h9.712V844.828z M911.125,843.828h7.712v-11.279h-7.712
							V843.828z"/>
						<path style="fill:#FFFFFF;" d="M904.736,844.828h-9.712v-13.279h9.712V844.828z M896.024,843.828h7.712v-11.279h-7.712
							V843.828z"/>
						<path style="fill:#FFFFFF;" d="M889.345,844.828h-9.712v-13.279h9.712V844.828z M880.633,843.828h7.712v-11.279h-7.712
							V843.828z"/>
						<path style="fill:#FFFFFF;" d="M873.777,844.828h-9.712v-13.279h9.712V844.828z M865.065,843.828h7.712v-11.279h-7.712
							V843.828z"/>
						<path style="fill:#FFFFFF;" d="M857.486,844.828h-9.712v-13.279h9.712V844.828z M848.774,843.828h7.712v-11.279h-7.712
							V843.828z"/>
						<path style="fill:#FFFFFF;" d="M841.559,844.828h-9.712v-13.279h9.712V844.828z M832.847,843.828h7.712v-11.279h-7.712
							V843.828z"/>
						<path style="fill:#FFFFFF;" d="M826.457,844.828h-9.712v-13.279h9.712V844.828z M817.745,843.828h7.712v-11.279h-7.712
							V843.828z"/>
						<path style="fill:#FFFFFF;" d="M811.066,844.828h-9.712v-13.279h9.712V844.828z M802.354,843.828h7.712v-11.279h-7.712
							V843.828z"/>
						<path style="fill:#FFFFFF;" d="M1109.085,866.166h-9.712v-13.28h9.712V866.166z M1100.374,865.166h7.712v-11.28h-7.712
							V865.166z"/>
						<path style="fill:#FFFFFF;" d="M1092.793,866.166h-9.712v-13.28h9.712V866.166z M1084.082,865.166h7.712v-11.28h-7.712
							V865.166z"/>
						<path style="fill:#FFFFFF;" d="M1076.867,866.166h-9.712v-13.28h9.712V866.166z M1068.154,865.166h7.712v-11.28h-7.712
							V865.166z"/>
						<path style="fill:#FFFFFF;" d="M1061.765,866.166h-9.712v-13.28h9.712V866.166z M1053.053,865.166h7.712v-11.28h-7.712
							V865.166z"/>
						<path style="fill:#FFFFFF;" d="M1046.374,866.166h-9.712v-13.28h9.712V866.166z M1037.662,865.166h7.712v-11.28h-7.712
							V865.166z"/>
						<path style="fill:#FFFFFF;" d="M1030.807,866.166h-9.712v-13.28h9.712V866.166z M1022.094,865.166h7.712v-11.28h-7.712
							V865.166z"/>
						<path style="fill:#FFFFFF;" d="M1014.515,866.166h-9.712v-13.28h9.712V866.166z M1005.803,865.166h7.712v-11.28h-7.712
							V865.166z"/>
						<path style="fill:#FFFFFF;" d="M998.588,866.166h-9.712v-13.28h9.712V866.166z M989.875,865.166h7.712v-11.28h-7.712V865.166z
							"/>
						<path style="fill:#FFFFFF;" d="M983.486,866.166h-9.712v-13.28h9.712V866.166z M974.774,865.166h7.712v-11.28h-7.712V865.166z
							"/>
						<path style="fill:#FFFFFF;" d="M968.095,866.166h-9.712v-13.28h9.712V866.166z M959.383,865.166h7.712v-11.28h-7.712V865.166z
							"/>
						<path style="fill:#FFFFFF;" d="M952.056,866.166h-9.712v-13.28h9.712V866.166z M943.344,865.166h7.712v-11.28h-7.712V865.166z
							"/>
						<path style="fill:#FFFFFF;" d="M935.765,866.166h-9.712v-13.28h9.712V866.166z M927.053,865.166h7.712v-11.28h-7.712V865.166z
							"/>
						<path style="fill:#FFFFFF;" d="M919.837,866.166h-9.712v-13.28h9.712V866.166z M911.125,865.166h7.712v-11.28h-7.712V865.166z
							"/>
						<path style="fill:#FFFFFF;" d="M904.736,866.166h-9.712v-13.28h9.712V866.166z M896.024,865.166h7.712v-11.28h-7.712V865.166z
							"/>
						<path style="fill:#FFFFFF;" d="M889.345,866.166h-9.712v-13.28h9.712V866.166z M880.633,865.166h7.712v-11.28h-7.712V865.166z
							"/>
						<path style="fill:#FFFFFF;" d="M873.777,866.166h-9.712v-13.28h9.712V866.166z M865.065,865.166h7.712v-11.28h-7.712V865.166z
							"/>
						<path style="fill:#FFFFFF;" d="M857.486,866.166h-9.712v-13.28h9.712V866.166z M848.774,865.166h7.712v-11.28h-7.712V865.166z
							"/>
						<path style="fill:#FFFFFF;" d="M841.559,866.166h-9.712v-13.28h9.712V866.166z M832.847,865.166h7.712v-11.28h-7.712V865.166z
							"/>
						<path style="fill:#FFFFFF;" d="M826.457,866.166h-9.712v-13.28h9.712V866.166z M817.745,865.166h7.712v-11.28h-7.712V865.166z
							"/>
						<path style="fill:#FFFFFF;" d="M811.066,866.166h-9.712v-13.28h9.712V866.166z M802.354,865.166h7.712v-11.28h-7.712V865.166z
							"/>
						<path style="fill:#FFFFFF;" d="M1109.085,888.835h-9.712v-13.28h9.712V888.835z M1100.374,887.835h7.712v-11.28h-7.712
							V887.835z"/>
						<path style="fill:#FFFFFF;" d="M1092.793,888.835h-9.712v-13.28h9.712V888.835z M1084.082,887.835h7.712v-11.28h-7.712
							V887.835z"/>
						<path style="fill:#FFFFFF;" d="M1076.867,888.835h-9.712v-13.28h9.712V888.835z M1068.154,887.835h7.712v-11.28h-7.712
							V887.835z"/>
						<path style="fill:#FFFFFF;" d="M1061.765,888.835h-9.712v-13.28h9.712V888.835z M1053.053,887.835h7.712v-11.28h-7.712
							V887.835z"/>
						<path style="fill:#FFFFFF;" d="M1046.374,888.835h-9.712v-13.28h9.712V888.835z M1037.662,887.835h7.712v-11.28h-7.712
							V887.835z"/>
						<path style="fill:#FFFFFF;" d="M1030.807,888.835h-9.712v-13.28h9.712V888.835z M1022.094,887.835h7.712v-11.28h-7.712
							V887.835z"/>
						<path style="fill:#FFFFFF;" d="M1014.515,888.835h-9.712v-13.28h9.712V888.835z M1005.803,887.835h7.712v-11.28h-7.712
							V887.835z"/>
						<path style="fill:#FFFFFF;" d="M998.588,888.835h-9.712v-13.28h9.712V888.835z M989.875,887.835h7.712v-11.28h-7.712V887.835z
							"/>
						<path style="fill:#FFFFFF;" d="M983.486,888.835h-9.712v-13.28h9.712V888.835z M974.774,887.835h7.712v-11.28h-7.712V887.835z
							"/>
						<path style="fill:#FFFFFF;" d="M968.095,888.835h-9.712v-13.28h9.712V888.835z M959.383,887.835h7.712v-11.28h-7.712V887.835z
							"/>
						<path style="fill:#FFFFFF;" d="M952.056,888.835h-9.712v-13.28h9.712V888.835z M943.344,887.835h7.712v-11.28h-7.712V887.835z
							"/>
						<path style="fill:#FFFFFF;" d="M935.765,888.835h-9.712v-13.28h9.712V888.835z M927.053,887.835h7.712v-11.28h-7.712V887.835z
							"/>
						<path style="fill:#FFFFFF;" d="M919.837,888.835h-9.712v-13.28h9.712V888.835z M911.125,887.835h7.712v-11.28h-7.712V887.835z
							"/>
						<path style="fill:#FFFFFF;" d="M904.736,888.835h-9.712v-13.28h9.712V888.835z M896.024,887.835h7.712v-11.28h-7.712V887.835z
							"/>
						<path style="fill:#FFFFFF;" d="M889.345,888.835h-9.712v-13.28h9.712V888.835z M880.633,887.835h7.712v-11.28h-7.712V887.835z
							"/>
						<path style="fill:#FFFFFF;" d="M873.777,888.835h-9.712v-13.28h9.712V888.835z M865.065,887.835h7.712v-11.28h-7.712V887.835z
							"/>
						<path style="fill:#FFFFFF;" d="M857.486,888.835h-9.712v-13.28h9.712V888.835z M848.774,887.835h7.712v-11.28h-7.712V887.835z
							"/>
						<path style="fill:#FFFFFF;" d="M841.559,888.835h-9.712v-13.28h9.712V888.835z M832.847,887.835h7.712v-11.28h-7.712V887.835z
							"/>
						<path style="fill:#FFFFFF;" d="M826.457,888.835h-9.712v-13.28h9.712V888.835z M817.745,887.835h7.712v-11.28h-7.712V887.835z
							"/>
						<path style="fill:#FFFFFF;" d="M811.066,888.835h-9.712v-13.28h9.712V888.835z M802.354,887.835h7.712v-11.28h-7.712V887.835z
							"/>
						<path style="fill:#FFFFFF;" d="M1109.085,910.504h-9.712v-13.279h9.712V910.504z M1100.374,909.504h7.712v-11.279h-7.712
							V909.504z"/>
						<path style="fill:#FFFFFF;" d="M1092.793,910.504h-9.712v-13.279h9.712V910.504z M1084.082,909.504h7.712v-11.279h-7.712
							V909.504z"/>
						<path style="fill:#FFFFFF;" d="M1076.867,910.504h-9.712v-13.279h9.712V910.504z M1068.154,909.504h7.712v-11.279h-7.712
							V909.504z"/>
						<path style="fill:#FFFFFF;" d="M1061.765,910.504h-9.712v-13.279h9.712V910.504z M1053.053,909.504h7.712v-11.279h-7.712
							V909.504z"/>
						<path style="fill:#FFFFFF;" d="M1046.374,910.504h-9.712v-13.279h9.712V910.504z M1037.662,909.504h7.712v-11.279h-7.712
							V909.504z"/>
						<path style="fill:#FFFFFF;" d="M1030.807,910.504h-9.712v-13.279h9.712V910.504z M1022.094,909.504h7.712v-11.279h-7.712
							V909.504z"/>
						<path style="fill:#FFFFFF;" d="M1014.515,910.504h-9.712v-13.279h9.712V910.504z M1005.803,909.504h7.712v-11.279h-7.712
							V909.504z"/>
						<path style="fill:#FFFFFF;" d="M998.588,910.504h-9.712v-13.279h9.712V910.504z M989.875,909.504h7.712v-11.279h-7.712
							V909.504z"/>
						<path style="fill:#FFFFFF;" d="M983.486,910.504h-9.712v-13.279h9.712V910.504z M974.774,909.504h7.712v-11.279h-7.712
							V909.504z"/>
						<path style="fill:#FFFFFF;" d="M968.095,910.504h-9.712v-13.279h9.712V910.504z M959.383,909.504h7.712v-11.279h-7.712
							V909.504z"/>
						<path style="fill:#FFFFFF;" d="M952.056,910.504h-9.712v-13.279h9.712V910.504z M943.344,909.504h7.712v-11.279h-7.712
							V909.504z"/>
						<path style="fill:#FFFFFF;" d="M935.765,910.504h-9.712v-13.279h9.712V910.504z M927.053,909.504h7.712v-11.279h-7.712
							V909.504z"/>
						<path style="fill:#FFFFFF;" d="M919.837,910.504h-9.712v-13.279h9.712V910.504z M911.125,909.504h7.712v-11.279h-7.712
							V909.504z"/>
						<path style="fill:#FFFFFF;" d="M904.736,910.504h-9.712v-13.279h9.712V910.504z M896.024,909.504h7.712v-11.279h-7.712
							V909.504z"/>
						<path style="fill:#FFFFFF;" d="M889.345,910.504h-9.712v-13.279h9.712V910.504z M880.633,909.504h7.712v-11.279h-7.712
							V909.504z"/>
						<path style="fill:#FFFFFF;" d="M873.777,910.504h-9.712v-13.279h9.712V910.504z M865.065,909.504h7.712v-11.279h-7.712
							V909.504z"/>
						<path style="fill:#FFFFFF;" d="M857.486,910.504h-9.712v-13.279h9.712V910.504z M848.774,909.504h7.712v-11.279h-7.712
							V909.504z"/>
						<path style="fill:#FFFFFF;" d="M826.457,910.504h-9.015c-0.384,0-0.697-0.313-0.697-0.697v-12.582h9.712V910.504z
							 M817.745,909.504h7.712v-11.279h-7.712V909.504z"/>
						<path style="fill:#FFFFFF;" d="M841.559,910.504h-9.712v-13.279h9.712V910.504z M832.846,909.504h7.712v-11.279h-7.712
							V909.504z"/>
						<path style="fill:#FFFFFF;" d="M811.066,909.418l-9.712-1.667v-10.526h9.712V909.418z M802.354,906.908l7.712,1.325v-10.008
							h-7.712V906.908z"/>
						<path style="fill:#FFFFFF;" d="M1109.085,931.842h-9.712v-13.279h9.712V931.842z M1100.374,930.842h7.712v-11.279h-7.712
							V930.842z"/>
						<path style="fill:#FFFFFF;" d="M1092.793,931.842h-9.712v-13.279h9.712V931.842z M1084.082,930.842h7.712v-11.279h-7.712
							V930.842z"/>
						<path style="fill:#FFFFFF;" d="M1076.867,931.842h-9.712v-13.279h9.712V931.842z M1068.154,930.842h7.712v-11.279h-7.712
							V930.842z"/>
						<path style="fill:#FFFFFF;" d="M1061.765,931.842h-9.712v-13.279h9.712V931.842z M1053.053,930.842h7.712v-11.279h-7.712
							V930.842z"/>
						<path style="fill:#FFFFFF;" d="M1046.374,931.842h-9.712v-13.279h9.712V931.842z M1037.662,930.842h7.712v-11.279h-7.712
							V930.842z"/>
						<path style="fill:#FFFFFF;" d="M1030.807,931.842h-9.712v-13.279h9.712V931.842z M1022.094,930.842h7.712v-11.279h-7.712
							V930.842z"/>
						<path style="fill:#FFFFFF;" d="M1014.515,931.842h-9.712v-13.279h9.712V931.842z M1005.803,930.842h7.712v-11.279h-7.712
							V930.842z"/>
						<path style="fill:#FFFFFF;" d="M998.588,931.842h-9.712v-13.279h9.712V931.842z M989.875,930.842h7.712v-11.279h-7.712
							V930.842z"/>
						<path style="fill:#FFFFFF;" d="M983.486,931.842h-9.712v-13.279h9.712V931.842z M974.774,930.842h7.712v-11.279h-7.712
							V930.842z"/>
						<path style="fill:#FFFFFF;" d="M968.095,931.842h-9.712v-13.279h9.712V931.842z M959.383,930.842h7.712v-11.279h-7.712
							V930.842z"/>
						<path style="fill:#FFFFFF;" d="M952.056,931.842h-9.712v-13.279h9.712V931.842z M943.344,930.842h7.712v-11.279h-7.712
							V930.842z"/>
						<path style="fill:#FFFFFF;" d="M935.765,931.842h-9.712v-13.279h9.712V931.842z M927.053,930.842h7.712v-11.279h-7.712
							V930.842z"/>
						<path style="fill:#FFFFFF;" d="M919.837,931.842h-9.712v-13.279h9.712V931.842z M911.125,930.842h7.712v-11.279h-7.712
							V930.842z"/>
						<path style="fill:#FFFFFF;" d="M904.736,931.842h-9.712v-13.279h9.712V931.842z M896.024,930.842h7.712v-11.279h-7.712
							V930.842z"/>
						<path style="fill:#FFFFFF;" d="M889.345,931.842h-9.712v-13.279h9.712V931.842z M880.633,930.842h7.712v-11.279h-7.712
							V930.842z"/>
						<path style="fill:#FFFFFF;" d="M873.777,931.842h-9.712v-13.279h9.712V931.842z M865.065,930.842h7.712v-11.279h-7.712
							V930.842z"/>
						<path style="fill:#FFFFFF;" d="M857.486,931.842h-9.712v-13.279h9.712V931.842z M848.774,930.842h7.712v-11.279h-7.712
							V930.842z"/>
					</g>
					<path style="fill:#FFFFFF;" d="M729.322,975.208H708.94v-80.921h20.382V975.208z M709.94,974.208h18.382v-78.921H709.94
						V974.208z"/>
					<path style="fill:#FFFFFF;" d="M1199.11,889.878h-30.601v-32.52h14.374v-25.543h2.05v25.543h14.177V889.878z M1169.509,888.878
						h28.601v-30.52h-14.177l-0.05-25.543v25.543h-14.374V888.878z"/>
					<path style="fill:#FFFFFF;" d="M1215.237,858.443v-86.642h7.368v-8.528h2.049v8.528h35.661v-8.528h2.049v8.528h8.328v20.596
						l-32.065,0.056V801l32.065-0.057v20.598h-39.562v36.872L1215.237,858.443z M1216.237,772.801v84.64l13.894-0.025v-36.874
						h39.562v-18.596l-32.065,0.057v-10.548l32.065-0.056v-18.598h-8.328l-0.049-8.528v8.528h-37.661l-0.049-8.528v8.528H1216.237z
						 M1270.193,791.898h0.01H1270.193z"/>
					<path style="fill:#FFFFFF;" d="M839.959,1024.909c-0.276,0-0.5-0.224-0.5-0.5V914.294l-110.722-19.014
						c-0.273-0.047-0.455-0.306-0.408-0.578c0.046-0.27,0.306-0.453,0.577-0.408l111.553,19.156v110.958
						C840.459,1024.685,840.235,1024.909,839.959,1024.909z"/>
					<path style="fill:#FFFFFF;" d="M840.459,1068.452H700.812v-94.243h139.647V1068.452z M701.812,1067.452h137.647v-92.243
						H701.812V1067.452z"/>
					<path style="fill:#FFFFFF;" d="M840.459,949.789H700.812v-31.306h139.647V949.789z M701.812,948.789h137.647v-29.306H701.812
						V948.789z"/>
					<path style="fill:#FFFFFF;" d="M831.019,1009.986h-8.121V998.95h8.121V1009.986z M823.898,1008.986h6.121v-9.036h-6.121
						V1008.986z"/>
					<path style="fill:#FFFFFF;" d="M817.703,1009.986h-8.121V998.95h8.121V1009.986z M810.582,1008.986h6.121v-9.036h-6.121
						V1008.986z"/>
					<path style="fill:#FFFFFF;" d="M804.685,1009.986h-8.121V998.95h8.121V1009.986z M797.564,1008.986h6.121v-9.036h-6.121
						V1008.986z"/>
					<path style="fill:#FFFFFF;" d="M792.343,1009.986h-8.121V998.95h8.121V1009.986z M785.222,1008.986h6.121v-9.036h-6.121
						V1008.986z"/>
					<path style="fill:#FFFFFF;" d="M779.763,1009.986h-8.121V998.95h8.121V1009.986z M772.643,1008.986h6.121v-9.036h-6.121
						V1008.986z"/>
					<path style="fill:#FFFFFF;" d="M767.04,1009.986h-8.121V998.95h8.121V1009.986z M759.919,1008.986h6.121v-9.036h-6.121
						V1008.986z"/>
					<path style="fill:#FFFFFF;" d="M753.724,1009.986h-8.121V998.95h8.121V1009.986z M746.603,1008.986h6.121v-9.036h-6.121
						V1008.986z"/>
					<path style="fill:#FFFFFF;" d="M740.706,1009.986h-8.121V998.95h8.121V1009.986z M733.585,1008.986h6.121v-9.036h-6.121
						V1008.986z"/>
					<path style="fill:#FFFFFF;" d="M728.363,1009.986h-8.12V998.95h8.12V1009.986z M721.243,1008.986h6.12v-9.036h-6.12V1008.986z"
						/>
					<path style="fill:#FFFFFF;" d="M715.784,1009.986h-8.121V998.95h8.121V1009.986z M708.663,1008.986h6.121v-9.036h-6.121
						V1008.986z"/>
					<path style="fill:#FFFFFF;" d="M831.019,1027.697h-8.121v-11.036h8.121V1027.697z M823.898,1026.697h6.121v-9.036h-6.121
						V1026.697z"/>
					<path style="fill:#FFFFFF;" d="M817.703,1027.697h-8.121v-11.036h8.121V1027.697z M810.582,1026.697h6.121v-9.036h-6.121
						V1026.697z"/>
					<path style="fill:#FFFFFF;" d="M804.685,1027.697h-8.121v-11.036h8.121V1027.697z M797.564,1026.697h6.121v-9.036h-6.121
						V1026.697z"/>
					<path style="fill:#FFFFFF;" d="M792.343,1027.697h-8.121v-11.036h8.121V1027.697z M785.222,1026.697h6.121v-9.036h-6.121
						V1026.697z"/>
					<path style="fill:#FFFFFF;" d="M779.763,1027.697h-8.121v-11.036h8.121V1027.697z M772.643,1026.697h6.121v-9.036h-6.121
						V1026.697z"/>
					<path style="fill:#FFFFFF;" d="M767.04,1027.697h-8.121v-11.036h8.121V1027.697z M759.919,1026.697h6.121v-9.036h-6.121
						V1026.697z"/>
					<path style="fill:#FFFFFF;" d="M753.724,1027.697h-8.121v-11.036h8.121V1027.697z M746.603,1026.697h6.121v-9.036h-6.121
						V1026.697z"/>
					<path style="fill:#FFFFFF;" d="M740.706,1027.697h-8.121v-11.036h8.121V1027.697z M733.585,1026.697h6.121v-9.036h-6.121
						V1026.697z"/>
					<path style="fill:#FFFFFF;" d="M728.363,1027.697h-8.12v-11.036h8.12V1027.697z M721.243,1026.697h6.12v-9.036h-6.12V1026.697z
						"/>
					<path style="fill:#FFFFFF;" d="M715.784,1027.697h-8.121v-11.036h8.121V1027.697z M708.663,1026.697h6.121v-9.036h-6.121
						V1026.697z"/>
					<path style="fill:#FFFFFF;" d="M831.019,967.331h-8.121v-11.037h8.121V967.331z M823.898,966.331h6.121v-9.037h-6.121V966.331z
						"/>
					<path style="fill:#FFFFFF;" d="M817.703,967.331h-8.121v-11.037h8.121V967.331z M810.582,966.331h6.121v-9.037h-6.121V966.331z
						"/>
					<path style="fill:#FFFFFF;" d="M804.685,967.331h-8.121v-11.037h8.121V967.331z M797.564,966.331h6.121v-9.037h-6.121V966.331z
						"/>
					<path style="fill:#FFFFFF;" d="M792.343,967.331h-8.121v-11.037h8.121V967.331z M785.222,966.331h6.121v-9.037h-6.121V966.331z
						"/>
					<path style="fill:#FFFFFF;" d="M779.763,967.331h-8.121v-11.037h8.121V967.331z M772.643,966.331h6.121v-9.037h-6.121V966.331z
						"/>
					<path style="fill:#FFFFFF;" d="M767.04,967.331h-8.121v-11.037h8.121V967.331z M759.919,966.331h6.121v-9.037h-6.121V966.331z"
						/>
					<path style="fill:#FFFFFF;" d="M753.724,967.331h-8.121v-11.037h8.121V967.331z M746.603,966.331h6.121v-9.037h-6.121V966.331z
						"/>
					<path style="fill:#FFFFFF;" d="M740.706,967.331h-8.121v-11.037h8.121V967.331z M733.585,966.331h6.121v-9.037h-6.121V966.331z
						"/>
					<path style="fill:#FFFFFF;" d="M831.019,992.008h-8.121v-11.036h8.121V992.008z M823.898,991.008h6.121v-9.036h-6.121V991.008z
						"/>
					<path style="fill:#FFFFFF;" d="M817.703,992.008h-8.121v-11.036h8.121V992.008z M810.582,991.008h6.121v-9.036h-6.121V991.008z
						"/>
					<path style="fill:#FFFFFF;" d="M804.685,992.008h-8.121v-11.036h8.121V992.008z M797.564,991.008h6.121v-9.036h-6.121V991.008z
						"/>
					<path style="fill:#FFFFFF;" d="M792.343,992.008h-8.121v-11.036h8.121V992.008z M785.222,991.008h6.121v-9.036h-6.121V991.008z
						"/>
					<path style="fill:#FFFFFF;" d="M779.763,992.008h-8.121v-11.036h8.121V992.008z M772.643,991.008h6.121v-9.036h-6.121V991.008z
						"/>
					<path style="fill:#FFFFFF;" d="M767.04,992.008h-8.121v-11.036h8.121V992.008z M759.919,991.008h6.121v-9.036h-6.121V991.008z"
						/>
					<path style="fill:#FFFFFF;" d="M753.724,992.008h-8.121v-11.036h8.121V992.008z M746.603,991.008h6.121v-9.036h-6.121V991.008z
						"/>
					<path style="fill:#FFFFFF;" d="M740.706,992.008h-8.121v-11.036h8.121V992.008z M733.585,991.008h6.121v-9.036h-6.121V991.008z
						"/>
					<path style="fill:#FFFFFF;" d="M728.363,992.008h-8.12v-11.036h8.12V992.008z M721.243,991.008h6.12v-9.036h-6.12V991.008z"/>
					<path style="fill:#FFFFFF;" d="M715.784,992.008h-8.121v-11.036h8.121V992.008z M708.663,991.008h6.121v-9.036h-6.121V991.008z
						"/>
					<path style="fill:#FFFFFF;" d="M831.019,1045.136h-8.121V1034.1h8.121V1045.136z M823.898,1044.136h6.121v-9.036h-6.121
						V1044.136z"/>
					<path style="fill:#FFFFFF;" d="M817.703,1045.136h-8.121V1034.1h8.121V1045.136z M810.582,1044.136h6.121v-9.036h-6.121
						V1044.136z"/>
					<path style="fill:#FFFFFF;" d="M804.685,1045.136h-8.121V1034.1h8.121V1045.136z M797.564,1044.136h6.121v-9.036h-6.121
						V1044.136z"/>
					<path style="fill:#FFFFFF;" d="M792.343,1045.136h-8.121V1034.1h8.121V1045.136z M785.222,1044.136h6.121v-9.036h-6.121
						V1044.136z"/>
					<path style="fill:#FFFFFF;" d="M779.763,1045.136h-8.121V1034.1h8.121V1045.136z M772.643,1044.136h6.121v-9.036h-6.121
						V1044.136z"/>
					<path style="fill:#FFFFFF;" d="M767.04,1045.136h-8.121V1034.1h8.121V1045.136z M759.919,1044.136h6.121v-9.036h-6.121
						V1044.136z"/>
					<path style="fill:#FFFFFF;" d="M753.724,1045.136h-8.121V1034.1h8.121V1045.136z M746.603,1044.136h6.121v-9.036h-6.121
						V1044.136z"/>
					<path style="fill:#FFFFFF;" d="M740.706,1045.136h-8.121V1034.1h8.121V1045.136z M733.585,1044.136h6.121v-9.036h-6.121
						V1044.136z"/>
					<path style="fill:#FFFFFF;" d="M728.363,1045.136h-8.12V1034.1h8.12V1045.136z M721.243,1044.136h6.12v-9.036h-6.12V1044.136z"
						/>
					<path style="fill:#FFFFFF;" d="M715.784,1045.136h-8.121V1034.1h8.121V1045.136z M708.663,1044.136h6.121v-9.036h-6.121
						V1044.136z"/>
					<path style="fill:#FFFFFF;" d="M738.829,897.013l-3.054-0.523v-23.017h3.054V897.013z M736.775,895.646l1.054,0.182v-21.354
						h-1.054V895.646z"/>
					<g>
						<path style="fill:#FFFFFF;" d="M829.881,938.349h-6.983v-11.352h6.983V938.349z M823.898,937.349h4.983v-9.352h-4.983V937.349
							z"/>
						<path style="fill:#FFFFFF;" d="M770.477,938.349h-6.983v-11.352h6.983V938.349z M764.494,937.349h4.983v-9.352h-4.983V937.349
							z"/>
						<path style="fill:#FFFFFF;" d="M723.221,938.349h-6.983v-11.352h6.983V938.349z M717.238,937.349h4.983v-9.352h-4.983V937.349
							z"/>
					</g>
					<path style="fill:#FFFFFF;" d="M1209.688,1067.91h-200.529V950.195h200.529V1067.91z M1010.159,1066.91h198.529V951.195
						h-198.529V1066.91z"/>
					<path style="fill:#FFFFFF;" d="M1028.624,979.402h-11.639V962.16h11.639V979.402z M1017.985,978.402h9.639V963.16h-9.639
						V978.402z"/>
					<path style="fill:#FFFFFF;" d="M1047.383,979.402h-11.639V962.16h11.639V979.402z M1036.745,978.402h9.639V963.16h-9.639
						V978.402z"/>
					<path style="fill:#FFFFFF;" d="M1066.268,979.402h-11.639V962.16h11.639V979.402z M1055.629,978.402h9.639V963.16h-9.639
						V978.402z"/>
					<path style="fill:#FFFFFF;" d="M1085.026,979.402h-11.638V962.16h11.638V979.402z M1074.388,978.402h9.638V963.16h-9.638
						V978.402z"/>
					<path style="fill:#FFFFFF;" d="M1104.347,979.402h-11.638V962.16h11.638V979.402z M1093.709,978.402h9.638V963.16h-9.638
						V978.402z"/>
					<path style="fill:#FFFFFF;" d="M1123.106,979.402h-11.639V962.16h11.639V979.402z M1112.468,978.402h9.639V963.16h-9.639
						V978.402z"/>
					<path style="fill:#FFFFFF;" d="M1141.991,979.402h-11.639V962.16h11.639V979.402z M1131.352,978.402h9.639V963.16h-9.639
						V978.402z"/>
					<path style="fill:#FFFFFF;" d="M1160.75,979.402h-11.639V962.16h11.639V979.402z M1150.111,978.402h9.639V963.16h-9.639
						V978.402z"/>
					<path style="fill:#FFFFFF;" d="M1180.424,979.402h-11.639V962.16h11.639V979.402z M1169.786,978.402h9.639V963.16h-9.639
						V978.402z"/>
					<path style="fill:#FFFFFF;" d="M1199.184,979.402h-11.639V962.16h11.639V979.402z M1188.545,978.402h9.639V963.16h-9.639
						V978.402z"/>
					<path style="fill:#FFFFFF;" d="M1028.624,1003.423h-11.639V986.18h11.639V1003.423z M1017.985,1002.423h9.639V987.18h-9.639
						V1002.423z"/>
					<path style="fill:#FFFFFF;" d="M1047.383,1003.423h-11.639V986.18h11.639V1003.423z M1036.745,1002.423h9.639V987.18h-9.639
						V1002.423z"/>
					<path style="fill:#FFFFFF;" d="M1066.268,1003.423h-11.639V986.18h11.639V1003.423z M1055.629,1002.423h9.639V987.18h-9.639
						V1002.423z"/>
					<path style="fill:#FFFFFF;" d="M1085.026,1003.423h-11.638V986.18h11.638V1003.423z M1074.388,1002.423h9.638V987.18h-9.638
						V1002.423z"/>
					<path style="fill:#FFFFFF;" d="M1104.347,1003.423h-11.638V986.18h11.638V1003.423z M1093.709,1002.423h9.638V987.18h-9.638
						V1002.423z"/>
					<path style="fill:#FFFFFF;" d="M1123.106,1003.423h-11.639V986.18h11.639V1003.423z M1112.468,1002.423h9.639V987.18h-9.639
						V1002.423z"/>
					<path style="fill:#FFFFFF;" d="M1141.991,1003.423h-11.639V986.18h11.639V1003.423z M1131.352,1002.423h9.639V987.18h-9.639
						V1002.423z"/>
					<path style="fill:#FFFFFF;" d="M1160.75,1003.423h-11.639V986.18h11.639V1003.423z M1150.111,1002.423h9.639V987.18h-9.639
						V1002.423z"/>
					<path style="fill:#FFFFFF;" d="M1180.424,1003.423h-11.639V986.18h11.639V1003.423z M1169.786,1002.423h9.639V987.18h-9.639
						V1002.423z"/>
					<path style="fill:#FFFFFF;" d="M1199.184,1003.423h-11.639V986.18h11.639V1003.423z M1188.545,1002.423h9.639V987.18h-9.639
						V1002.423z"/>
					<path style="fill:#FFFFFF;" d="M1028.624,1029.226h-11.639v-17.242h11.639V1029.226z M1017.985,1028.226h9.639v-15.242h-9.639
						V1028.226z"/>
					<path style="fill:#FFFFFF;" d="M1047.383,1029.226h-11.639v-17.242h11.639V1029.226z M1036.745,1028.226h9.639v-15.242h-9.639
						V1028.226z"/>
					<path style="fill:#FFFFFF;" d="M1066.268,1029.226h-11.639v-17.242h11.639V1029.226z M1055.629,1028.226h9.639v-15.242h-9.639
						V1028.226z"/>
					<path style="fill:#FFFFFF;" d="M1085.026,1029.226h-11.638v-17.242h11.638V1029.226z M1074.388,1028.226h9.638v-15.242h-9.638
						V1028.226z"/>
					<path style="fill:#FFFFFF;" d="M1104.347,1029.226h-11.638v-17.242h11.638V1029.226z M1093.709,1028.226h9.638v-15.242h-9.638
						V1028.226z"/>
					<path style="fill:#FFFFFF;" d="M1123.106,1029.226h-11.639v-17.242h11.639V1029.226z M1112.468,1028.226h9.639v-15.242h-9.639
						V1028.226z"/>
					<path style="fill:#FFFFFF;" d="M1141.991,1029.226h-11.639v-17.242h11.639V1029.226z M1131.352,1028.226h9.639v-15.242h-9.639
						V1028.226z"/>
					<path style="fill:#FFFFFF;" d="M1160.75,1029.226h-11.639v-17.242h11.639V1029.226z M1150.111,1028.226h9.639v-15.242h-9.639
						V1028.226z"/>
					<path style="fill:#FFFFFF;" d="M1180.424,1029.226h-11.639v-17.242h11.639V1029.226z M1169.786,1028.226h9.639v-15.242h-9.639
						V1028.226z"/>
					<path style="fill:#FFFFFF;" d="M1199.184,1029.226h-11.639v-17.242h11.639V1029.226z M1188.545,1028.226h9.639v-15.242h-9.639
						V1028.226z"/>
					<path style="fill:#FFFFFF;" d="M1028.624,1053.248h-11.639v-17.243h11.639V1053.248z M1017.985,1052.248h9.639v-15.243h-9.639
						V1052.248z"/>
					<path style="fill:#FFFFFF;" d="M1047.383,1053.248h-11.639v-17.243h11.639V1053.248z M1036.745,1052.248h9.639v-15.243h-9.639
						V1052.248z"/>
					<path style="fill:#FFFFFF;" d="M1066.268,1053.248h-11.639v-17.243h11.639V1053.248z M1055.629,1052.248h9.639v-15.243h-9.639
						V1052.248z"/>
					<path style="fill:#FFFFFF;" d="M1085.026,1053.248h-11.638v-17.243h11.638V1053.248z M1074.388,1052.248h9.638v-15.243h-9.638
						V1052.248z"/>
					<path style="fill:#FFFFFF;" d="M1104.347,1053.248h-11.638v-17.243h11.638V1053.248z M1093.709,1052.248h9.638v-15.243h-9.638
						V1052.248z"/>
					<path style="fill:#FFFFFF;" d="M1123.106,1053.248h-11.639v-17.243h11.639V1053.248z M1112.468,1052.248h9.639v-15.243h-9.639
						V1052.248z"/>
					<path style="fill:#FFFFFF;" d="M1141.991,1053.248h-11.639v-17.243h11.639V1053.248z M1131.352,1052.248h9.639v-15.243h-9.639
						V1052.248z"/>
					<path style="fill:#FFFFFF;" d="M1160.75,1053.248h-11.639v-17.243h11.639V1053.248z M1150.111,1052.248h9.639v-15.243h-9.639
						V1052.248z"/>
					<path style="fill:#FFFFFF;" d="M1180.424,1053.248h-11.639v-17.243h11.639V1053.248z M1169.786,1052.248h9.639v-15.243h-9.639
						V1052.248z"/>
					<path style="fill:#FFFFFF;" d="M1199.184,1053.248h-11.639v-17.243h11.639V1053.248z M1188.545,1052.248h9.639v-15.243h-9.639
						V1052.248z"/>
					<path style="fill:#FFFFFF;" d="M1182.586,951.195h-42.636v-15.874l42.636-16.323V951.195z M1140.95,950.195h40.636v-29.744
						l-40.636,15.558V950.195z"/>
					<path style="fill:#FFFFFF;" d="M935.742,1068.452h-96.283V963.601l96.283,33.331V1068.452z M840.459,1067.452h94.283v-69.807
						l-94.283-32.64V1067.452z"/>
					<path style="fill:#FFFFFF;" d="M933.226,1003.88h-91.25v-4.202h91.25V1003.88z M842.976,1002.88h89.25v-2.202h-89.25V1002.88z"
						/>
					<path style="fill:#FFFFFF;" d="M933.226,1014.175h-91.25v-4.203h91.25V1014.175z M842.976,1013.175h89.25v-2.203h-89.25
						V1013.175z"/>
					<path style="fill:#FFFFFF;" d="M933.226,1024.47h-91.25v-4.203h91.25V1024.47z M842.976,1023.47h89.25v-2.203h-89.25V1023.47z"
						/>
					<path style="fill:#FFFFFF;" d="M933.226,1034.765h-91.25v-4.203h91.25V1034.765z M842.976,1033.765h89.25v-2.203h-89.25
						V1033.765z"/>
					<path style="fill:#FFFFFF;" d="M933.226,1045.059h-91.25v-4.202h91.25V1045.059z M842.976,1044.059h89.25v-2.202h-89.25
						V1044.059z"/>
					<path style="fill:#FFFFFF;" d="M933.226,1055.354h-91.25v-4.202h91.25V1055.354z M842.976,1054.354h89.25v-2.202h-89.25
						V1054.354z"/>
					<path style="fill:#FFFFFF;" d="M1190.593,951.195h-9.007v-31.971h9.007V951.195z M1182.586,950.195h7.007v-29.971h-7.007
						V950.195z"/>
					<path style="fill:#FFFFFF;" d="M1173.79,946.402h-17.243v-11.638h17.243V946.402z M1157.547,945.402h15.243v-9.638h-15.243
						V945.402z"/>
					<g>
						<path style="fill:#FFFFFF;" d="M854.502,769.448h-6.521v-47.841h6.521V769.448z M848.981,768.448h4.521v-45.841h-4.521
							V768.448z"/>
						<path style="fill:#FFFFFF;" d="M865.483,769.448h-6.522v-47.841h6.522V769.448z M859.962,768.448h4.522v-45.841h-4.522
							V768.448z"/>
						<path style="fill:#FFFFFF;" d="M876.315,769.448h-6.521v-47.841h6.521V769.448z M870.794,768.448h4.521v-45.841h-4.521
							V768.448z"/>
						<path style="fill:#FFFFFF;" d="M887.527,769.448h-6.521v-47.841h6.521V769.448z M882.005,768.448h4.521v-45.841h-4.521
							V768.448z"/>
					</g>
				</g>
			</g>
			<g>
				<path style="fill:#F1A34F;" d="M2504.23,1123.392l-34.085,6.067c-3.372,0.6-5.781,3.154-5.335,5.657l122.102,685.977
					c0.446,2.504,3.585,4.057,6.958,3.457l34.085-6.067c3.389-0.603,5.781-3.141,5.335-5.645l-122.103-685.977
					C2510.742,1124.359,2507.619,1122.789,2504.23,1123.392z"/>
				<g>
					<path style="fill:#2B478B;" d="M2504.23,1123.392l-34.085,6.067c-3.372,0.6-5.781,3.154-5.335,5.657l3.784,21.257l46.377-8.255
						l-3.784-21.257C2510.742,1124.359,2507.619,1122.789,2504.23,1123.392z"/>
					<path style="fill:#2B478B;" d="M2586.912,1821.093c0.446,2.504,3.585,4.057,6.958,3.457l34.085-6.067
						c3.389-0.603,5.781-3.141,5.335-5.645l-3.264-18.335l-46.378,8.255L2586.912,1821.093z"/>
				</g>
				<path style="fill:#E27F2B;" d="M2495.479,1171.325c-1.931,0.344-3.304,1.792-3.05,3.221l107.476,603.805
					c0.254,1.428,2.043,2.316,3.974,1.972c1.931-0.344,3.304-1.793,3.05-3.222l-107.476-603.805
					C2499.198,1171.867,2497.41,1170.981,2495.479,1171.325z"/>
			</g>
			<g>
				<path style="fill:#E49963;" d="M802.334,1802.088l22.39-0.302c0,0-33.666-37.368-44.002-56.382l-28.425-52.496l-37.211,9.202
					l47.228,66.928L802.334,1802.088z"/>
				<path style="fill:#163560;" d="M592.301,780.474c-8.583-4.879-18.869-5.411-26.063-4.986c1.853-1.912,5.496-2.609,5.496-2.609
					c-4.461-0.663-14.419,3.761-14.419,3.761c-62.056-23.912-46.985,66.4-45.68,87.629c1.294,21.226-45.68,29.221-77.967,45.945
					c-61.602,31.913-67.013,74.646-67.013,74.646c0.48,0.283,0.981,0.605,1.514,0.972c3.056-5.178,9.348-14.902,14.654-16.369
					c-0.201,0.471-6.27,13.387-8.534,20.788c18.173,13.825,52.17,44.457,75.865,66.174c-0.105-4.244,0.063-10.271,1.614-13.453
					l2.927,17.628c12.678,11.656,21.422,19.856,21.422,19.856c-1.566-17.155,77.585-107.683,118.88-134.794
					c10.053-14.8,13.626-40.944,13.893-43.002c-1.735,20.729-5.281,32.357-8.451,38.904
					C635.408,909.384,615.051,793.402,592.301,780.474z"/>
				<path style="fill:#E49963;" d="M592.554,947.013c0.207,0.093-19.939,10.553-35.091,6.409
					c-14.254-3.887-23.567-22.368-23.37-22.409c6.036-1.199,7.777-9.494,7.649-45.138l2.729,0.537l45.882,9.086
					c0,0-1.044,14.44-1.075,28.042C589.247,934.961,589.939,945.794,592.554,947.013z"/>
				<path style="fill:#E37970;" d="M540.667,795.436c0,0,22.634-24.096,51.051-1.232
					C591.718,794.204,575.18,791.344,540.667,795.436z"/>
				<path style="fill:#D68D5D;" d="M590.352,895.497c0,0-1.044,14.44-1.075,28.042c-25.676-0.724-39.247-24.146-44.808-37.128
					L590.352,895.497z"/>
				<path style="fill:#163560;" d="M539.731,881.417c0,0-13.455-21.26-16.685-39.439c-2.306-12.979,4.305-61.086,52.648-54.158
					c0,0,14.041,1.384,27.239,10.298c10.496,7.089,25.644,22.393,8.707,64.373l-4.4,14.181L539.731,881.417z"/>
				<path style="fill:#2B478B;" d="M773.228,1727.057l-24.321,0.745l-26.326,0.806c0,0-60.808-67.703-94.918-176.233
					c-0.796-2.522-1.633-5.075-2.522-7.659c-18.667-54.43-57.366-122.753-77.76-184.594c-3.246-9.85-6.16-19.122-8.776-27.898
					c-0.837-2.812-1.654-5.571-2.429-8.289c-15.029-52.219-19.38-86.505-23.391-123.135l130.221,1.042
					C643.007,1201.84,683.82,1452.113,773.228,1727.057z"/>
				<path style="fill:#E7F1FD;" d="M639.431,1117.358c1.726,70.055,10.28,100.14,10.28,100.14s-63.051,32.034-137.989,8.453
					c-0.882-0.277,4.859-289.486,26.111-297.456c4.888,6.087,19.456,12.006,32.419,11.715c14.927-0.329,19.768-6.719,18.993-13.696
					C605.151,935.366,636.959,1017.052,639.431,1117.358z"/>
				<path style="fill:#E49963;" d="M598.927,908.378c0,0-60.747,1.002-60.789-36.838c-0.042-37.84-7.91-63.195,30.873-65.435
					c38.784-2.24,46.336,12.191,49.422,24.818C621.519,843.55,614.728,907.142,598.927,908.378z"/>
				<path style="fill:#163560;" d="M616.626,809.884c-9.375-11.363-16.463-8.892-20.443-5.479
					c-13.127-19.616-54.618,8.752-54.618,8.752c-20.416,19.447-23.642,42.704-23.642,42.704s11.072,6.839,36.598,0.275
					c20.088-5.166,34.666-33.757,39.966-45.705c3.612,3.211,11.235,10.632,13.519,17.899c3.028,9.636,4.391,29.472,10.172,28.798
					C618.178,857.127,630.709,826.953,616.626,809.884z"/>
				<path style="fill:#E49963;" d="M843.371,971.18c0,0,8.563-30.864,42.495-26.503c3.894,1.22,15.272,5.758,8,17.938
					c-5.361,8.98-7.683,4.346-16.115,16.413c-8.433,12.067-17.586,14.793-28.044,13.349L843.371,971.18z"/>
				<path style="fill:#E49963;" d="M553.414,1799.929c-2.067-11.37-6-31.033-6-31.033l0.912-69.768h-42.373l15.855,66.777
					c0.327,3.099,1.193,15.129-3.258,27.885c0,0-4.07,18.541,14.191,18.885C551.002,1813.021,555.481,1811.299,553.414,1799.929z"/>
				<path style="fill:#233862;" d="M518.551,1793.791c0,0-3.619,19.57-1.552,28.873c0,0,5.351,0,18.617,0
					c12.576,0,19.746,0,19.746,0s0.163-21.249-3.196-29.346C552.165,1793.318,539.223,1812.741,518.551,1793.791z"/>
				<path style="fill:#233862;" d="M825.096,1801.982c-0.124-0.052-0.248-0.114-0.372-0.196
					c-8.961,0.279-17.985-3.008-26.161-12.208c-24.869-28.021-38.849-31.151-43.728-31.14c-4.197,8.651-8.832,18.375-2.868,29.331
					l8.905,34.894h9.605l0.096-32.941c6.326,1.665,12.497,4.693,15.246,10.192c6.719,13.437,11.384,22.749,17.623,22.749
					c3.517,0,43.162,0,43.162,0S845.769,1811.285,825.096,1801.982z"/>
				<path style="fill:#FFA412;" d="M843.371,971.18c0,0-39.874,22.294-54.118,28.723c-8.119,3.665-26.805,12.414-39.973,18.599
					c-8.375,3.934-18.335,1.781-24.353-5.249c-21.618-25.253-77.629-80.02-135.425-86.739l0.074,0.144l-0.332-0.144
					c0,0,35.146,86.826,36.18,104.398c1.034,17.571,4.134,287.347,4.134,287.347s-2.067,12.403,21.706,7.236
					c23.774-5.168,29.975-10.337,29.975-10.337s-22.74-166.413-16.538-224.297c1.222-11.408,0.109-24.238-2.456-37.482
					c35.21,21.416,76.877,30.936,76.877,30.936s31.151-13.588,73.732-44.79c13.365-9.794,36.852-47.149,36.852-47.149
					L843.371,971.18z"/>
				<path style="fill:#233862;" d="M748.907,1727.801l-26.326,0.806c0,0-60.808-67.703-94.918-176.233
					c-0.796-2.522-1.633-5.075-2.522-7.659c-18.667-54.43-57.366-122.753-77.76-184.594c-3.246-9.85-6.16-19.122-8.776-27.898
					c-0.837-2.812-1.654-5.571-2.429-8.289l21.686-16.455c0,0,65.108,105.43,85.263,204.647
					C660.636,1598.309,730.756,1702.012,748.907,1727.801z"/>
				<path style="fill:#2B478B;" d="M560.126,1521.365c0.372,48.25-2.067,159.178-8.352,205.102h-23.318
					c-12.89,0-19.319-0.185-19.319-0.185c-15.763-79.848-26.978-145.917-35.143-202.849c-6.698-46.72-12.652-86.773-17.23-121.255
					c-4.61-34.698-7.814-63.754-8.962-88.303c-0.176-3.865-0.31-7.628-0.382-11.276c-0.073-3.669-0.093-7.236-0.062-10.699
					l127.239-12.403C572.995,1364.037,559.919,1493.323,560.126,1521.365z"/>
				<path style="fill:#233862;" d="M528.456,1726.467c-12.89,0-19.319-0.185-19.319-0.185
					c-15.763-79.848-26.978-145.917-35.143-202.849c-6.698-46.72-12.652-86.773-17.23-121.255
					c-4.61-34.698-7.814-63.754-8.962-88.303l46.689,27.464c0,0-29.799,10.512-18.43,90.102
					C487.431,1511.03,512.631,1715.201,528.456,1726.467z"/>
				<path style="fill:#FFA412;" d="M534.465,1313.092c0,0-8.962,32.384-39.971,28.249c-31.008-4.135-75.103-22.74-75.103-22.74
					s13.251-41.871,29.727-96.881c19.949-66.597,44.642-152.449,56.281-206.601c3.266-15.174,5.499-27.846,6.326-36.921
					l26.107-49.702c0,0,37.978,85.879,40.045,107.585C579.944,1057.786,534.465,1313.092,534.465,1313.092z"/>
				<path style="fill:#E27F2B;" d="M533.09,1081.56c-1.385,35.143-9.654,103.363-83.383,139.881
					c-0.196,0.093-0.393,0.196-0.589,0.279c19.949-66.597,44.642-152.449,56.281-206.601
					C518.939,1035.357,533.844,1062.211,533.09,1081.56z"/>
				<path style="fill:#E49963;" d="M666.505,1062.339c-0.038,4.212-12.19,33.581-33.6,51.121c-4.146,3.396-7.466,5.046-10.112,5.502
					c-34.862,11.934-65.113,18.128-89.672,21.145v-38.893c30.337-1.944,67.712-3.975,83.099-4.801
					c2.533-4.032,5.502-9.742,6.498-15.51c1.84-10.701,7.57-18.63,22.492-20.594
					C660.131,1058.345,666.543,1058.137,666.505,1062.339z"/>
				<path style="fill:#FFA412;" d="M537.832,928.496c0,0-63.318,4.222-78.477,37.987c-15.16,33.765-19.983,146.086-0.689,179.161
					c0,0,26.564,7.566,73.546-1.22c0.576-0.108,1.155-0.218,1.737-0.33c0,0,14.987-36.694,1.55-43.929
					c0,0-39.622,2.067-35.488-11.026C504.145,1076.047,537.832,928.496,537.832,928.496z"/>
			</g>
			<g>
				<path style="fill:#FFFFFF;" d="M1872.331,1258.746l-37.142-0.5c-0.42-0.132-0.822-0.21-1.257-0.214
					c-0.412,0.004-0.806,0.051-1.2,0.178c-4.866,1.478-8.715,12.05-8.824,24.895c-0.014,0.678-0.009,1.33,0.009,1.992
					c0.119,5.664,0.984,10.793,2.334,14.797c1.461,4.285,3.495,7.259,5.802,8.142c0.05,0.026,0.098,0.042,0.135,0.06
					c0.435,0.153,0.872,0.237,1.318,0.239c0.425,0.006,0.849-0.069,1.274-0.212l324.762,4.38l0.333-24.838l0.328-25.031
					L1872.331,1258.746z"/>
				<path style="fill:#BED4F4;" d="M2014.045,1305.865c-68.477,5.71-109.755-24.818-141.714-47.119l-37.142-0.5
					c-0.42-0.132-0.822-0.21-1.257-0.214c-0.412,0.004-0.806,0.051-1.2,0.178c-4.866,1.478-8.715,12.05-8.824,24.895
					c-0.014,0.678-0.009,1.33,0.009,1.992c0.119,5.664,0.984,10.793,2.334,14.797c2.419,4.566,4.653,7.579,5.802,8.142
					c0.05,0.026,0.098,0.042,0.135,0.06c0.435,0.153,0.872,0.237,1.318,0.239c0.425,0.006,0.849-0.069,1.274-0.212l324.762,4.38
					l0.333-24.838C2155.12,1288.956,2122.882,1296.8,2014.045,1305.865z"/>
				<path style="fill:#AFCDFB;" d="M2160.745,1262.331c-5.423-0.046-9.915,11.18-10.033,25.073
					c-0.117,13.894,4.183,25.194,9.606,25.24c5.424,0.047,9.915-11.179,10.033-25.073
					C2170.469,1273.678,2166.168,1262.377,2160.745,1262.331z"/>
			</g>
			<path style="fill:#FFA412;" d="M552.091,761.994c-12.481,3.136-21.844,8.146-28.835,14.177c-0.693,0.595-1.368,1.208-2.016,1.83
				l-0.009,0.009c-25.867,24.668-15.545,63.932-15.545,63.932s3.444,9.919,5.813,13.769c2.369,3.849,36.717-0.592,38.493-7.995
				c1.776-7.403,8.587-15.101,8.587-15.101s36.206-2.488,38.641-2.665c8.179-0.593,31.523-8.714,31.523-8.714
				C628.477,818.943,615.339,746.111,552.091,761.994z"/>
			<path style="fill:#E27F2B;" d="M650.192,813.542c-4.344-1.062-11.75-2.244-23.954-2.691c0,0-23.607,9.211-43.98,15.681
				c-9.575-12.064-23.488-41.859-59.003-50.361c-0.107-0.026-0.204-0.053-0.311-0.08c-0.755,0.95-1.182,1.27-1.705,1.91
				l-0.009,0.009c-0.16,0.186-0.329,0.409-0.515,0.684c28.911,5.038,44.241,38.587,53.673,50.743
				c-8.093,1.99-5.253,2.484-15.81,3.178c0,0,63.279,1.18,92.201-14.049C652.983,817.406,652.612,814.133,650.192,813.542z"/>
			<path style="fill:#E27F2B;" d="M1610.972,809.27c24.75-44.75,91.385-39.387,91.385-39.387
				c-67.912-16.175-101.709,37.125-101.709,37.125l-2.926-0.988l-15.439,4.156l137.569,27.694L1610.972,809.27z"/>
			<rect x="1449.471" y="1326.755" style="fill:#7A97F3;" width="25.289" height="497.924"/>
			<rect x="2398.924" y="1326.755" style="fill:#7A97F3;" width="25.289" height="497.924"/>
			
				<rect x="1920.492" y="758.208" transform="matrix(-1.836970e-16 1 -1 -1.836970e-16 3253.2585 -613.0142)" style="fill:#7A97F3;" width="25.289" height="1123.829"/>
			<rect x="1449.471" y="1332.767" style="fill:#35488B;" width="25.289" height="19.003"/>
			<rect x="2398.924" y="1332.767" style="fill:#35488B;" width="25.289" height="19.003"/>
			<g>
				<path style="fill:#FFA412;" d="M2466.928,1261.401c0,0-3.476-4.775-9.721-10.139c-0.99-0.863-2.054-1.735-3.187-2.6
					c-11.491-8.841-29.911-17.512-52.223-8.344c-6.046,2.483-11.081,5.871-15.266,9.805c-0.991,0.928-1.93,1.881-2.817,2.867
					c-19.417,21.311-17.964,54.905-17.964,54.905l111.384-0.592C2477.664,1276.211,2466.928,1261.401,2466.928,1261.401z"/>
				<path style="fill:#E27F2B;" d="M2445.846,1307.469c-0.287-4.687-2.211-43.126,11.361-56.195c-0.99-0.87-0.753-0.718-1.885-1.589
					c-14.478,15.033-15.607,52.871-15.576,57.816l-35.606,0.189c-0.909-27.284-15.817-54.527-17.608-57.568
					c-0.991,0.928-1.179,1.11-2.065,2.097c2.588,4.61,12.276,30.961,13.084,55.506l-31.799,0.169c0,0,29.623,7.828,51.967,7.671
					c22.344-0.158,59.417-8.263,59.417-8.263L2445.846,1307.469z"/>
			</g>
			<g>
				<path style="fill:#FFFFFF;" d="M2093.075,1258.011l0.015,25.035l0.006,24.848l-324.791,0.123
					c-0.417,0.149-0.842,0.229-1.269,0.228c-0.448,0.005-0.887-0.076-1.32-0.218c-4.554-1.527-8.169-11.053-8.587-22.891
					c-0.031-0.653-0.041-1.313-0.042-1.987c-0.07-12.842,3.639-23.473,8.477-25.013c0.398-0.132,0.794-0.193,1.206-0.198
					c0.427,0.002,0.837,0.068,1.256,0.201L2093.075,1258.011z"/>
				<path style="fill:#BED4F4;" d="M2093.09,1283.046l0.006,24.848l-324.791,0.123c-0.417,0.149-0.842,0.229-1.269,0.228
					c-0.448,0.005-0.887-0.076-1.32-0.218c-4.554-1.527-8.169-11.053-8.587-22.891c14.924,5.469,98.842,24.633,187.592,0.13
					C2049.996,1256.203,2088.351,1284.403,2093.09,1283.046z"/>
				<path style="fill:#AFCDFB;" d="M2093.606,1257.706c-5.423,0.029-9.759,11.316-9.684,25.21
					c0.075,13.894,4.532,25.133,9.956,25.104c5.423-0.029,9.759-11.316,9.684-25.21
					C2103.487,1268.916,2099.03,1257.677,2093.606,1257.706z"/>
			</g>
			<g>
				<g>
					<path style="fill:#4A75CB;" d="M1705.59,929.355c0,0,79.465,82.034,83.279,112.966c3.813,30.933-37.807,79.324-37.807,79.324
						L1705.59,929.355z"/>
					<path style="fill:#163560;" d="M1671.614,1780.361c0,0-2.704,43.611-11.141,44.236c-1.122,0.083-42.793,0.083-42.793,0.083
						l-53.195-0.308c0,0,0.348-12.817,15.898-15.527c15.549-2.709,41.575-13.638,50.995-34.189
						C1641.286,1753.035,1671.614,1780.361,1671.614,1780.361z"/>
					<path style="fill:#163560;" d="M1790.098,1780.361c0,0-2.704,43.611-11.141,44.236c-1.122,0.083-42.793,0.083-42.793,0.083
						l-53.356-0.189c0,0,0.509-12.936,16.058-15.646c15.55-2.709,41.576-13.638,50.995-34.189
						C1759.77,1753.035,1790.098,1780.361,1790.098,1780.361z"/>
					<path style="fill:#233862;" d="M1612.702,1312.697c0,0,13.913,88.981,65.813,246.938
						c51.901,157.956,58.973,226.355,58.973,226.355s14.039,2.036,28.867,2.036c9.38,0,26.81-3.597,26.81-3.597
						s0.475-172.627-23.444-252.057c-23.919-79.43-5.162-286.354-5.162-286.354L1612.702,1312.697z"/>
					<path style="fill:#2B478B;" d="M1585.608,1250.892c0,0-1.97,134.089,21.23,298.727
						c23.199,164.637,15.336,234.524,15.336,234.524s19.099,3.421,25.809,3.644c7.181,0.239,29.756-1.797,29.756-1.797
						s33.206-164.7,23.686-247.104c-9.521-82.405,45.472-282.768,45.472-282.768L1585.608,1250.892z"/>
					<path style="fill:#FFB27D;" d="M1693.173,937.106l-26.207,19.411l-37.876-7.974c0.524-3.454,3.024-17.77,5.301-30.735
						c0.137-0.765,0.275-1.53,0.404-2.277c1.95-11.033,3.635-20.51,3.635-20.51l35.376-17.632l13.189-6.573
						c-0.034,0.232-1.022,12.245-1.16,13.997C1683.361,915.951,1693.173,937.106,1693.173,937.106z"/>
					<path style="fill:#4A75CB;" d="M1631.741,927.312c0.83-0.35,51.523-15.309,57.03-13.491c5.507,1.819,8.767,12.474,8.767,12.474
						l-82.916,18.745C1614.622,945.041,1621.148,931.772,1631.741,927.312z"/>
					<path style="fill:#739AF0;" d="M1768.246,1267.446c-8.593,39.198-151.598,43.847-188.46,8.265
						c-4.193-4.055-4.399-22.924-2.818-48.368c3.093-49.707,13.026-124.479,13.413-162.682c0.189-18.448,2.724-37.318,6.101-54.451
						c7.183-36.518,18.138-65.175,18.138-65.175s69.849-22.581,82.918-18.74C1760.505,944.797,1776.839,1228.247,1768.246,1267.446z
						"/>
					<path style="fill:#4A75CB;" d="M1576.968,1227.344c3.093-49.707,13.026-124.479,13.413-162.682
						c0.189-18.448,2.724-37.318,6.101-54.451l42.017-7.416C1638.499,1002.796,1679.58,1170.591,1576.968,1227.344z"/>
					<path style="fill:#FFB27D;" d="M1599.721,1158.059c0,0,2.864,6.845-3.151,11.442c-6.015,4.596-9.916,12.044-8.538,17.485
						c1.378,5.442,14.571,14.32,19.145,12.889c4.574-1.432,13.882-8.6,12.88-11.471c-1.002-2.869,6.261-25.191-4.889-33.783
						C1604.018,1146.029,1599.721,1158.059,1599.721,1158.059z"/>
					<path style="fill:#739AF0;" d="M1646.705,934.98c0,0-40.978,7.668-73.63,55.786s-54.133,83.892-48.118,101.235
						c6.015,17.342,60.841,77.49,70.293,77.49c9.452,0,24.705-6.873,25.564-22.34c0,0-38.6-57.853-30.997-66.518
						c3.25-3.703,50.114-41.748,56.805-24.563C1657.692,1084.504,1646.705,934.98,1646.705,934.98z"/>
					<path style="fill:#FCA56B;" d="M1683.18,885.362c-7.768,14.865-36.716,27.72-48.788,32.446c0.137-0.765,0.275-1.53,0.404-2.277
						c1.95-11.033,3.635-20.51,3.635-20.51l35.376-17.632C1681.625,877.268,1686.385,879.244,1683.18,885.362z"/>
					<path style="fill:#FFB27D;" d="M1627.154,898.688c0,0,62.475,7.182,66.349-31.793c3.874-38.974,14.546-64.297-25.178-70.53
						c-39.725-6.234-48.965,7.867-53.422,20.562C1610.446,829.621,1611.003,895.815,1627.154,898.688z"/>
					<path style="fill:#233862;" d="M1616.543,812.931c0,0,11.928,42.229,20.454,38.676c8.526-3.553,16.318-6.467,17.479,6.725
						c1.162,13.192-8.311,30.483,19.494,27.568s53.729-80.982,43.669-92.917C1688.612,758.547,1576.242,771.853,1616.543,812.931z"
						/>
				</g>
				<path style="fill:#FFA412;" d="M1719.852,837.87l-137.569-27.694l15.439-4.157c0,0,14.113-58.231,83.797-44.307
					C1739.472,773.292,1719.852,837.87,1719.852,837.87z"/>
			</g>
		</g>
		<path style="fill:#202F4E;" d="M2730.344,1830.361H269.655c-2.439,0-4.435-1.996-4.435-4.435l0,0c0-2.439,1.996-4.435,4.435-4.435
			h2460.689c2.439,0,4.435,1.996,4.435,4.435l0,0C2734.779,1828.365,2732.783,1830.361,2730.344,1830.361z"/>
	</g>
</g>
</svg>
