<?xml version="1.0" encoding="utf-8"?>
<!-- Generator: Adobe Illustrator 27.5.0, SVG Export Plug-In . SVG Version: 6.00 Build 0)  -->
<svg version="1.1" id="Layer_1" xmlns="http://www.w3.org/2000/svg" xmlns:xlink="http://www.w3.org/1999/xlink" x="0px" y="0px"
	 viewBox="0 0 450 450" style="enable-background:new 0 0 450 450;" xml:space="preserve">
<rect style="fill:#FFFFFF;" width="450" height="450"/>
<g>
	<g>
		<g>
			<path style="fill:#FFFFFF;" d="M175.056,244.967c11.225-62.71,4.109-127.328-20.494-186.09
				c-18.09,61.572-13.537,127.585,12.837,186.09H175.056z"/>
			<path style="fill:#D0D0FF;" d="M175.055,245.342h-7.657c-0.147,0-0.281-0.087-0.342-0.221
				c-26.394-58.549-30.958-124.729-12.855-186.35c0.045-0.152,0.181-0.26,0.339-0.269c0.153-0.018,0.305,0.083,0.366,0.229
				c24.686,58.959,31.78,123.381,20.518,186.301C175.392,245.212,175.237,245.342,175.055,245.342z M167.64,244.592h7.101
				c11.096-62.331,4.141-126.128-20.118-184.59C136.943,121.08,141.556,186.586,167.64,244.592z"/>
		</g>
		<g>
			<path style="fill:#FFFFFF;" d="M138.132,383.434c-24.91-41.871-37.919-89.747-37.628-138.466h37.628h31.298h16.176h31.298h37.627
				c0.292,48.719-12.717,96.595-37.627,138.466H138.132z"/>
			<path style="fill:#D0D0FF;" d="M216.903,383.809h-78.771c-0.132,0-0.255-0.069-0.322-0.184
				c-24.943-41.927-37.973-89.875-37.681-138.66c0.001-0.206,0.169-0.373,0.375-0.373h154.027c0.206,0,0.374,0.167,0.375,0.373
				c0.292,48.785-12.737,96.733-37.68,138.66C217.158,383.739,217.035,383.809,216.903,383.809z M138.345,383.059h78.345
				c24.738-41.659,37.69-89.268,37.468-137.717H100.877C100.655,293.791,113.607,341.4,138.345,383.059z"/>
		</g>
		<g>
			<path style="fill:#FFFFFF;" d="M183.144,244.967c42.827-52.029,97.601-92.93,159.652-119.212
				c-42.816,48.661-94.186,89.066-151.564,119.212H183.144z"/>
			<path style="fill:#D0D0FF;" d="M191.233,245.342h-8.088c-0.145,0-0.277-0.084-0.339-0.215c-0.062-0.131-0.043-0.286,0.049-0.398
				c42.69-51.863,97.946-93.123,159.795-119.319c0.162-0.069,0.347-0.016,0.45,0.126c0.102,0.142,0.094,0.336-0.023,0.467
				c-43.006,48.879-94.035,89.015-151.67,119.296C191.353,245.327,191.293,245.342,191.233,245.342z M183.94,244.592h7.2
				c57.031-29.977,107.583-69.618,150.278-117.842C280.541,152.824,226.131,193.537,183.94,244.592z"/>
		</g>
		<g>
			<path style="fill:#FFFFFF;" d="M195.276,244.967c24.318-13.936,51.504-22.114,79.474-23.913
				c20.037,9.945,41.854,15.802,64.178,17.231c-12.056-19.8-29.252-35.962-49.759-46.772
				c-39.312,4.506-75.509,23.577-101.454,53.453H195.276z"/>
			<path style="fill:#D0D0FF;" d="M195.276,245.342h-7.561c-0.147,0-0.28-0.086-0.341-0.22c-0.061-0.134-0.038-0.29,0.058-0.401
				c26.073-30.023,62.189-49.051,101.695-53.579c0.077-0.006,0.151,0.005,0.218,0.041c20.561,10.838,37.818,27.059,49.904,46.908
				c0.072,0.12,0.073,0.27,0.001,0.39c-0.072,0.119-0.194,0.197-0.346,0.18c-22.459-1.439-44.067-7.232-64.229-17.225
				c-27.724,1.798-55.113,10.047-79.212,23.856C195.406,245.324,195.342,245.342,195.276,245.342z M188.54,244.592h6.637
				c24.205-13.852,51.711-22.122,79.549-23.911c0.075-0.003,0.133,0.009,0.191,0.038c19.882,9.867,41.179,15.634,63.313,17.146
				c-11.977-19.421-28.949-35.302-49.133-45.964C250.096,196.399,214.421,215.1,188.54,244.592z"/>
		</g>
		<g>
			<path style="fill:#FFFFFF;" d="M167.398,244.967c-24.178-35.663-56.591-64.975-94.499-85.454
				c-15.262-1.179-30.613,0.309-45.363,4.397c14.56,2.344,28.531,7.478,41.143,15.12c25.801,28.642,57.665,51.167,93.271,65.937
				H167.398z"/>
			<path style="fill:#D0D0FF;" d="M167.398,245.342h-5.448c-0.049,0-0.098-0.01-0.143-0.028
				c-35.416-14.691-67.702-37.51-93.369-65.991c-12.618-7.637-26.398-12.698-40.961-15.042c-0.174-0.028-0.305-0.173-0.315-0.349
				c-0.01-0.176,0.105-0.335,0.274-0.382c14.836-4.112,30.14-5.594,45.492-4.41c0.052,0.004,0.103,0.019,0.149,0.044
				c37.798,20.419,70.521,50.01,94.632,85.574c0.078,0.114,0.086,0.263,0.021,0.386
				C167.664,245.265,167.537,245.342,167.398,245.342z M162.025,244.592h4.665c-23.99-35.183-56.443-64.462-93.899-84.711
				c-14.667-1.125-29.293,0.203-43.502,3.944c14.052,2.474,27.362,7.478,39.586,14.884c0.031,0.019,0.06,0.042,0.085,0.07
				C94.54,207.178,126.722,229.936,162.025,244.592z"/>
		</g>
		<g>
			<path style="fill:#FFFFFF;" d="M161.951,244.967c-31.772-23.472-69.529-37.489-108.92-40.442
				C86.503,224.668,123.443,238.384,161.951,244.967z"/>
			<path style="fill:#D0D0FF;" d="M161.95,245.342c-0.021,0-0.042-0.002-0.063-0.005c-38.71-6.618-75.399-20.241-109.05-40.49
				c-0.149-0.089-0.217-0.27-0.164-0.435c0.053-0.165,0.218-0.264,0.385-0.26c39.515,2.962,77.246,16.971,109.115,40.514
				c0.14,0.104,0.19,0.289,0.123,0.449C162.236,245.254,162.099,245.342,161.95,245.342z M54.596,205.025
				c32.737,19.476,68.331,32.692,105.843,39.299C129.388,221.748,92.86,208.185,54.596,205.025z"/>
		</g>
		<g>
			<path style="fill:#FFFFFF;" d="M184.463,244.967c25.998-62.954,38.805-130.57,37.627-198.671
				c-36.638,59.408-52.703,129.224-45.716,198.671H184.463z"/>
			<path style="fill:#D0D0FF;" d="M184.463,245.342h-8.089c-0.192,0-0.354-0.145-0.373-0.338
				c-3.481-34.602-1.292-69.33,6.506-103.221c7.798-33.891,21.008-66.083,39.263-95.684c0.088-0.141,0.259-0.207,0.418-0.165
				c0.161,0.044,0.273,0.189,0.276,0.355c1.186,68.553-11.483,135.446-37.655,198.821
				C184.752,245.25,184.615,245.342,184.463,245.342z M176.714,244.592h7.499c25.904-62.813,38.526-129.086,37.523-197.002
				c-17.863,29.228-30.814,60.969-38.498,94.361C175.483,175.652,173.288,210.182,176.714,244.592z"/>
		</g>
		<g>
			<path style="fill:#FFFFFF;" d="M164.505,244.967c-43.765-63.493-61.089-141.531-48.301-217.579
				c32.521,68.143,50.963,142.144,54.222,217.579H164.505z"/>
			<path style="fill:#D0D0FF;" d="M170.426,245.342h-5.92c-0.124,0-0.239-0.061-0.309-0.162
				c-21.808-31.638-37.088-66.7-45.415-104.213c-8.328-37.513-9.319-75.747-2.947-113.641c0.027-0.162,0.156-0.287,0.317-0.31
				c0.168-0.021,0.32,0.063,0.391,0.21c32.724,68.57,50.979,141.823,54.258,217.724c0.004,0.103-0.033,0.202-0.104,0.276
				C170.626,245.3,170.528,245.342,170.426,245.342z M164.703,244.592h5.331c-3.303-75.264-21.353-147.915-53.656-215.965
				c-6.139,37.413-5.085,75.147,3.135,112.177C127.806,178.158,143.01,213.076,164.703,244.592z"/>
		</g>
		<g>
			<path style="fill:#FFFFFF;" d="M180.233,244.967c19.546-77.883,64.96-146.822,128.805-195.522
				c-20.182,75.751-62.408,143.802-121.323,195.522H180.233z"/>
			<path style="fill:#D0D0FF;" d="M187.715,245.342h-7.482c-0.116,0-0.225-0.054-0.296-0.145c-0.071-0.091-0.096-0.21-0.068-0.321
				c19.49-77.66,65.282-147.171,128.941-195.729c0.128-0.097,0.303-0.103,0.436-0.013c0.133,0.089,0.194,0.253,0.153,0.408
				c-20.271,76.085-62.264,143.759-121.438,195.707C187.894,245.309,187.805,245.342,187.715,245.342z M180.714,244.592h6.86
				C246.3,192.999,288.062,125.872,308.39,50.413C245.447,98.738,200.139,167.64,180.714,244.592z"/>
		</g>
	</g>
	<g>
		<g>
			<polygon style="fill:#2E175A;" points="214.796,106.627 189.641,106.627 177.374,88.638 202.529,88.638 			"/>
			<path style="fill:#FFFFFF;" d="M197.721,95.924c1.384,2.029,1.252,3.674-0.295,3.674c-1.547,0-3.923-1.645-5.306-3.674
				c-1.384-2.029-1.252-3.674,0.295-3.674C193.961,92.25,196.337,93.895,197.721,95.924z"/>
			<path style="fill:#2E175A;" d="M228.683,106.627h-16.627v-2.982h13.645C227.348,103.646,228.683,104.98,228.683,106.627
				L228.683,106.627z"/>
		</g>
		<path style="fill:#9566DA;" d="M214.181,106.113c0.018,0,0.038-0.005,0.055-0.015c0.048-0.03,0.063-0.094,0.033-0.142
			l-1.102-1.771c-0.031-0.048-0.094-0.063-0.142-0.033c-0.048,0.03-0.063,0.094-0.033,0.142l1.102,1.771
			C214.114,106.097,214.146,106.113,214.181,106.113z"/>
	</g>
	<g>
		<g>
			<path style="fill:#2E175A;" d="M353.505,219.511c-4.614-1.54-1.127-8.147,3.652-9.477c4.779-1.33,10.859,0.674,13.073,3.05
				c3.156,0.371,3.227,5.346,1.337,8.932c-1.889,3.586-1.7,8.692-6.519,10.769L353.505,219.511z"/>
			<path style="fill:#FFBFC6;" d="M353.505,219.511c-1.189,7.211-2.944,14.38,4.859,12.015l0.102,4.457l0.203,4.015l8.777-3.381
				c0,0-1.962-4.997-2.03-9.635c0,0,4.422-1.618,2.194-4.685c-1.885-2.582-5.167,0.659-5.167,0.659s-0.521-3.187-0.009-4.792
				C359.443,219.325,355.642,220.157,353.505,219.511z"/>
			<path style="fill:#FFBFC6;" d="M353.598,223.042l-1.624,0.952c-0.463,0.271-0.689,0.816-0.553,1.335
				c0.135,0.519,0.599,0.885,1.134,0.895l0.937,0.019L353.598,223.042z"/>
			<path style="fill:#F22D5C;" d="M363.511,223.936c0.053,0.02,0.113,0.021,0.168-0.001l2.457-0.999
				c0.118-0.048,0.174-0.182,0.127-0.299c-0.048-0.119-0.182-0.175-0.299-0.127l-2.457,0.998c-0.117,0.048-0.174,0.182-0.127,0.299
				C363.406,223.87,363.454,223.914,363.511,223.936z"/>
			<path style="fill:#2E175A;" d="M358.364,231.526l0.102,4.457c2.458-2.251,3.037-6.551,3.075-6.925
				C361.376,229.488,359.913,230.974,358.364,231.526z"/>
			<path style="fill:#FFFFFF;" d="M354.887,223.092c0.529,0.967,1.544,1.58,2.652,1.626c0.012,0.01,0.022-0.002,0.034,0.007
				c1.116,0.011,2.168-0.55,2.742-1.515c-0.468-1.019-1.443-1.681-2.554-1.748c-0.046-0.017-0.081-0.025-0.125-0.02
				C356.487,221.423,355.409,222.065,354.887,223.092z"/>
			<path style="fill:#2E175A;" d="M354.887,223.092c0.529,0.967,1.544,1.58,2.652,1.626c0.052-0.039,0.091-0.088,0.13-0.137
				c0.745-0.929,0.749-2.211,0.092-3.119c-0.046-0.017-0.081-0.025-0.125-0.02C356.487,221.423,355.409,222.065,354.887,223.092z"/>
			<path style="fill:#FFFFFF;" d="M358.834,225.991c-1.051,0.57-2.251,0.806-3.44,0.676c0.236,0.897,1.128,1.457,2.038,1.278
				C358.342,227.766,358.956,226.91,358.834,225.991z"/>
			<path style="fill:#2E175A;" d="M359.003,220.485c-1.166-0.731-2.805-0.768-4.086,0.017l-0.023,0.014
				c-0.264,0.162-0.347,0.507-0.185,0.771c0.162,0.264,0.507,0.347,0.772,0.185c0.028-0.017,0.056-0.038,0.08-0.059
				c0.815-0.726,2.108-0.977,3.235-0.519c0.118,0.048,0.252-0.009,0.3-0.126C359.139,220.663,359.096,220.543,359.003,220.485z"/>
			<path style="fill:#4A3797;" d="M354.868,212.047c0.012,0.005,0.026,0.009,0.041,0.012c2.28,0.421,4.596-0.201,6.355-1.708
				c0.096-0.083,0.108-0.227,0.026-0.323c-0.083-0.098-0.229-0.107-0.323-0.026c-1.655,1.417-3.831,2.001-5.974,1.605
				c-0.125-0.023-0.245,0.059-0.268,0.184C354.704,211.902,354.767,212.008,354.868,212.047z"/>
			<path style="fill:#4A3797;" d="M353.774,214.948c4.29,1.653,7.301,0.263,8.74-1.716c1.137-1.563,2.937-1.795,3.869-1.571
				c0.124,0.029,0.247-0.046,0.278-0.169c0.029-0.123-0.045-0.248-0.169-0.277c-1.053-0.254-3.079,0.002-4.348,1.747
				c-1.449,1.991-4.645,3.323-9.249,1.104c-0.118-0.062-0.252-0.008-0.306,0.107c-0.055,0.114-0.008,0.252,0.107,0.306
				C353.063,214.657,353.423,214.813,353.774,214.948z"/>
			<path style="fill:#4A3797;" d="M370.82,222.312c0.028,0.011,0.058,0.017,0.089,0.015c0.126-0.003,0.226-0.109,0.223-0.236
				c-0.025-0.899-0.241-1.527-0.659-1.918c-0.588-0.553-1.438-0.517-2.261-0.485c-1.324,0.051-2.142,0.011-2.294-1.429
				c-0.192-1.808,0.854-2.167,2.066-2.582c0.979-0.336,2.088-0.715,2.27-2.034c0.017-0.125-0.072-0.241-0.195-0.259
				c-0.126-0.018-0.242,0.07-0.259,0.195c-0.144,1.04-0.987,1.329-1.965,1.664c-1.221,0.418-2.604,0.892-2.374,3.064
				c0.205,1.938,1.625,1.884,2.769,1.839c0.762-0.03,1.481-0.061,1.929,0.362c0.323,0.303,0.492,0.825,0.514,1.596
				C370.676,222.2,370.736,222.28,370.82,222.312z"/>
			<path style="fill:#2E175A;" d="M352.07,226.36c0.151,0.058,0.313,0.092,0.48,0.095l0.937,0.019
				c0.127,0.003,0.232-0.098,0.235-0.225c0.003-0.126-0.099-0.231-0.225-0.235l-0.937-0.019c-0.435-0.006-0.809-0.307-0.917-0.723
				c-0.109-0.417,0.074-0.861,0.446-1.079l1.625-0.952c0.109-0.065,0.146-0.205,0.083-0.314c-0.067-0.11-0.205-0.146-0.314-0.083
				l-1.625,0.952c-0.549,0.322-0.82,0.976-0.66,1.591C351.317,225.841,351.649,226.198,352.07,226.36z"/>
		</g>
		<g>
			<rect x="320.792" y="297.063" style="fill:#9566DA;" width="34.61" height="15.573"/>
			
				<rect x="296.997" y="297.063" transform="matrix(-1 -1.224647e-16 1.224647e-16 -1 617.8671 609.6978)" style="fill:#D0D0FF;" width="23.872" height="15.573"/>
			<path style="fill:#FFFFFF;" d="M350.16,307.651h-20.285c-0.143,0-0.259-0.115-0.259-0.259v-5.087
				c0-0.143,0.115-0.258,0.259-0.258h20.285c0.143,0,0.259,0.115,0.259,0.258v5.087C350.418,307.536,350.303,307.651,350.16,307.651
				z M330.133,307.134h19.768v-4.57h-19.768V307.134z"/>
			<path style="fill:#FFFFFF;" d="M341.864,304.849c0,0.531-0.43,0.961-0.961,0.961c-0.531,0-0.961-0.431-0.961-0.961
				c0-0.531,0.43-0.961,0.961-0.961C341.434,303.888,341.864,304.318,341.864,304.849z"/>
			<path style="fill:#9566DA;" d="M320.87,373.164c-0.143,0-0.258-0.115-0.258-0.259v-75.843c0-0.144,0.115-0.258,0.258-0.258
				c0.144,0,0.258,0.115,0.258,0.258v75.843C321.129,373.049,321.014,373.164,320.87,373.164z"/>
			<path style="fill:#9566DA;" d="M355.402,373.164c-0.143,0-0.258-0.115-0.258-0.259v-75.585h-57.957v75.585
				c0,0.143-0.115,0.259-0.258,0.259c-0.144,0-0.259-0.115-0.259-0.259v-75.843c0-0.144,0.115-0.258,0.259-0.258h58.474
				c0.143,0,0.259,0.115,0.259,0.258v75.843C355.661,373.049,355.546,373.164,355.402,373.164z"/>
		</g>
		<path style="fill:#F22D5C;" d="M359.506,327.708l3.281,34.527h10.009l2.621-37.792l2.391-3.364l5.919-8.31l-5.639-19.638
			l-2.671-9.299l-13.916,31.559C359.786,319.266,359.11,323.503,359.506,327.708z"/>
		<polygon style="fill:#2E175A;" points="377.534,299.744 377.808,321.079 383.727,312.769 378.088,293.131 		"/>
		<path style="fill:#2E175A;" d="M399.253,273.322l-23.835,10.503c0,0-4.008-11.581-13.892-20.207
			c-3.802-3.319-4.063-10.043-3.793-14.267c0.167-2.615-0.349-5.223-1.555-7.549v0c-0.536-1.034-0.143-2.306,0.883-2.857
			l9.042-4.857c1.024-0.55,2.299-0.178,2.866,0.836l0.723,1.29c0.69,1.232,1.855,2.101,3.208,2.505
			c1.551,0.464,3.767,1.525,5.782,3.956c3.578,4.315,17.576,24.838,17.576,24.838l3.756,1.96L399.253,273.322z"/>
		<path style="fill:#2E175A;" d="M358.501,245.385l-5.999,16.892h-14.998v10.025h15.947c4.177,0,7.965-2.453,9.673-6.265
			l5.717-12.758L358.501,245.385z"/>
		<path style="fill:#9566DA;" d="M359.11,244.143c0.09,0,0.177-0.054,0.212-0.142c0.931-2.281,3.21-3.737,5.669-3.594
			c0.14,0.011,0.235-0.091,0.242-0.217c0.006-0.127-0.09-0.235-0.217-0.242c-2.677-0.143-5.113,1.418-6.118,3.879
			c-0.048,0.117,0.008,0.252,0.126,0.299C359.052,244.138,359.082,244.143,359.11,244.143z"/>
		<polygon style="fill:#2E175A;" points="366.552,264.803 351.002,290.614 344.845,286.904 357.001,253.515 		"/>
		<path style="fill:#4A3797;" d="M357.781,257.902c4.224,0.001,6.689-4.094,7.427-5.546c0.118-0.23,0.241-0.484,0.373-0.757
			c1.069-2.197,2.685-5.519,6.003-6.612c2.413-0.794,5.414-0.277,8.912,1.548c0.108,0.059,0.25,0.015,0.309-0.098
			c0.059-0.112,0.015-0.251-0.098-0.309c-3.612-1.883-6.726-2.416-9.268-1.577c-3.502,1.155-5.168,4.581-6.271,6.847
			c-0.131,0.27-0.254,0.521-0.369,0.749c-0.836,1.643-3.989,6.841-9.456,4.835c-0.117-0.046-0.25,0.017-0.294,0.136
			c-0.044,0.118,0.017,0.251,0.136,0.294C356.113,257.755,356.979,257.902,357.781,257.902z"/>
		<path style="fill:#4A3797;" d="M371.414,274.253c0.023,0,0.048-0.004,0.072-0.012c2.915-0.954,4.664-3.674,5.446-5.21
			c0.117-0.23,0.241-0.485,0.374-0.757c1.068-2.197,2.684-5.519,6.002-6.613c2.415-0.795,5.413-0.276,8.912,1.549
			c0.108,0.058,0.25,0.014,0.309-0.098c0.058-0.112,0.015-0.251-0.098-0.309c-3.612-1.884-6.729-2.413-9.267-1.578
			c-3.502,1.155-5.169,4.581-6.272,6.848c-0.131,0.27-0.254,0.521-0.37,0.749c-1.277,2.507-3.165,4.323-5.181,4.982
			c-0.12,0.04-0.186,0.169-0.146,0.29C371.228,274.192,371.318,274.253,371.414,274.253z"/>
		<path style="fill:#F22D5C;" d="M375.419,283.826l10.419,78.408h10.84l2.526-71.619c0,0,5.571-9.378,0.049-17.292L375.419,283.826z
			"/>
		<path style="fill:#FFFFFF;" d="M392.326,290.843c0.089,0,0.174-0.052,0.211-0.139c0.05-0.116-0.004-0.252-0.12-0.301
			l-10.456-4.473c-0.116-0.049-0.251,0.004-0.301,0.12c-0.05,0.116,0.004,0.252,0.12,0.301l10.456,4.473
			C392.265,290.837,392.295,290.843,392.326,290.843z"/>
		<path style="fill:#FFBFC6;" d="M347.898,373.067h24.156l0.148-2.259l0.429-6.15l0.165-2.424h-8.211
			c-0.495,1.022-0.857,1.814-1.237,2.424c-1.006,1.665-2.226,2.144-7.139,3.001c-3.38,0.577-5.458,1.946-6.694,3.15
			C348.294,372.028,347.898,373.067,347.898,373.067z"/>
		<path style="fill:#2E175A;" d="M347.898,373.067h24.156l0.148-2.259l0.429-6.15h-9.283c-1.006,1.665-2.226,2.144-7.139,3.001
			c-3.38,0.577-5.458,1.946-6.694,3.15C348.294,372.028,347.898,373.067,347.898,373.067z"/>
		<path style="fill:#F22D5C;" d="M347.898,373.067h24.156l0.148-2.259h-22.688C348.294,372.028,347.898,373.067,347.898,373.067z"/>
		<path style="fill:#FFBFC6;" d="M372.795,373.067h23.229l0.027-2.259l0.096-6.15l0.034-2.424h-7.897
			c-0.423,1.022-0.731,1.814-1.065,2.424c-0.882,1.665-2.03,2.144-6.711,3.001c-3.221,0.577-5.149,1.946-6.276,3.15
			C373.123,372.028,372.795,373.067,372.795,373.067z"/>
		<path style="fill:#2E175A;" d="M372.795,373.067h23.229l0.027-2.259l0.096-6.15h-8.927c-0.882,1.665-2.03,2.144-6.711,3.001
			c-3.221,0.577-5.149,1.946-6.276,3.15C373.123,372.028,372.795,373.067,372.795,373.067z"/>
		<path style="fill:#F22D5C;" d="M372.795,373.067h23.229l0.027-2.259h-21.818C373.123,372.028,372.795,373.067,372.795,373.067z"/>
		<path style="fill:#2E175A;" d="M387.098,359.095h8.001c0.126,0,0.23-0.103,0.23-0.229c0-0.126-0.103-0.229-0.23-0.229h-8.001
			c-0.126,0-0.229,0.103-0.229,0.229C386.869,358.992,386.972,359.095,387.098,359.095z"/>
		<path style="fill:#2E175A;" d="M363.562,359.095h8.001c0.127,0,0.23-0.103,0.23-0.229c0-0.126-0.103-0.229-0.23-0.229h-8.001
			c-0.126,0-0.229,0.103-0.229,0.229C363.333,358.992,363.436,359.095,363.562,359.095z"/>
		<path style="fill:#2E175A;" d="M363.562,336.993c0.006,0,0.011,0,0.017-0.001c0.126-0.009,0.221-0.119,0.212-0.246l-0.824-11.163
			c-0.205-2.788,0.299-5.607,1.459-8.152l7.195-15.09c0.055-0.114,0.006-0.251-0.108-0.306c-0.114-0.053-0.252-0.006-0.306,0.109
			l-7.197,15.093c-1.193,2.618-1.712,5.514-1.501,8.379l0.824,11.163C363.343,336.901,363.443,336.993,363.562,336.993z"/>
		<path style="fill:#2E175A;" d="M385.101,335.599c0.008,0,0.016,0,0.025-0.001c0.126-0.014,0.217-0.127,0.203-0.254l-4.104-37.73
			c-0.013-0.126-0.114-0.216-0.253-0.203c-0.126,0.014-0.217,0.127-0.203,0.254l4.104,37.73
			C384.886,335.512,384.985,335.599,385.101,335.599z"/>
		<path style="fill:#FFBFC6;" d="M337.504,262.698c0,0-2.868,0.474-3.71-1c-0.842-1.474-1.894-2.342-5.709-2.368
			c-3.815-0.026-4.181-1.515-5.157-0.316c-0.921,1.132,3.841,2.71,5.946,2.289c0,0-0.395,1.789-3.289,1.789
			c-2.894,0-4.841-0.579-5.578-1.789c-0.737-1.21-1.21-1.237-1.605-1.105c-0.395,0.132-0.395,0.632-0.263,1
			c0,0-0.71,0.474-0.237,1.552c0.473,1.079,1.868,3.525,5.893,3.762c4.026,0.237,10.972,0.526,13.708,1.5V262.698z"/>
		<path style="fill:#F22D5C;" d="M324.348,264.874c0.119,0,0.221-0.092,0.229-0.213c0.009-0.126-0.086-0.236-0.212-0.245
			c-4.277-0.303-5.362-2.163-5.592-2.726c-0.048-0.117-0.179-0.176-0.299-0.125c-0.117,0.048-0.173,0.182-0.125,0.299
			c0.255,0.625,1.443,2.689,5.985,3.009C324.338,264.874,324.343,264.874,324.348,264.874z"/>
		<path style="fill:#FFBFC6;" d="M351.002,290.614l-3.841,6.236h-11.472c0,0,0.474-2.947,6.157-3.118l3.606-6.462L351.002,290.614z"
			/>
		<path style="fill:#9566DA;" d="M350.873,272.531h2.577c4.261,0,8.14-2.513,9.883-6.401l5.717-12.758
			c0.051-0.116,0-0.252-0.116-0.304c-0.116-0.051-0.251,0-0.304,0.116l-5.717,12.758c-1.669,3.724-5.383,6.13-9.463,6.13h-2.577
			c-0.126,0-0.229,0.103-0.229,0.229C350.644,272.428,350.747,272.531,350.873,272.531z"/>
		<path style="fill:#2E175A;" d="M378.589,311.618c0.006,0,0.013,0,0.021-0.001c0.126-0.012,0.22-0.123,0.208-0.249l-1.846-20.567
			c-0.011-0.126-0.106-0.239-0.249-0.208c-0.126,0.012-0.219,0.123-0.208,0.249l1.846,20.567
			C378.371,311.528,378.471,311.618,378.589,311.618z"/>
		<path style="fill:#9566DA;" d="M374.839,278.922c0.026,0,0.053-0.005,0.079-0.014l23.262-8.497
			c0.119-0.043,0.18-0.175,0.136-0.294c-0.043-0.118-0.176-0.182-0.294-0.136l-19.938,7.282l17.135-8.915
			c0.113-0.058,0.156-0.197,0.098-0.309c-0.059-0.113-0.2-0.157-0.309-0.098l-20.274,10.548c-0.108,0.056-0.153,0.186-0.104,0.296
			C374.667,278.871,374.75,278.922,374.839,278.922z"/>
	</g>
	<g>
		<g>
			<polygon style="fill:#2E175A;" points="280.283,138.033 253.76,138.033 251.177,130.535 253.412,130.535 			"/>
			<path style="fill:#9566DA;" d="M232.697,166.253l12.714,1.675l0.635-6.983l0.688-7.583l1.358-14.936l-11.621-17.088
				C233.297,124.618,232.697,166.253,232.697,166.253z"/>
			<polygon style="fill:#2E175A;" points="238.822,138.796 245.825,163.384 246.734,153.362 			"/>
			<path style="fill:#9566DA;" d="M274.522,116.875c-13.014-2.483-31.392-2.881-36.458,1.689c-5.066,4.57-2.483,10.928-0.695,16.789
				c1.788,5.861,12.12,31.69,12.12,31.69l14.603-6.557l-11.921-29.404c0,0,41.127,18.974,45.597-5.762L274.522,116.875z"/>
			<path style="fill:#2E175A;" d="M251.575,130.408c0.063,0,0.126-0.028,0.169-0.079c0.078-0.093,0.066-0.232-0.028-0.31
				l-3.676-3.081c-0.093-0.078-0.232-0.066-0.31,0.028c-0.078,0.093-0.066,0.232,0.028,0.31l3.676,3.081
				C251.475,130.391,251.525,130.408,251.575,130.408z"/>
			<polygon style="fill:#2E175A;" points="264.091,160.485 265.581,164.459 250.084,170.867 248.78,167.334 249.488,167.042 			"/>
			<polygon style="fill:#2E175A;" points="245.415,167.936 230.936,166.013 230.489,169.476 245.13,171.413 			"/>
			<path style="fill:#FFBFC6;" d="M217.005,187.105h25.555l1.385-13.229l0.249-2.459l-8.186-1.214
				c-0.171,1.136-0.358,2.397-0.685,3.673c-0.856,3.331-2.692,6.677-7.595,7.595C220.958,182.732,217.005,187.105,217.005,187.105z"
				/>
			<path style="fill:#D0D0FF;" d="M217.005,187.105h25.555l1.058-10.101l0.327-3.128h-8.622c-0.28,1.074-0.654,2.132-1.198,3.128
				c-1.152,2.101-3.066,3.844-6.397,4.467C220.958,182.732,217.005,187.105,217.005,187.105z"/>
			<path style="fill:#F22D5C;" d="M217.005,187.105h25.555l0.249-2.428l0.809-7.673h-9.493c-1.152,2.101-3.066,3.844-6.397,4.467
				c-3.315,0.623-5.961,1.977-7.782,3.206C218.032,185.969,217.005,187.105,217.005,187.105z"/>
			<path style="fill:#2E175A;" d="M217.005,187.105h25.555l0.249-2.428h-22.863C218.032,185.969,217.005,187.105,217.005,187.105z"
				/>
			<path style="fill:#FFBFC6;" d="M247.898,187.105h11.735c2.413,0,4.685-1.183,6.07-3.175l4.801-6.945l-1.206-2.486l-3.642-7.626
				l-0.965-2.039l-8.062,3.331c0.342,0.607,0.638,1.307,0.887,2.054c1.556,4.731,1.012,11.455-3.159,11.781
				C249.532,182.374,247.898,187.105,247.898,187.105z"/>
			<path style="fill:#D0D0FF;" d="M247.898,187.105h11.735c2.413,0,4.685-1.183,6.07-3.175l4.801-6.945l-1.206-2.486l-2.661-5.556
				l-0.98-2.07l-8.14,3.346c0.218,0.669,0.389,1.37,0.514,2.101c0.825,4.404-0.094,9.4-3.673,9.68
				C249.532,182.374,247.898,187.105,247.898,187.105z"/>
			<path style="fill:#F22D5C;" d="M247.898,187.105h11.735c2.413,0,4.685-1.183,6.07-3.175l4.793-6.941l-1.198-2.49l-0.093-0.202
				l-2.568-5.354l-8.607,3.377c0.825,4.404-0.094,9.4-3.673,9.68c-2.396,0.187-4.015,1.448-5.027,2.677
				C248.303,185.907,247.898,187.105,247.898,187.105z"/>
			<path style="fill:#2E175A;" d="M247.898,187.105h11.735c2.413,0,4.685-1.183,6.07-3.175l4.793-6.941l-1.198-2.49l-0.093-0.202
				l-5.712,7.828c-1.167,1.603-3.035,2.552-5.027,2.552h-9.136C248.303,185.907,247.898,187.105,247.898,187.105z"/>
			<path style="fill:#2E175A;" d="M251.822,128.493c0.009,0,0.02,0,0.03-0.002c0.12-0.017,0.205-0.128,0.188-0.248l-0.253-1.858
				c-0.017-0.121-0.129-0.212-0.249-0.19c-0.12,0.017-0.205,0.127-0.188,0.248l0.253,1.858
				C251.619,128.412,251.713,128.493,251.822,128.493z"/>
			<path style="fill:#2E175A;" d="M282.578,127.001c0.063,0,0.126-0.027,0.169-0.079c0.078-0.093,0.066-0.233-0.028-0.31
				l-6.163-5.149c-0.091-0.078-0.23-0.067-0.31,0.027c-0.078,0.093-0.066,0.232,0.028,0.31l6.162,5.149
				C282.478,126.984,282.528,127.001,282.578,127.001z"/>
		</g>
		<g>
			<path style="fill:#2E175A;" d="M263.878,55.871c0.504-0.2,1.019-0.29,1.533-0.329c0.436-2.217,1.941-4.177,4.197-5.072
				c2.857-1.134,5.997-0.195,7.841,2.067c4.83-1.476,10.063,0.974,11.96,5.751c1.997,5.03-0.461,10.728-5.492,12.725
				c-5.03,1.997-10.727-0.461-12.725-5.492c-0.256-0.645-0.437-1.302-0.55-1.959c-0.137-0.031-0.265-0.09-0.4-0.129
				c-0.569,0.933-1.418,1.706-2.512,2.14c-2.679,1.064-5.713-0.246-6.777-2.925C259.89,59.969,261.2,56.935,263.878,55.871z"/>
			<path style="fill:#FFBFC6;" d="M276.272,75.163c0,0,0.654,1.013,1.418,2.685c0.621,1.311,1.325,3.041,1.834,4.999l11.142,1.372
				l-11.528-20.225c0,0-2.996,1.86-5.397-0.771c-2.395-2.616-5.468,0.145-5.468,0.145S268.323,78.252,276.272,75.163z"/>
			<path style="fill:#2E175A;" d="M276.272,75.163c0,0,0.654,1.013,1.418,2.685c1.059-1.76,0.823-4.295,0.823-4.295
				S277.925,74.305,276.272,75.163z"/>
			<path style="fill:#FFBFC6;" d="M269.852,66.887c-1.125,0.779-1.678,1.859-1.946,2.651c-0.095,0.281-0.044,0.591,0.137,0.826
				c0.181,0.235,0.467,0.365,0.763,0.345c0.43-0.029,0.972-0.131,1.61-0.385L269.852,66.887z"/>
			<path style="fill:#2E175A;" d="M270.45,65.163c0.043-0.017,0.081-0.047,0.107-0.091c0.389-0.638,1.001-1.094,1.724-1.279
				c0.137-0.031,0.189-0.151,0.158-0.269c-0.03-0.118-0.151-0.188-0.268-0.158c-0.835,0.217-1.542,0.74-1.99,1.478
				c-0.064,0.103-0.031,0.24,0.074,0.302C270.316,65.183,270.389,65.187,270.45,65.163z"/>
			<path style="fill:#F22D5C;" d="M274.296,71.262c0.648-0.257,1.179-0.761,1.469-1.424c0.049-0.112-0.003-0.242-0.113-0.29
				c-0.11-0.047-0.242,0-0.29,0.114c-0.339,0.778-1.073,1.295-1.917,1.345c-0.121,0.009-0.213,0.112-0.206,0.234
				c0.008,0.123,0.112,0.215,0.234,0.207C273.761,71.428,274.038,71.365,274.296,71.262z"/>
			<path style="fill:#FFFFFF;" d="M270.842,67.054c0.805,0.384,1.765,0.354,2.555-0.06c0.153-0.078,0.295-0.184,0.423-0.285
				c0.576-0.446,0.953-1.099,1.057-1.81c-0.612-0.192-1.268-0.199-1.873,0.007c-0.22,0.037-0.402,0.126-0.599,0.221
				C271.65,65.544,271.087,66.237,270.842,67.054z"/>
			<path style="fill:#2E175A;" d="M270.842,67.054c0.805,0.384,1.765,0.354,2.555-0.06c0.153-0.078,0.295-0.184,0.423-0.285
				c-0.002-0.301-0.054-0.598-0.168-0.888c-0.144-0.362-0.368-0.674-0.648-0.915c-0.22,0.037-0.402,0.126-0.599,0.221
				C271.65,65.544,271.087,66.237,270.842,67.054z"/>
			<path style="fill:#2E175A;" d="M277.661,71.621c1.422-0.565,2.668-1.541,3.552-2.795c0.07-0.098,0.047-0.237-0.053-0.307
				c-0.102-0.071-0.238-0.044-0.307,0.053c-0.938,1.329-2.314,2.34-3.858,2.816c-0.122,0.032-0.181,0.161-0.144,0.278
				c0.036,0.116,0.16,0.181,0.276,0.144C277.308,71.754,277.486,71.691,277.661,71.621z"/>
			<path style="fill:#2E175A;" d="M275.619,72.123c0.114,0.287,0.439,0.427,0.726,0.313c0.287-0.114,0.427-0.439,0.313-0.726
				c-0.114-0.287-0.439-0.427-0.725-0.313C275.645,71.512,275.505,71.837,275.619,72.123z"/>
			<path style="fill:#4A3797;" d="M266.441,58.48c-0.32-0.042-1.07-0.362-1.113-2.426c-0.001-0.076,0.037-0.148,0.101-0.19
				c0.069-0.035,0.146-0.045,0.214-0.013c0.205,0.098,1.992,0.986,1.712,1.951c-0.088,0.304-0.293,0.533-0.542,0.632
				C266.696,58.48,266.57,58.497,266.441,58.48z M266.499,58.044c0.185,0.021,0.366-0.131,0.435-0.363
				c0.113-0.393-0.59-0.929-1.146-1.253C265.869,57.485,266.191,58.003,266.499,58.044z"/>
			<path style="fill:#4A3797;" d="M267.383,61.511c0.27-0.107,0.541-0.235,0.812-0.385c3.411-1.884,3.394-4.513,2.999-6.592
				c-0.156-0.827,0.003-1.556,0.476-2.164c0.639-0.828,1.652-1.169,2.325-1.211c0.122-0.008,0.214-0.113,0.206-0.233
				c-0.008-0.123-0.112-0.215-0.234-0.207c-1.006,0.064-2.043,0.607-2.646,1.38c-0.546,0.702-0.739,1.574-0.559,2.518
				c0.39,2.054,0.365,4.385-2.779,6.123c-1.492,0.835-2.953,0.95-4.013,0.348c-0.991-0.564-1.565-1.717-1.616-3.25
				c-0.004-0.121-0.106-0.217-0.227-0.212c-0.124-0.001-0.218,0.103-0.214,0.227c0.055,1.69,0.708,2.975,1.839,3.617
				C264.749,62.037,266.041,62.044,267.383,61.511z"/>
			<path style="fill:#4A3797;" d="M289.465,61.166c0.106-0.042,0.163-0.16,0.129-0.27c-0.036-0.117-0.16-0.181-0.276-0.146
				c-1.757,0.549-3.638-0.103-4.68-1.619c-1.042-1.519-0.974-3.508,0.168-4.951c0.076-0.095,0.059-0.235-0.036-0.31
				c-0.096-0.077-0.237-0.062-0.31,0.036c-1.263,1.597-1.339,3.796-0.187,5.474c1.154,1.68,3.234,2.4,5.177,1.793
				C289.454,61.17,289.46,61.168,289.465,61.166z"/>
			<path style="fill:#FFFFFF;" d="M282.562,67.741l1.927-0.765c0.242-0.096,0.36-0.37,0.264-0.611l-1.545-3.89
				c-0.096-0.242-0.369-0.36-0.611-0.264l-1.927,0.765c-0.242,0.096-0.36,0.37-0.264,0.611l1.545,3.89
				C282.046,67.719,282.32,67.837,282.562,67.741z"/>
			<path style="fill:#FFFFFF;" d="M281.404,62.016c0.113-0.045,0.169-0.173,0.124-0.286l-3.216-8.099
				c-0.045-0.113-0.173-0.168-0.286-0.123c-0.113,0.045-0.168,0.173-0.123,0.286l3.216,8.099
				C281.163,62.006,281.291,62.061,281.404,62.016z"/>
			<path style="fill:#F22D5C;" d="M277.087,51.145c0.113-0.045,0.169-0.173,0.124-0.286l-0.456-1.149
				c-0.454-1.144-1.501-1.983-2.733-2.189c-1.137-0.188-2.203,0.186-2.923,1.026c-0.228,0.265-0.389,0.553-0.476,0.856
				c-0.034,0.115,0.033,0.239,0.15,0.272c0.116,0.032,0.24-0.032,0.273-0.151c0.07-0.241,0.201-0.475,0.388-0.691
				c0.618-0.72,1.536-1.042,2.517-0.877c1.081,0.181,1.998,0.915,2.396,1.917l0.456,1.149
				C276.846,51.135,276.974,51.19,277.087,51.145z"/>
			<path style="fill:#2E175A;" d="M289.562,69.484c0.088-0.035,0.17-0.09,0.239-0.164c1.024-1.1,1.799-2.439,2.24-3.874
				c0.107-0.348-0.089-0.719-0.438-0.827c-0.346-0.103-0.718,0.089-0.826,0.439c-0.382,1.245-1.054,2.407-1.943,3.36
				c-0.249,0.267-0.234,0.686,0.033,0.934C289.059,69.534,289.332,69.576,289.562,69.484z"/>
			<path style="fill:#2E175A;" d="M300.614,74.303c0.075-0.03,0.146-0.073,0.208-0.133c0.905-0.846,1.49-1.989,1.649-3.217
				c0.047-0.361-0.208-0.694-0.57-0.741c-0.362-0.049-0.695,0.207-0.74,0.572c-0.12,0.924-0.561,1.785-1.242,2.422
				c-0.267,0.249-0.281,0.667-0.031,0.933C300.078,74.345,300.369,74.4,300.614,74.303z"/>
			<path style="fill:#2E175A;" d="M291.444,71.653c0.93,2.343,3.583,3.488,5.926,2.557c2.343-0.93,3.488-3.583,2.557-5.926
				c-0.93-2.342-3.583-3.487-5.926-2.557C291.659,66.657,290.514,69.31,291.444,71.653z"/>
			<path style="fill:#2E175A;" d="M302.295,75.308c0.459,1.157,1.77,1.722,2.926,1.263c1.157-0.459,1.723-1.77,1.263-2.926
				c-0.46-1.157-1.77-1.722-2.927-1.263C302.401,72.841,301.836,74.151,302.295,75.308z"/>
			<path style="fill:#2E175A;" d="M270.481,70.535c0.097-0.036,0.185-0.175,0.139-0.292c-0.045-0.114-0.173-0.168-0.286-0.123
				c0.002-0.003-0.009,0.004-0.015,0.006c-0.53,0.21-1.044,0.333-1.528,0.364c-0.223,0.014-0.438-0.082-0.574-0.26
				c-0.136-0.177-0.174-0.409-0.103-0.621c0.252-0.745,0.78-1.79,1.863-2.541c0.1-0.069,0.125-0.207,0.055-0.307
				c-0.069-0.099-0.205-0.119-0.307-0.056c-1.182,0.819-1.756,1.955-2.029,2.762c-0.119,0.351-0.055,0.737,0.171,1.031
				c0.225,0.294,0.582,0.456,0.952,0.432C269.35,70.895,269.909,70.762,270.481,70.535z"/>
		</g>
		<path style="fill:#2E175A;" d="M297.767,125.319c1.291-2.98,0.695-6.159,0.695-6.159l-6.755-31.987c0,0-1.589-8.643-9.834-8.643
			c-8.245,0-15.994,18.08-15.994,18.08h6.457c0,0,4.669,12.02,2.186,20.265C274.522,116.875,282.668,126.809,297.767,125.319z"/>
		<path style="fill:#4A3797;" d="M272.957,86.846h17.509c0.122,0,0.22-0.098,0.22-0.22c0-0.122-0.099-0.221-0.22-0.221h-17.509
			c-0.121,0-0.22,0.098-0.22,0.221C272.737,86.748,272.836,86.846,272.957,86.846z"/>
		<path style="fill:#4A3797;" d="M268.412,94.054h23.692c0.122,0,0.22-0.098,0.22-0.22c0-0.122-0.099-0.22-0.22-0.22h-23.692
			c-0.121,0-0.22,0.098-0.22,0.22C268.192,93.956,268.291,94.054,268.412,94.054z"/>
		<path style="fill:#4A3797;" d="M279.663,101.263h13.411c0.122,0,0.22-0.098,0.22-0.22c0-0.122-0.099-0.221-0.22-0.221h-13.411
			c-0.121,0-0.22,0.098-0.22,0.221C279.442,101.165,279.541,101.263,279.663,101.263z"/>
		<path style="fill:#4A3797;" d="M276.385,108.472h18.626c0.121,0,0.22-0.098,0.22-0.22c0-0.123-0.099-0.221-0.22-0.221h-18.626
			c-0.121,0-0.22,0.098-0.22,0.221C276.164,108.374,276.263,108.472,276.385,108.472z"/>
		<path style="fill:#4A3797;" d="M276.31,115.68h20.191c0.121,0,0.221-0.098,0.221-0.22c0-0.122-0.099-0.22-0.221-0.22H276.31
			c-0.121,0-0.22,0.098-0.22,0.22C276.089,115.582,276.188,115.68,276.31,115.68z"/>
		<path style="fill:#9566DA;" d="M281.409,96.155c0.076,0,0.151-0.04,0.191-0.11l3.153-5.483c0.06-0.105,0.024-0.241-0.081-0.301
			c-0.105-0.062-0.24-0.026-0.301,0.081l-3.153,5.483c-0.06,0.105-0.024,0.241,0.081,0.301
			C281.334,96.147,281.371,96.155,281.409,96.155z"/>
		<path style="fill:#2E175A;" d="M244.194,155.282c0.023,0,0.046-0.004,0.068-0.011c0.116-0.038,0.179-0.162,0.141-0.279
			l-7.736-23.749c-0.038-0.115-0.163-0.176-0.277-0.141c-0.116,0.038-0.179,0.162-0.141,0.279l7.736,23.749
			C244.015,155.223,244.101,155.282,244.194,155.282z"/>
		<path style="fill:#2E175A;" d="M239.413,165.889c0.109,0,0.204-0.081,0.219-0.193c0.015-0.12-0.07-0.231-0.19-0.246l-5.234-0.675
			c-0.111-0.029-0.231,0.069-0.247,0.191c-0.016,0.12,0.07,0.231,0.19,0.246l5.233,0.675
			C239.393,165.889,239.403,165.889,239.413,165.889z"/>
		<path style="fill:#2E175A;" d="M250.64,165.468c0.031,0,0.063-0.007,0.092-0.021l5.656-2.616c0.111-0.05,0.159-0.182,0.108-0.293
			c-0.051-0.109-0.184-0.158-0.292-0.107l-5.656,2.616c-0.111,0.05-0.159,0.182-0.107,0.293
			C250.478,165.419,250.557,165.468,250.64,165.468z"/>
	</g>
	<g>
		<path style="fill:#D0D0FF;" d="M168.295,387.988h130.939c3.523,0,6.38-2.748,6.38-6.138V112.693c0-3.39-2.856-6.138-6.38-6.138
			H168.295c-3.524,0-6.38,2.748-6.38,6.138V381.85C161.915,385.24,164.771,387.988,168.295,387.988z"/>
		<rect x="176.687" y="121.328" style="fill:#9566DA;" width="108.709" height="231.434"/>
		<path style="fill:#FFFFFF;" d="M208.883,374.352h44.317c3.646,0,6.629-2.983,6.629-6.628l0,0c0-3.646-2.983-6.629-6.629-6.629
			h-44.317c-3.646,0-6.628,2.983-6.628,6.629l0,0C202.255,371.369,205.238,374.352,208.883,374.352z"/>
		<path style="fill:#FFFFFF;" d="M260.382,375.717c0.068,0,0.137-0.017,0.198-0.058c2.726-1.735,4.355-4.685,4.355-7.893
			c0-3.433-1.889-6.586-4.929-8.232c-0.181-0.093-0.406-0.029-0.503,0.151c-0.097,0.18-0.031,0.406,0.149,0.504
			c2.8,1.512,4.54,4.419,4.54,7.577c0,2.953-1.5,5.671-4.01,7.267c-0.174,0.11-0.225,0.339-0.115,0.513
			C260.14,375.656,260.26,375.717,260.382,375.717z"/>
		<path style="fill:#FFFFFF;" d="M205.27,131.365L205.27,131.365c0-0.938,0.767-1.705,1.705-1.705h40.908
			c0.937,0,1.704,0.767,1.704,1.705l0,0c0,0.937-0.767,1.704-1.704,1.704h-40.908C206.037,133.07,205.27,132.303,205.27,131.365z
			 M253.405,131.365c0,0.941,0.763,1.704,1.704,1.704c0.941,0,1.705-0.763,1.705-1.704c0-0.941-0.763-1.705-1.705-1.705
			C254.168,129.661,253.405,130.424,253.405,131.365z"/>
		<path style="fill:#FFFFFF;" d="M292.523,385.995c3.663,0,6.643-2.874,6.643-6.406V114.953c0-3.532-2.98-6.407-6.643-6.407
			c-0.204,0-0.371,0.165-0.371,0.371c0,0.206,0.167,0.371,0.371,0.371c3.254,0,5.901,2.541,5.901,5.665v264.635
			c0,3.124-2.647,5.664-5.901,5.664c-0.204,0-0.371,0.165-0.371,0.371S292.319,385.995,292.523,385.995z"/>
	</g>
	<g>
		<circle style="fill:#FFFFFF;" cx="259.356" cy="281.103" r="5.931"/>
		<path style="fill:#FFFFFF;" d="M229.236,281.103c0,3.275-2.656,5.931-5.931,5.931c-3.276,0-5.931-2.656-5.931-5.931
			c0-3.276,2.655-5.931,5.931-5.931C226.58,275.172,229.236,277.827,229.236,281.103z"/>
		<path style="fill:#FFFFFF;" d="M218.644,210.729c0,2.712-2.198,4.91-4.91,4.91c-2.712,0-4.91-2.198-4.91-4.91
			c0-2.712,2.198-4.91,4.91-4.91C216.445,205.819,218.644,208.017,218.644,210.729z"/>
		<path style="fill:#D0D0FF;" d="M267.668,281.406h-50.96c-1.849,0-3.347-1.499-3.347-3.347v-72.393
			c0-1.849,1.499-3.347,3.347-3.347h50.96c1.848,0,3.347,1.499,3.347,3.347v72.393C271.015,279.908,269.517,281.406,267.668,281.406
			z"/>
		<path style="fill:#FFFFFF;" d="M262.582,280.355c-3.244,0-5.885-2.823-5.885-6.293v-64.4c0-3.47,2.641-6.291,5.885-6.291
			c0.151,0,0.272,0.121,0.272,0.272c0,0.151-0.121,0.272-0.272,0.272c-2.944,0-5.34,2.579-5.34,5.747v64.4
			c0,3.17,2.396,5.749,5.34,5.749c0.151,0,0.272,0.121,0.272,0.272C262.855,280.234,262.733,280.355,262.582,280.355z"/>
		<path style="fill:#FFFFFF;" d="M250.927,268.029h-32.835c-0.397,0-0.719-0.322-0.719-0.719V214.08
			c0-0.397,0.322-0.719,0.719-0.719h32.835c0.397,0,0.719,0.322,0.719,0.719v53.229
			C251.646,267.707,251.324,268.029,250.927,268.029z"/>
		<g>
			<path style="fill:#D0D0FF;" d="M257.912,186.464l-36.268,6.496c-1.269,0.227-2.482-0.617-2.709-1.886l-4.262-23.796
				c-0.227-1.269,0.617-2.482,1.886-2.709l36.268-6.496c1.269-0.227,2.482,0.617,2.709,1.886l4.262,23.795
				C260.025,185.024,259.18,186.237,257.912,186.464z"/>
			<path style="fill:#FFFFFF;" d="M254.125,186.516c-2.342,0.42-4.587-1.144-5.007-3.486l-3.346-18.683
				c-0.419-2.342,1.144-4.587,3.486-5.007c0.148-0.027,0.289,0.071,0.316,0.22c0.027,0.149-0.071,0.289-0.22,0.316
				c-2.047,0.367-3.412,2.328-3.046,4.375l3.346,18.683c0.367,2.047,2.328,3.413,4.375,3.046c0.148-0.027,0.289,0.071,0.316,0.22
				S254.273,186.489,254.125,186.516z"/>
			<path style="fill:#FFFFFF;" d="M243.204,175.429l-22.704,4.067c-0.439,0.079-0.858-0.213-0.936-0.652l-1.29-7.202
				c-0.079-0.439,0.213-0.858,0.652-0.936l22.704-4.067c0.439-0.078,0.858,0.213,0.936,0.652l1.29,7.202
				C243.934,174.931,243.642,175.35,243.204,175.429z"/>
			<path style="fill:#2E175A;" d="M253.064,173.662L253.064,173.662c-0.94,0.168-1.838-0.457-2.006-1.397l-0.965-5.388
				c-0.168-0.94,0.457-1.838,1.396-2.006l0,0c0.939-0.168,1.838,0.457,2.006,1.397l0.965,5.388
				C254.629,172.596,254.004,173.494,253.064,173.662z"/>
			<path style="fill:#2E175A;" d="M215.778,180.341l-1.396,0.25c-0.439,0.079-0.858-0.213-0.936-0.652l-1.29-7.202
				c-0.078-0.439,0.213-0.858,0.652-0.936l1.396-0.25L215.778,180.341z"/>
			<path style="fill:#2E175A;" d="M224.984,176.424L224.984,176.424c-0.702,0.126-1.38-0.346-1.506-1.048l-0.34-1.901
				c-0.126-0.702,0.346-1.38,1.048-1.505l0,0c0.702-0.126,1.38,0.346,1.506,1.048l0.34,1.901
				C226.158,175.62,225.687,176.298,224.984,176.424z"/>
			<path style="fill:#2E175A;" d="M231.696,175.222L231.696,175.222c-0.702,0.126-1.38-0.346-1.506-1.048l-0.34-1.901
				c-0.126-0.702,0.346-1.38,1.048-1.505l0,0c0.702-0.126,1.38,0.346,1.506,1.048l0.34,1.901
				C232.87,174.418,232.398,175.096,231.696,175.222z"/>
			<path style="fill:#2E175A;" d="M251.309,163.863c-0.149,0.027-0.289-0.071-0.316-0.22l-3.223-17.996
				c-0.026-0.148,0.071-0.289,0.22-0.316c0.149-0.027,0.289,0.073,0.316,0.22l3.223,17.996
				C251.556,163.695,251.458,163.836,251.309,163.863z"/>
			<path style="fill:#2E175A;" d="M248.92,144.331c0.106,0.594-0.289,1.162-0.883,1.268c-0.594,0.106-1.162-0.289-1.268-0.883
				c-0.106-0.594,0.289-1.162,0.883-1.268C248.246,143.341,248.814,143.737,248.92,144.331z"/>
			<path style="fill:#2E175A;" d="M214.024,170.541c-0.149,0.027-0.289-0.071-0.316-0.22l-3.223-17.996
				c-0.026-0.147,0.071-0.289,0.22-0.316c0.148-0.027,0.289,0.072,0.316,0.22l3.223,17.996
				C214.27,170.374,214.173,170.514,214.024,170.541z"/>
			<path style="fill:#2E175A;" d="M211.635,151.009c0.106,0.594-0.289,1.162-0.883,1.268c-0.594,0.106-1.162-0.289-1.268-0.883
				c-0.106-0.594,0.289-1.162,0.883-1.268C210.961,150.02,211.528,150.415,211.635,151.009z"/>
			<path style="fill:#FFFFFF;" d="M243.327,192.417l-6.058,1.085c-0.148,0.027-0.289-0.072-0.316-0.22
				c-0.026-0.149,0.072-0.289,0.22-0.316l6.058-1.085c0.149-0.027,0.289,0.071,0.316,0.22
				C243.573,192.25,243.475,192.391,243.327,192.417z"/>
			<path style="fill:#FFFFFF;" d="M243.878,195.498l-6.058,1.085c-0.148,0.027-0.289-0.071-0.316-0.22
				c-0.027-0.149,0.071-0.289,0.22-0.316l6.058-1.085c0.149-0.027,0.289,0.071,0.316,0.22
				C244.125,195.33,244.027,195.471,243.878,195.498z"/>
			<path style="fill:#FFFFFF;" d="M244.43,198.58l-6.058,1.085c-0.148,0.027-0.289-0.071-0.316-0.22
				c-0.027-0.149,0.071-0.289,0.22-0.316l6.058-1.085c0.149-0.027,0.289,0.071,0.316,0.22
				C244.677,198.413,244.579,198.554,244.43,198.58z"/>
		</g>
		<path style="fill:#FFFFFF;" d="M269.205,210.729c0,2.712-2.198,4.91-4.91,4.91c-2.712,0-4.91-2.198-4.91-4.91
			c0-2.712,2.198-4.91,4.91-4.91C267.007,205.819,269.205,208.017,269.205,210.729z"/>
		<path style="fill:#2E175A;" d="M241.569,244.554c-1.41,0-2.727-0.821-3.325-2.181c-0.062-0.136,0.002-0.298,0.14-0.357
			c0.134-0.064,0.298,0.002,0.357,0.14c0.646,1.469,2.283,2.201,3.814,1.692c1.527-0.504,2.407-2.066,2.049-3.635
			c-0.359-1.565-1.811-2.592-3.425-2.385c-0.145,0.025-0.285-0.087-0.304-0.236c-0.019-0.149,0.085-0.285,0.236-0.304
			c1.871-0.249,3.604,0.965,4.025,2.806c0.419,1.841-0.617,3.678-2.411,4.273C242.343,244.492,241.952,244.554,241.569,244.554z"/>
		<path style="fill:#2E175A;" d="M203.806,253.109c-0.589,0-1.184-0.147-1.724-0.455c-1.527-0.869-2.175-2.749-1.507-4.371
			c0.663-1.62,2.443-2.507,4.137-2.06c0.145,0.038,0.232,0.187,0.194,0.333c-0.036,0.145-0.185,0.236-0.334,0.194
			c-1.429-0.38-2.934,0.37-3.495,1.739c-0.561,1.371-0.015,2.957,1.273,3.693c1.286,0.731,2.93,0.391,3.825-0.789
			c0.091-0.119,0.264-0.147,0.381-0.053c0.121,0.089,0.145,0.262,0.053,0.381C205.927,252.622,204.875,253.109,203.806,253.109z"/>
		<path style="fill:#2E175A;" d="M271.604,214.149c2.404,1.981,4.671,4.185,6.477,6.813c1.768,2.644,3.07,5.641,3.67,8.784
			c1.149,6.306-0.103,12.889-4.126,18.09c-2.16,2.57-5.019,4.171-8,5.165c-2.995,0.982-6.2,1.272-9.301,0.832
			c-3.105-0.431-6.067-1.611-8.66-3.283c-2.586-1.71-4.711-3.936-6.606-6.288c-0.377-0.468-0.303-1.152,0.165-1.529
			c0.457-0.369,1.122-0.306,1.503,0.134l0.045,0.051c1.841,2.13,3.857,4.102,6.215,5.551c2.366,1.413,4.984,2.347,7.679,2.632
			c2.69,0.292,5.44-0.053,7.964-0.974c2.507-0.914,4.879-2.405,6.414-4.394c1.561-1.957,2.501-4.66,3.032-7.253
			c0.477-2.645,0.443-5.362-0.148-7.939c-0.585-2.581-1.732-5.005-3.279-7.171c-1.587-2.152-3.603-3.984-5.755-5.653l-0.087-0.068
			c-0.978-0.758-1.157-2.167-0.398-3.145c0.759-0.979,2.167-1.157,3.146-0.398C271.566,214.119,271.589,214.137,271.604,214.149z"/>
		<path style="fill:#2E175A;" d="M209.032,217.346c-5.471,5.204-10.625,10.884-14.475,17.274c-1.829,3.158-3.513,6.707-3.33,9.967
			c0.153,1.574,0.894,2.868,2.345,3.602c1.417,0.762,3.243,1.045,5.068,1.08c0.601,0.008,1.082,0.502,1.074,1.103
			c-0.008,0.585-0.485,1.057-1.064,1.074c-2.01,0.045-4.132-0.108-6.189-1.066c-1.004-0.488-2.014-1.199-2.695-2.209
			c-0.698-0.987-1.088-2.141-1.258-3.268c-0.254-2.253,0.157-4.374,0.78-6.321c0.627-1.957,1.461-3.796,2.388-5.567
			c3.794-7.034,8.837-13.13,14.249-18.812c0.842-0.884,2.242-0.918,3.126-0.076c0.884,0.842,0.918,2.242,0.076,3.126
			c-0.024,0.024-0.047,0.048-0.072,0.071L209.032,217.346z"/>
		<path style="fill:#FFFFFF;" d="M244.043,352.866h19.369v-3.075c0-3.574-3.864-5.813-6.964-4.035L244.043,352.866z"/>
		<path style="fill:#FFFFFF;" d="M205.667,352.866h19.369v-3.075c0-3.574-3.864-5.813-6.964-4.035L205.667,352.866z"/>
		<path style="fill:#2E175A;" d="M257.443,343.9c-3.566-3.42-6.629-7.42-8.919-11.892c-2.286-4.464-3.783-9.437-4.059-14.594
			c-0.567-10.199,2.977-20.664,9.836-28.568l0.025-0.029c1.138-1.312,3.125-1.453,4.437-0.314c1.312,1.138,1.452,3.125,0.314,4.437
			c-0.047,0.055-0.102,0.113-0.152,0.163c-6.263,6.26-10.06,15.118-10.193,24.219c-0.151,9.039,4.02,18.077,10.323,25.005
			c0.42,0.459,0.388,1.172-0.071,1.592C258.544,344.32,257.868,344.304,257.443,343.9z"/>
		<path style="fill:#2E175A;" d="M221.36,343.9c-3.566-3.42-6.629-7.42-8.919-11.892c-2.286-4.464-3.783-9.437-4.059-14.594
			c-0.567-10.199,2.977-20.664,9.836-28.568l0.025-0.029c1.138-1.312,3.125-1.453,4.437-0.314c1.312,1.138,1.453,3.125,0.314,4.437
			c-0.047,0.055-0.102,0.113-0.152,0.163c-6.263,6.26-10.06,15.118-10.192,24.219c-0.151,9.039,4.02,18.077,10.322,25.005
			c0.42,0.459,0.388,1.172-0.071,1.592C222.461,344.32,221.785,344.304,221.36,343.9z"/>
		<g>
			<path style="fill:#2E175A;" d="M224.005,253.398h21.266c1.515,0,2.755,1.24,2.755,2.755v2.39c0,1.515-1.24,2.755-2.755,2.755
				h-21.487l-2.533,2.777v-2.777v-0.876v-4.268C221.25,254.638,222.49,253.398,224.005,253.398z"/>
			<g>
				<path style="fill:#FFFFFF;" d="M244.446,256.508h-19.616c-0.151,0-0.272-0.121-0.272-0.272c0-0.151,0.121-0.272,0.272-0.272
					h19.616c0.151,0,0.272,0.121,0.272,0.272C244.718,256.387,244.597,256.508,244.446,256.508z"/>
				<path style="fill:#FFFFFF;" d="M244.446,258.83h-19.616c-0.151,0-0.272-0.121-0.272-0.272c0-0.151,0.121-0.272,0.272-0.272
					h19.616c0.151,0,0.272,0.121,0.272,0.272C244.718,258.709,244.597,258.83,244.446,258.83z"/>
			</g>
		</g>
		<g>
			<path style="fill:#2E175A;" d="M207.496,242.637l26.2-11.251c1.867-0.802,4.05,0.07,4.852,1.937l1.264,2.944
				c0.801,1.867-0.07,4.05-1.937,4.852l-26.474,11.369l-1.652,4.762l-1.469-3.422l-0.464-1.079l-2.258-5.258
				C204.758,245.622,205.629,243.439,207.496,242.637z"/>
			<g>
				<path style="fill:#FFFFFF;" d="M210.014,245.97c-0.106,0-0.206-0.062-0.251-0.164c-0.059-0.138,0.007-0.3,0.143-0.359
					l24.168-10.379c0.147-0.057,0.3,0.006,0.359,0.142c0.06,0.138-0.007,0.3-0.143,0.359l-24.168,10.379
					C210.086,245.964,210.05,245.97,210.014,245.97z"/>
				<path style="fill:#FFFFFF;" d="M211.24,248.829c-0.106,0-0.206-0.062-0.251-0.164c-0.059-0.138,0.006-0.3,0.142-0.359
					l24.17-10.379c0.145-0.055,0.3,0.006,0.359,0.142c0.06,0.138-0.006,0.3-0.142,0.359l-24.17,10.379
					C211.313,248.823,211.276,248.829,211.24,248.829z"/>
			</g>
		</g>
		<g>
			<path style="fill:#2E175A;" d="M245.271,217.436h-21.266c-1.515,0-2.755,1.24-2.755,2.755v2.389c0,1.515,1.24,2.755,2.755,2.755
				h21.488l2.533,2.777v-2.777v-0.876v-4.268C248.026,218.676,246.786,217.436,245.271,217.436z"/>
			<g>
				<path style="fill:#FFFFFF;" d="M244.446,220.547h-19.616c-0.151,0-0.272-0.121-0.272-0.272s0.121-0.272,0.272-0.272h19.616
					c0.151,0,0.272,0.121,0.272,0.272S244.597,220.547,244.446,220.547z"/>
				<path style="fill:#FFFFFF;" d="M244.446,222.867h-19.616c-0.151,0-0.272-0.121-0.272-0.272c0-0.151,0.121-0.272,0.272-0.272
					h19.616c0.151,0,0.272,0.121,0.272,0.272C244.718,222.746,244.597,222.867,244.446,222.867z"/>
			</g>
		</g>
	</g>
	<g>
		<g>
			<path style="fill:#9566DA;" d="M192.184,397.945c0,2.289-1.869,4.178-4.158,4.178h-38.742c2.289,0,4.178-1.89,4.178-4.178
				c0-2.289-1.89-4.179-4.178-4.179h38.742C190.315,393.767,192.184,395.656,192.184,397.945z"/>
			<path style="fill:#9566DA;" d="M178.808,397.945c0,2.289-1.868,4.178-4.178,4.178h-25.345c2.289,0,4.178-1.89,4.178-4.178
				c0-2.289-1.89-4.179-4.178-4.179h25.345C176.94,393.767,178.808,395.656,178.808,397.945z"/>
		</g>
		<g>
			<path style="fill:#2E175A;" d="M186.718,389.588c0,2.289-1.869,4.179-4.158,4.179h-38.742c2.289,0,4.179-1.89,4.179-4.179
				c0-2.289-1.89-4.179-4.179-4.179h38.742C184.849,385.409,186.718,387.299,186.718,389.588z"/>
			<path style="fill:#F22D5C;" d="M173.341,389.588c0,2.289-1.868,4.179-4.178,4.179h-25.345c2.289,0,4.179-1.89,4.179-4.179
				c0-2.289-1.89-4.179-4.179-4.179h25.345C171.473,385.409,173.341,387.299,173.341,389.588z"/>
		</g>
		<g>
			<path style="fill:#FFFFFF;" d="M190.537,381.231c0,2.289-1.869,4.179-4.158,4.179h-38.742c2.289,0,4.179-1.89,4.179-4.179
				c0-2.289-1.89-4.179-4.179-4.179h38.742C188.669,377.052,190.537,378.942,190.537,381.231z"/>
			<path style="fill:#9566DA;" d="M177.162,381.231c0,2.289-1.869,4.179-4.179,4.179h-25.345c2.289,0,4.179-1.89,4.179-4.179
				c0-2.289-1.89-4.179-4.179-4.179h25.345C175.293,377.052,177.162,378.942,177.162,381.231z"/>
		</g>
		<path style="fill:#FFFFFF;" d="M173.273,379.439h-19.287c-0.165,0-0.298-0.134-0.298-0.297c0-0.164,0.132-0.297,0.298-0.297
			h19.287c0.165,0,0.297,0.133,0.297,0.297C173.57,379.306,173.438,379.439,173.273,379.439z"/>
		<path style="fill:#FFFFFF;" d="M174.639,381.337h-19.287c-0.165,0-0.297-0.134-0.297-0.297c0-0.164,0.133-0.297,0.297-0.297
			h19.287c0.165,0,0.297,0.134,0.297,0.297C174.937,381.204,174.804,381.337,174.639,381.337z"/>
		<path style="fill:#FFFFFF;" d="M173.578,383.008H154.29c-0.165,0-0.297-0.134-0.297-0.297c0-0.164,0.133-0.298,0.297-0.298h19.287
			c0.165,0,0.297,0.134,0.297,0.298C173.875,382.874,173.742,383.008,173.578,383.008z"/>
		<path style="fill:#FFFFFF;" d="M168.87,388.02h-19.287c-0.165,0-0.297-0.133-0.297-0.297c0-0.164,0.133-0.297,0.297-0.297h19.287
			c0.165,0,0.297,0.134,0.297,0.297C169.167,387.886,169.035,388.02,168.87,388.02z"/>
		<path style="fill:#FFFFFF;" d="M170.236,389.918h-19.287c-0.165,0-0.298-0.134-0.298-0.297c0-0.164,0.133-0.298,0.298-0.298
			h19.287c0.165,0,0.298,0.134,0.298,0.298C170.534,389.784,170.401,389.918,170.236,389.918z"/>
		<path style="fill:#FFFFFF;" d="M169.172,391.589h-19.287c-0.165,0-0.297-0.133-0.297-0.297c0-0.164,0.133-0.297,0.297-0.297
			h19.287c0.165,0,0.297,0.134,0.297,0.297C169.47,391.455,169.337,391.589,169.172,391.589z"/>
		<path style="fill:#FFFFFF;" d="M174.867,396.296H155.58c-0.165,0-0.298-0.133-0.298-0.297c0-0.164,0.133-0.297,0.298-0.297h19.287
			c0.165,0,0.297,0.134,0.297,0.297C175.164,396.162,175.032,396.296,174.867,396.296z"/>
		<path style="fill:#FFFFFF;" d="M176.235,398.194h-19.287c-0.165,0-0.297-0.134-0.297-0.297c0-0.164,0.132-0.298,0.297-0.298
			h19.287c0.165,0,0.297,0.134,0.297,0.298C176.533,398.061,176.401,398.194,176.235,398.194z"/>
		<path style="fill:#FFFFFF;" d="M175.171,399.865h-19.287c-0.165,0-0.297-0.133-0.297-0.297c0-0.164,0.133-0.298,0.297-0.298
			h19.287c0.165,0,0.297,0.134,0.297,0.298C175.469,399.731,175.336,399.865,175.171,399.865z"/>
	</g>
	<g>
		<path style="fill:#FFBFC6;" d="M265.879,96.61l-1.937,3.949c0,0-16.528-2.419-28.403,0.845c-5.909,0.113-9.908,1.386-12.016,4.892
			h2.037c0,0,9.079-0.15,12.753,0.447c4.898,0.796,13.852,4.117,22.235,5.649c4.399,0.804,8.886-0.8,11.819-4.176
			c3.349-3.855,7.478-8.898,8.663-11.605H265.879z"/>
		<path style="fill:#F22D5C;" d="M224.942,105.535c0.051,0,0.101-0.017,0.143-0.052c1.408-1.195,4.268-1.858,6.65-1.553
			c0.126,0.021,0.232-0.069,0.247-0.191c0.016-0.121-0.07-0.231-0.19-0.246c-2.174-0.281-5.273,0.196-6.992,1.653
			c-0.092,0.079-0.104,0.219-0.025,0.312C224.817,105.51,224.88,105.535,224.942,105.535z"/>
		<path style="fill:#FFFFFF;" d="M251.26,110.371c0.096,0,0.186-0.064,0.213-0.162c0.032-0.117-0.037-0.239-0.154-0.27
			c-0.567-0.157-1.236-0.348-1.98-0.56c-4.506-1.288-11.315-3.234-15.456-3.234h-10.088c-0.121,0-0.221,0.098-0.221,0.221
			s0.099,0.22,0.221,0.22h10.088c4.079,0,11.125,2.013,15.335,3.217c0.745,0.212,1.416,0.405,1.983,0.56
			C251.221,110.369,251.241,110.371,251.26,110.371z"/>
	</g>
	<g>
		<path style="fill:#F22D5C;" d="M166.85,234.292c1.374-1.056,2.117-4.02,3.221-4.071c1.104-0.051,0.653,2.01,0.428,2.68
			C170.274,233.57,169.238,235.245,166.85,234.292z"/>
		<path style="fill:#2E175A;" d="M124.085,206.176c0-2.908-2.357-5.266-5.265-5.266c-1.38,0-2.625,0.543-3.564,1.411
			c-0.894-1.83-2.756-3.101-4.929-3.101c-2.669,0-4.891,1.901-5.393,4.422c-0.31-0.049-0.622-0.095-0.946-0.095
			c-3.323,0-6.017,2.694-6.017,6.017c0,1.179,0.352,2.272,0.939,3.2c-0.986,1.206-1.602,2.726-1.602,4.405
			c0,3.864,3.132,6.996,6.997,6.996c3.321,0,6.089-2.32,6.804-5.425c0.303,0.04,0.602,0.092,0.916,0.092
			c3.869,0,7.006-3.137,7.006-7.006c0-0.138-0.033-0.267-0.04-0.403C121.817,211.333,124.085,209.026,124.085,206.176z"/>
		<path style="fill:#9566DA;" d="M144.56,249.805l-11.737-9.115c-1.733-1.346-3.795-2.204-5.971-2.485l-7.031-0.909
			c-0.292-0.038-0.555-0.192-0.731-0.428c-0.175-0.236-0.247-0.533-0.199-0.824c0.048-0.29-0.024-0.587-0.199-0.823
			c-0.175-0.236-0.439-0.39-0.731-0.428l-12.924-1.671c-0.625-0.081-1.204,0.341-1.318,0.961l0,0
			c-0.114,0.62-0.693,1.042-1.318,0.961l-1.914-0.248c-4.267-0.551-8.317,2.03-9.618,6.132l-5.293,16.685l7.112,1.469l2.938,24.506
			l35.561,2.783l-2.242-32.778l8.659,7.035L144.56,249.805z"/>
		<path style="fill:#FFBFC6;" d="M144.169,250.413l3.097,1.891l11.487-16.587c0.875-1.264,2.314-2.017,3.851-2.017h5.466
			c0.596,0,1.158-0.276,1.522-0.747l2.086-2.697c0.205-0.265,0.522-0.421,0.857-0.421c0.191,0,0.369,0.096,0.474,0.255
			c0.105,0.159,0.123,0.36,0.049,0.536l-1.426,3.347c-0.686,1.61-2.242,2.678-3.991,2.739l-3.781,0.132l-10.688,21.296
			c-1.829,3.645-6.2,5.248-9.927,3.595c-1.703-0.755-3.376-1.687-4.565-2.783L144.169,250.413z"/>
		<polygon style="fill:#D0D0FF;" points="129.385,286.229 134.536,361.409 124.332,361.409 113.715,303.79 107.015,361.409 
			96.708,361.409 92.482,289.36 95.625,283.587 		"/>
		<path style="fill:#9566DA;" d="M114.231,301.548c-0.014,0-0.028-0.002-0.043-0.003c-0.126-0.024-0.21-0.145-0.186-0.271
			l1.958-10.514c0.024-0.127,0.138-0.205,0.271-0.187c0.126,0.024,0.21,0.145,0.186,0.27l-1.958,10.514
			C114.439,301.47,114.341,301.548,114.231,301.548z"/>
		<path style="fill:#9566DA;" d="M131.341,351.437c-0.121,0-0.222-0.093-0.232-0.214l-4.431-56.382
			c-0.01-0.127,0.085-0.24,0.213-0.251c0.137-0.016,0.241,0.087,0.25,0.215l4.432,56.382c0.01,0.127-0.085,0.24-0.213,0.251
			C131.353,351.437,131.346,351.437,131.341,351.437z"/>
		<path style="fill:#9566DA;" d="M105.572,350.406c-0.008,0-0.017,0-0.026-0.002c-0.127-0.014-0.219-0.129-0.204-0.256l6.288-56.072
			c0.013-0.129,0.114-0.238,0.257-0.205c0.127,0.014,0.219,0.129,0.205,0.256l-6.289,56.072
			C105.79,350.319,105.689,350.406,105.572,350.406z"/>
		<path style="fill:#9566DA;" d="M105.572,358.755h-7.143c-0.128,0-0.233-0.103-0.233-0.233c0-0.129,0.105-0.232,0.233-0.232h7.143
			c0.128,0,0.233,0.104,0.233,0.232C105.804,358.652,105.7,358.755,105.572,358.755z"/>
		<path style="fill:#9566DA;" d="M132.697,358.755h-7.144c-0.128,0-0.233-0.103-0.233-0.233c0-0.129,0.105-0.232,0.233-0.232h7.144
			c0.128,0,0.232,0.104,0.232,0.232C132.93,358.652,132.825,358.755,132.697,358.755z"/>
		<path style="fill:#D0D0FF;" d="M138.144,246.341c-0.011,0-0.022,0-0.034-0.002l-45.456-6.637c-0.127-0.02-0.215-0.138-0.196-0.263
			c0.018-0.127,0.121-0.225,0.263-0.198l45.456,6.637c0.127,0.02,0.215,0.138,0.196,0.263
			C138.357,246.258,138.257,246.341,138.144,246.341z"/>
		<path style="fill:#D0D0FF;" d="M128.267,256.711c-0.011,0-0.022,0-0.034-0.002l-39.547-5.776c-0.127-0.02-0.215-0.138-0.196-0.265
			c0.017-0.125,0.129-0.22,0.263-0.196l39.547,5.776c0.127,0.02,0.215,0.138,0.196,0.264
			C128.481,256.628,128.381,256.711,128.267,256.711z"/>
		<path style="fill:#D0D0FF;" d="M128.659,267.688c-0.011,0-0.022,0-0.033-0.002l-31.641-4.619c-0.127-0.02-0.215-0.138-0.196-0.263
			c0.018-0.127,0.123-0.216,0.263-0.198l31.641,4.62c0.127,0.02,0.215,0.138,0.196,0.263
			C128.872,267.605,128.772,267.688,128.659,267.688z"/>
		<path style="fill:#D0D0FF;" d="M130.011,280.252c-0.011,0-0.022,0-0.034-0.002l-31.035-4.533c-0.127-0.02-0.215-0.138-0.196-0.263
			c0.017-0.127,0.124-0.221,0.263-0.198l31.035,4.532c0.127,0.02,0.215,0.138,0.196,0.263
			C130.224,280.169,130.124,280.252,130.011,280.252z"/>
		<path style="fill:#FFBFC6;" d="M115.669,224.997l0.226,3.391l0.404,6.185l-11.256-1.454c0,0,1.97-8.591,1.712-12.563
			c0,0-4.231-0.581-3.65-4.796c0.565-4.215,5.717-1.518,5.717-1.518s3.908-0.904,1.744-5.184c2.422,1.97,5.83,2.067,6.233-0.759
			c0.678,2.568,3.617,2.099,3.617,2.099C121.289,216.131,123.663,226.224,115.669,224.997z"/>
		<path style="fill:#F22D5C;" d="M107.17,215.635c-0.023,0-0.046-0.004-0.07-0.011l-1.804-0.567
			c-0.123-0.038-0.191-0.169-0.152-0.291c0.038-0.123,0.165-0.194,0.291-0.152l1.804,0.566c0.123,0.038,0.191,0.169,0.151,0.291
			C107.36,215.571,107.269,215.635,107.17,215.635z"/>
		<path style="fill:#F22D5C;" d="M115.318,220.703c-1.239,0-2.4-0.641-3.056-1.698c-0.068-0.111-0.034-0.252,0.075-0.321
			c0.109-0.069,0.252-0.035,0.319,0.075c0.599,0.964,1.681,1.509,2.808,1.476c0.14,0.011,0.237,0.093,0.243,0.222
			c0.005,0.129-0.094,0.238-0.221,0.243C115.429,220.701,115.373,220.703,115.318,220.703z"/>
		<path style="fill:#2E175A;" d="M118.315,214.168c-0.032,0-0.064-0.007-0.095-0.02c-0.117-0.053-0.169-0.191-0.117-0.307
			c0.387-0.863,1.335-1.335,2.256-1.119c0.125,0.029,0.203,0.154,0.173,0.28c-0.028,0.125-0.152,0.203-0.279,0.174
			c-0.703-0.161-1.43,0.194-1.726,0.854C118.488,214.117,118.404,214.168,118.315,214.168z"/>
		<path style="fill:#2E175A;" d="M115.628,214.168c-0.064,0-0.13-0.027-0.175-0.08c-1.013-1.164-2.712-1.438-4.035-0.65
			c-0.111,0.062-0.254,0.031-0.319-0.082c-0.065-0.111-0.029-0.252,0.081-0.318c1.523-0.902,3.465-0.588,4.623,0.745
			c0.084,0.096,0.074,0.243-0.023,0.329C115.737,214.15,115.682,214.168,115.628,214.168z"/>
		<path style="fill:#2E175A;" d="M117.367,212.081c-0.04,0-0.08-0.011-0.116-0.031c-0.112-0.066-0.149-0.207-0.084-0.318
			c0.384-0.665,1.144-1.015,1.907-0.866c0.126,0.025,0.208,0.147,0.183,0.274c-0.025,0.125-0.154,0.198-0.272,0.184
			c-0.564-0.12-1.13,0.149-1.417,0.641C117.525,212.039,117.447,212.081,117.367,212.081z"/>
		<path style="fill:#2E175A;" d="M112.312,212.016c-0.072,0-0.143-0.033-0.189-0.096c-0.075-0.105-0.051-0.251,0.053-0.325
			c0.863-0.621,1.951-0.855,3.003-0.654c0.125,0.026,0.208,0.147,0.183,0.274c-0.024,0.125-0.148,0.193-0.273,0.183
			c-0.916-0.187-1.88,0.026-2.639,0.574C112.407,212.001,112.36,212.016,112.312,212.016z"/>
		<path style="fill:#2E175A;" d="M117.105,217.956h-2.256c-0.128,0-0.232-0.103-0.232-0.232c0-0.129,0.104-0.232,0.232-0.232h2.256
			c0.197,0,0.381-0.107,0.479-0.278c0.099-0.171,0.099-0.383,0-0.554l-0.21-0.363c-0.422-0.728-0.646-1.558-0.646-2.4v-1.137
			c0-0.129,0.105-0.232,0.232-0.232c0.128,0,0.232,0.104,0.232,0.232v1.137c0,0.761,0.201,1.511,0.582,2.168l0.211,0.363
			c0.183,0.314,0.183,0.704,0.001,1.019C117.807,217.76,117.468,217.956,117.105,217.956z"/>
		<path style="fill:#2E175A;" d="M115.896,228.388c-2.745-2.18-3.343-4.747-3.343-4.747c0.614,0.581,1.825,0.969,3.117,1.356
			L115.896,228.388z"/>
		<path style="fill:#4A3797;" d="M114.607,205.528c-0.256,0-0.501-0.151-0.655-0.419c-0.477-0.833,0.868-2.103,1.023-2.245
			c0.061-0.054,0.145-0.074,0.222-0.052c0.078,0.023,0.139,0.085,0.159,0.163c0.406,1.531-0.009,2.303-0.489,2.5
			C114.782,205.511,114.694,205.528,114.607,205.528z M114.999,203.502c-0.39,0.432-0.825,1.058-0.644,1.376
			c0.09,0.156,0.214,0.217,0.337,0.167C114.926,204.949,115.17,204.463,114.999,203.502z"/>
		<path style="fill:#4A3797;" d="M106.096,206.433c-0.075,0-0.152-0.01-0.231-0.03c-0.93-0.232-0.917-2.082-0.912-2.292
			c0.002-0.082,0.046-0.156,0.116-0.197c0.072-0.043,0.158-0.041,0.229-0.002c1.386,0.766,1.656,1.601,1.467,2.083
			C106.655,206.272,106.401,206.433,106.096,206.433z M105.43,204.536c0.042,0.581,0.193,1.328,0.548,1.417
			c0.17,0.038,0.306-0.005,0.354-0.128C106.424,205.589,106.242,205.077,105.43,204.536z"/>
		<path style="fill:#4A3797;" d="M101.075,213.545c-0.716,0-1.576-0.448-1.708-0.519c-0.072-0.04-0.117-0.113-0.122-0.194
			c-0.004-0.082,0.035-0.158,0.103-0.203c1.315-0.884,2.181-0.743,2.523-0.356c0.244,0.28,0.225,0.676-0.047,0.986
			C101.64,213.469,101.369,213.545,101.075,213.545z M99.963,212.793c0.537,0.23,1.272,0.437,1.511,0.16
			c0.118-0.134,0.136-0.274,0.048-0.372C101.355,212.39,100.815,212.321,99.963,212.793z"/>
		<path style="fill:#4A3797;" d="M100.109,222.259c-0.05,0-0.101-0.016-0.144-0.049c-0.101-0.08-0.119-0.225-0.039-0.327
			c0.623-0.795,0.752-1.859,0.337-2.778c-0.415-0.921-1.298-1.529-2.306-1.589c-0.128-0.007-0.226-0.118-0.219-0.247
			c0.008-0.129,0.102-0.218,0.246-0.218c1.181,0.071,2.216,0.784,2.702,1.861c0.487,1.079,0.336,2.326-0.395,3.258
			C100.246,222.228,100.178,222.259,100.109,222.259z"/>
		<path style="fill:#4A3797;" d="M109.85,213.187c-0.125,0-0.228-0.098-0.232-0.225c-0.021-0.605-0.213-1.04-0.59-1.331
			c-0.754-0.585-2.289-0.607-4.693-0.073c-1.455,0.316-2.872-0.294-3.697-1.614c-1-1.594-0.802-3.685,0.5-5.328
			c0.082-0.101,0.228-0.115,0.327-0.038c0.101,0.08,0.117,0.226,0.038,0.327c-1.434,1.806-1.149,3.71-0.472,4.792
			c0.72,1.149,1.946,1.689,3.202,1.407c2.582-0.576,4.196-0.527,5.08,0.158c0.486,0.376,0.745,0.942,0.77,1.685
			c0.005,0.127-0.096,0.236-0.224,0.24C109.855,213.187,109.853,213.187,109.85,213.187z"/>
		<path style="fill:#4A3797;" d="M114.213,207.912c-0.041,0-0.082-0.001-0.121-0.003c-1.113-0.043-2.156-0.704-2.939-1.859
			c-0.629-0.929-0.972-2.046-1.274-3.03c-0.512-1.669-0.862-2.595-1.846-2.437c-0.133,0.011-0.247-0.067-0.268-0.192
			c-0.021-0.127,0.065-0.247,0.192-0.268c1.446-0.228,1.893,1.218,2.366,2.759c0.292,0.954,0.625,2.035,1.215,2.905
			c0.697,1.03,1.611,1.618,2.572,1.656c0.936,0.016,1.849-0.437,2.568-1.335c1.167-1.458,2.401-1.625,3.393-1.759
			c0.297-0.041,0.578-0.078,0.821-0.149c0.422-0.122,0.762-0.421,0.847-0.743c0.075-0.284-0.036-0.58-0.33-0.882
			c-0.09-0.091-0.088-0.24,0.004-0.328c0.094-0.09,0.241-0.085,0.328,0.003c0.518,0.531,0.53,1.014,0.447,1.325
			c-0.126,0.482-0.585,0.903-1.168,1.071c-0.275,0.08-0.573,0.12-0.888,0.163c-0.957,0.129-2.041,0.276-3.092,1.589
			C116.258,207.379,115.258,207.912,114.213,207.912z"/>
		<g>
			<path style="fill:#FFBFC6;" d="M122.373,373.297H96.88l-0.029-2.479l-0.106-6.75l-0.037-2.66h8.666
				c0.465,1.122,0.803,1.991,1.168,2.66c0.967,1.828,2.228,2.352,7.365,3.293c3.535,0.633,5.65,2.135,6.887,3.456
				C122.014,372.157,122.373,373.297,122.373,373.297z"/>
			<path style="fill:#9566DA;" d="M122.373,373.297H96.88l-0.029-2.479l-0.106-6.75h9.797c0.967,1.828,2.228,2.352,7.365,3.293
				c3.535,0.633,5.65,2.135,6.887,3.456C122.014,372.157,122.373,373.297,122.373,373.297z"/>
			<path style="fill:#D0D0FF;" d="M122.373,373.297H96.88l-0.029-2.479h23.944C122.014,372.157,122.373,373.297,122.373,373.297z"/>
		</g>
		<g>
			<path style="fill:#FFBFC6;" d="M150.358,373.297h-25.493l-0.029-2.479l-0.106-6.75l-0.037-2.66h8.666
				c0.464,1.122,0.803,1.991,1.168,2.66c0.967,1.828,2.228,2.352,7.365,3.293c3.535,0.633,5.65,2.135,6.887,3.456
				C149.999,372.157,150.358,373.297,150.358,373.297z"/>
			<path style="fill:#9566DA;" d="M150.358,373.297h-25.493l-0.029-2.479l-0.106-6.75h9.797c0.967,1.828,2.228,2.352,7.365,3.293
				c3.535,0.633,5.65,2.135,6.887,3.456C149.999,372.157,150.358,373.297,150.358,373.297z"/>
			<path style="fill:#D0D0FF;" d="M150.358,373.297h-25.493l-0.029-2.479h23.944C149.999,372.157,150.358,373.297,150.358,373.297z"
				/>
		</g>
		<path style="fill:#FFBFC6;" d="M97.128,259.998l-2.224,6.376l6.443,17.661l-5.073,8.075l-10.145-25.219
			c-0.728-1.809-0.86-3.804-0.376-5.693l0.862-3.371L97.128,259.998z"/>
		<path style="fill:#2E175A;" d="M95.509,293.56c-0.043,0-0.085-0.011-0.124-0.036c-0.109-0.067-0.142-0.211-0.074-0.32l5.838-9.294
			c0.069-0.109,0.215-0.142,0.321-0.073c0.109,0.067,0.142,0.211,0.073,0.32l-5.838,9.294
			C95.662,293.522,95.586,293.56,95.509,293.56z"/>
		<path style="fill:#2E175A;" d="M98.215,260.456c-0.015,0-0.031-0.002-0.047-0.005l-11.6-2.397
			c-0.125-0.026-0.206-0.149-0.181-0.274c0.026-0.124,0.143-0.207,0.275-0.18l11.381,2.351l2.614-10.474
			c0.031-0.124,0.154-0.202,0.281-0.169c0.124,0.031,0.201,0.156,0.169,0.282l-2.667,10.69
			C98.414,260.385,98.319,260.456,98.215,260.456z"/>
		<path style="fill:#2E175A;" d="M128.522,252.615c-0.087,0-0.171-0.049-0.21-0.133l-3.086-6.528
			c-0.055-0.116-0.005-0.256,0.111-0.311c0.116-0.053,0.255-0.006,0.309,0.111l3.086,6.528c0.055,0.116,0.005,0.256-0.111,0.311
			C128.59,252.608,128.556,252.615,128.522,252.615z"/>
	</g>
	<g>
		<path style="fill:#FFFFFF;" d="M148.737,162.516h29.527c6.624,0,12.043,5.419,12.043,12.043v16.916
			c0,6.624-5.42,12.043-12.043,12.043h-30.496l-11.074,12.14v-12.14v-3.831v-25.128
			C136.694,167.935,142.113,162.516,148.737,162.516z"/>
		<g>
			<path style="fill:#2E175A;" d="M159.212,169.748c-5.222,0-9.475,4.249-9.475,9.475c0,1.013,1.55,1.029,1.55,0
				c0-2.184,0.888-4.165,2.324-5.601c3.098-3.098,8.1-3.101,11.202,0c4.095,4.095,2.52,10.974-2.757,13
				c-3.201,1.233-4.121,5.086-3.393,5.816c0.484,0.485,1.323,0.145,1.323-0.547c0-0.84,0.264-1.645,0.725-2.316
				c0.461-0.671,1.118-1.205,1.901-1.506C172.398,184.306,169.624,169.748,159.212,169.748z"/>
			<path style="fill:#2E175A;" d="M158.286,196.165c0,1.231,1.855,1.211,1.855,0C160.14,194.955,158.286,194.935,158.286,196.165z"
				/>
		</g>
		<path style="fill:#2E175A;" d="M133.212,214.073v-42.067c0-6.847,5.571-12.418,12.418-12.418h29.526
			c6.848,0,12.418,5.571,12.418,12.418v16.917c0,6.847-5.571,12.418-12.418,12.418h-30.33L133.212,214.073z M145.63,160.337
			c-6.434,0-11.668,5.234-11.668,11.668v40.132l10.533-11.547h30.661c6.434,0,11.668-5.234,11.668-11.668v-16.917
			c0-6.434-5.234-11.668-11.668-11.668H145.63z"/>
	</g>
	<g>
		<polygon style="fill:#2E175A;" points="99.916,384.565 76.506,395.468 73.727,389.162 91.151,371.738 		"/>
		<path style="fill:#2E175A;" d="M97.475,370.402l17.86-5.777c4.247-1.374,8.854,0.611,10.774,4.64l0,0
			c2.143,4.498,0.176,9.88-4.364,11.935l-26.435,11.97l-5.852-8.819l12.346-5.612L97.475,370.402z"/>
		<path style="fill:#2E175A;" d="M94.87,319.2c3.674-8.658-11.665-15.82-16.048-10.369c-4.703,0.695-4.222,12.987,2.191,16.515
			L94.87,319.2z"/>
		<path style="fill:#F22D5C;" d="M60.83,382.962c-3.042,0-5.34-2.757-4.793-5.749l6.7-36.617c1.175-6.424,7.185-10.471,13.285-9.652
			l0,0c0.827-1.056,2.271-1.406,3.489-0.845l8.56,3.942c0.962,0.443,1.627,1.352,1.758,2.402l2.426,1.057
			c2.076,0.904,3.709,2.594,4.542,4.7l8.427,21.307L76.15,382.962H60.83z"/>
		<path style="fill:#2E175A;" d="M87.529,340.626c0.433,0,0.864-0.052,1.288-0.165c0.112-0.031,0.178-0.146,0.148-0.257
			c-0.03-0.111-0.15-0.177-0.256-0.149c-3.574,0.957-7.695-2.7-10.357-6.438c-0.066-0.095-0.198-0.116-0.292-0.049
			c-0.095,0.067-0.117,0.198-0.05,0.291C80.446,337.28,84.093,340.626,87.529,340.626z"/>
		<path style="fill:#F22D5C;" d="M97.475,370.402c0,0,19.241-4.781,24.586-9.205c1.697-1.405,2.672-2.913,3.212-4.317
			c0.938-2.438-1.53-4.809-3.95-3.826l-30.342,12.324L97.475,370.402z"/>
		<path style="fill:#FFBFC6;" d="M67.011,357.174c0,0,31.694,0,38.215,0c6.52,0,7.162-5.853,13.415-5.853l-0.922,1.764h7.456
			c0,0,2.044-0.16,2.044,0.842c0,1.002-9.58,2.004-9.58,2.004s6.854-0.12,6.975,0.922c0.12,1.042-2.645,1.523-2.645,1.523
			s0.842,1.243-2.646,2.565c-3.487,1.323-6.454,2.766-11.664,2.766l-29.503,5.572C78.154,369.28,70.859,365.912,67.011,357.174z"/>
		<path style="fill:#F22D5C;" d="M114.271,359.829c0.012,0,0.023-0.001,0.035-0.003l6.815-1.163c0.114-0.02,0.191-0.128,0.171-0.242
			c-0.02-0.113-0.118-0.188-0.241-0.17l-6.815,1.163c-0.114,0.019-0.19,0.127-0.171,0.242
			C114.082,359.757,114.17,359.829,114.271,359.829z"/>
		<path style="fill:#F22D5C;" d="M110.303,380.363c0.035,0,0.07-0.008,0.102-0.026l8.231-4.622c0.101-0.057,0.136-0.185,0.08-0.286
			c-0.056-0.101-0.186-0.136-0.284-0.08l-8.231,4.622c-0.102,0.057-0.137,0.185-0.08,0.286
			C110.159,380.324,110.23,380.363,110.303,380.363z"/>
		<path style="fill:#F22D5C;" d="M104.803,374.86c0.035,0,0.07-0.008,0.103-0.028l10.417-5.906c0.101-0.057,0.136-0.185,0.079-0.285
			c-0.057-0.103-0.183-0.139-0.285-0.078l-10.417,5.905c-0.101,0.057-0.136,0.185-0.079,0.285
			C104.659,374.822,104.73,374.86,104.803,374.86z"/>
		<path style="fill:#FFBFC6;" d="M73.687,348.893c3.461,0,6.34-1.448,9.168-2.87c4.307-2.165,8.376-4.216,14.149-0.617
			c0.098,0.061,0.227,0.031,0.288-0.067c0.062-0.098,0.031-0.227-0.067-0.289c-5.972-3.719-10.142-1.621-14.559,0.599
			c-5.164,2.6-10.507,5.281-19.379-1.31c-0.094-0.067-0.223-0.047-0.293,0.044c-0.069,0.092-0.049,0.224,0.043,0.293
			C67.253,347.805,70.689,348.893,73.687,348.893z"/>
		<path style="fill:#FFBFC6;" d="M73.389,355.816c3.882,0,7.111-1.446,10.283-2.865c4.855-2.172,9.44-4.224,15.946-0.615
			c0.101,0.056,0.227,0.018,0.285-0.082c0.056-0.101,0.02-0.229-0.082-0.284c-6.69-3.706-11.369-1.617-16.32,0.6
			c-5.815,2.602-11.829,5.292-21.827-1.313c-0.094-0.061-0.225-0.038-0.29,0.059c-0.064,0.096-0.037,0.227,0.06,0.291
			C66.173,354.731,70.026,355.816,73.389,355.816z"/>
		<path style="fill:#FFBFC6;" d="M71.79,338.431c1.024,0,1.959-0.236,2.99-0.492c1.287-0.324,2.753-0.682,4.734-0.651
			c0.123,0.008,0.21-0.09,0.214-0.206c0.002-0.114-0.09-0.211-0.205-0.212c-2.052-0.034-3.531,0.334-4.844,0.662
			c-2.281,0.574-4.083,1.022-7.556-1.14c-0.098-0.061-0.226-0.031-0.288,0.067c-0.061,0.098-0.031,0.227,0.067,0.289
			C68.954,338.027,70.448,338.431,71.79,338.431z"/>
		<path style="fill:#FFBFC6;" d="M68.475,363.746c0.316,0,0.634-0.01,0.953-0.029c0.115-0.008,0.203-0.108,0.196-0.222
			c-0.007-0.114-0.125-0.201-0.222-0.196c-3.771,0.237-7.281-0.986-8.962-3.127c-0.071-0.09-0.203-0.105-0.294-0.036
			c-0.091,0.072-0.107,0.203-0.035,0.294C61.73,362.49,64.945,363.746,68.475,363.746z"/>
		<path style="fill:#FFBFC6;" d="M66.304,370.763c0.535,0,1.08-0.049,1.629-0.155c0.114-0.023,0.187-0.132,0.165-0.247
			c-0.022-0.113-0.133-0.183-0.245-0.165c-4.013,0.798-7.791-1.712-8.693-2.888c-0.069-0.095-0.2-0.107-0.293-0.039
			c-0.092,0.072-0.109,0.203-0.038,0.294C59.652,368.635,62.755,370.763,66.304,370.763z"/>
		<path style="fill:#FFBFC6;" d="M80.591,322.934c-0.262,2.062-1.016,5.575-1.43,7.428c-0.198,0.89-0.038,1.822,0.425,2.608
			c1.553,2.635,3.782,4.246,5.655,5.204c1.495,0.765,3.221-0.502,2.943-2.159l-0.644-3.837l-0.385-2.345
			c1.239,1.608,5.727,2.88,7.536-2.462c1.825-5.342,0.05-13.246-5.292-13.246c-5.342,0-4.856,4.806-4.856,4.806
			s-3.316-4.538-5.192-2.412C76.438,319.853,80.591,322.934,80.591,322.934z"/>
		<path style="fill:#2E175A;" d="M87.541,332.178l-0.385-2.345c-1.34-1.809-1.859-3.048-1.859-3.048S84.074,330.487,87.541,332.178z
			"/>
		<path style="fill:#F22D5C;" d="M82.938,319.41c0.074,0,0.145-0.039,0.183-0.108c0.056-0.102,0.02-0.229-0.082-0.285l-2.512-1.39
			c-0.101-0.056-0.227-0.02-0.285,0.082c-0.056,0.101-0.02,0.229,0.082,0.284l2.512,1.39
			C82.869,319.401,82.904,319.41,82.938,319.41z"/>
		<path style="fill:#F22D5C;" d="M91.329,325.93c0.103,0,0.193-0.077,0.208-0.182c0.015-0.115-0.065-0.219-0.179-0.236
			c-1.535-0.208-2.853-1.164-3.528-2.556c-0.049-0.103-0.176-0.149-0.28-0.096c-0.104,0.051-0.147,0.175-0.097,0.28
			c0.736,1.518,2.174,2.561,3.848,2.788C91.311,325.93,91.32,325.93,91.329,325.93z"/>
		<path style="fill:#2E175A;" d="M93.146,317.967c0.042,0,0.084-0.013,0.121-0.038c0.094-0.067,0.117-0.198,0.05-0.293
			c-0.819-1.163-2.309-1.59-3.619-1.035c-0.107,0.044-0.157,0.167-0.112,0.275c0.045,0.107,0.168,0.157,0.274,0.111
			c1.131-0.478,2.411-0.106,3.115,0.891C93.016,317.936,93.081,317.967,93.146,317.967z"/>
		<path style="fill:#FFBFC6;" d="M94.322,319.735c0.71,0.621,1.502,1.717,2.067,2.572c0.422,0.638,0.08,1.511-0.67,1.666
			c-0.61,0.126-1.351,0.203-2.092,0.091L94.322,319.735z"/>
		<path style="fill:#FFFFFF;" d="M88.445,318.178c0.084,0.988,0.603,1.859,1.373,2.428c0.117,0.1,0.251,0.184,0.385,0.251
			c1.005,0.536,2.211,0.536,3.215,0c-0.184-1.089-0.854-2.043-1.826-2.562c-0.067-0.034-0.117-0.067-0.184-0.084
			C90.471,317.759,89.383,317.759,88.445,318.178z"/>
		<path style="fill:#2E175A;" d="M89.818,320.606c0.117,0.1,0.251,0.184,0.385,0.251c1.005,0.536,2.211,0.536,3.215,0
			c-0.184-1.089-0.854-2.043-1.826-2.562c-0.067-0.034-0.117-0.067-0.184-0.084C90.522,318.647,89.885,319.551,89.818,320.606z"/>
		<path style="fill:#2E175A;" d="M76.791,308.721c0.069,0,0.136-0.034,0.176-0.096c0.008-0.012,0.833-1.258,2.577-1.485
			c0.114-0.015,0.196-0.119,0.181-0.236c-0.016-0.114-0.118-0.208-0.235-0.18c-1.945,0.253-2.838,1.617-2.876,1.675
			c-0.062,0.096-0.034,0.226,0.064,0.29C76.713,308.709,76.752,308.721,76.791,308.721z"/>
		<path style="fill:#2E175A;" d="M72.676,304.048c0,1.727,1.4,3.127,3.127,3.127c1.727,0,3.127-1.4,3.127-3.127
			c0-1.727-1.4-3.127-3.127-3.127C74.076,300.921,72.676,302.321,72.676,304.048z"/>
		<path style="fill:#FFBFC6;" d="M104.371,392.365l1.608,1.474l6.816,6.23h23.244c0,0-3.182-4.84-14.955-7.704
			c-3.868-0.938-7.168-2.127-9.814-4.136c-0.519-0.385-1.005-0.787-1.457-1.239L104.371,392.365z"/>
		<path style="fill:#F22D5C;" d="M105.979,393.839l1.206,1.105l5.61,5.125h23.244c0,0-3.182-4.84-14.955-7.704
			c-2.947-0.72-5.577-1.574-7.821-2.847c-0.703-0.385-1.373-0.821-1.993-1.29C109.496,390.306,107.503,392.349,105.979,393.839z"/>
		<path style="fill:#9566DA;" d="M107.185,394.944l2.797,2.562l2.814,2.562h23.244c0,0-0.737-1.089-2.763-2.562
			c-2.227-1.608-6.029-3.634-12.191-5.141c-2.947-0.72-5.577-1.574-7.821-2.847C111.991,391.059,109.663,393.588,107.185,394.944z"
			/>
		<path style="fill:#2E175A;" d="M109.981,397.507l2.814,2.562h23.244c0,0-0.737-1.089-2.763-2.562H109.981z"/>
		<path style="fill:#D0D0FF;" d="M121.265,395.044c0.076,0,0.15-0.043,0.186-0.115l0.695-1.372c0.052-0.103,0.011-0.229-0.092-0.281
			c-0.103-0.054-0.23-0.01-0.281,0.091l-0.695,1.372c-0.052,0.103-0.012,0.229,0.091,0.281
			C121.2,395.038,121.233,395.044,121.265,395.044z"/>
		<path style="fill:#D0D0FF;" d="M119.079,394.424c0.076,0,0.15-0.043,0.186-0.115l0.694-1.372c0.052-0.103,0.011-0.229-0.092-0.281
			c-0.103-0.054-0.23-0.01-0.281,0.091l-0.694,1.372c-0.052,0.103-0.012,0.229,0.091,0.281
			C119.014,394.418,119.047,394.424,119.079,394.424z"/>
		<path style="fill:#D0D0FF;" d="M117.013,393.953c0.076,0,0.15-0.043,0.186-0.115l0.695-1.374c0.052-0.103,0.011-0.229-0.091-0.281
			c-0.103-0.054-0.229-0.01-0.281,0.091l-0.695,1.374c-0.052,0.103-0.011,0.229,0.092,0.281
			C116.949,393.947,116.982,393.953,117.013,393.953z"/>
		<path style="fill:#D0D0FF;" d="M125.588,397.147c0.114,0,0.207-0.092,0.209-0.204c0.015-0.749,0.349-1.459,0.917-1.949
			c0.087-0.075,0.097-0.208,0.022-0.296c-0.077-0.085-0.208-0.096-0.295-0.021c-0.658,0.568-1.045,1.39-1.062,2.257
			c-0.002,0.116,0.089,0.213,0.205,0.214C125.585,397.147,125.586,397.147,125.588,397.147z"/>
		<path style="fill:#2E175A;" d="M94.379,324.329c0.439,0,0.902-0.051,1.383-0.152c0.419-0.085,0.755-0.363,0.92-0.762
			c0.167-0.402,0.123-0.86-0.118-1.225c-0.556-0.837-1.371-1.971-2.104-2.612c-0.087-0.079-0.219-0.069-0.296,0.019
			c-0.076,0.087-0.067,0.219,0.02,0.295c0.698,0.612,1.49,1.712,2.031,2.53c0.163,0.247,0.194,0.559,0.08,0.833
			c-0.111,0.268-0.336,0.455-0.617,0.513c-0.729,0.152-1.407,0.183-2.019,0.088c-0.12-0.016-0.221,0.06-0.239,0.177
			c-0.017,0.115,0.061,0.221,0.175,0.239C93.847,324.309,94.109,324.329,94.379,324.329z"/>
		<path style="fill:#2E175A;" d="M112.307,384.512c0,0-9.107-11.511-16.544-19.403c-3.995-4.239-10.401-5.141-15.414-2.174
			c-6.434,3.809-13.344,10.169-21.492,19.082c-3.99,4.365-3.419,11.212,1.216,14.883l0,0c4.317,3.419,10.566,2.802,14.131-1.396
			l14.373-16.926l15.793,13.789L112.307,384.512z"/>
		<path style="fill:#F22D5C;" d="M107.657,383.171c0.051,0,0.101-0.018,0.141-0.056c0.085-0.079,0.091-0.209,0.013-0.296
			c-0.115-0.124-11.486-12.467-18.252-16.209c-0.1-0.057-0.228-0.02-0.285,0.082c-0.055,0.101-0.019,0.229,0.082,0.284
			c6.707,3.709,18.032,16.003,18.146,16.127C107.544,383.148,107.601,383.171,107.657,383.171z"/>
		<path style="fill:#F22D5C;" d="M89.458,377.666c0.071,0,0.142-0.036,0.18-0.103l1.523-2.579c0.059-0.1,0.026-0.227-0.074-0.286
			c-0.102-0.056-0.229-0.028-0.286,0.073l-1.523,2.579c-0.059,0.1-0.026,0.228,0.074,0.286
			C89.386,377.656,89.422,377.666,89.458,377.666z"/>
		<path style="fill:#F22D5C;" d="M87.935,377.186c0.015,0,0.03-0.002,0.046-0.005c0.113-0.025,0.184-0.137,0.158-0.25l-0.641-2.887
			c-0.026-0.111-0.136-0.178-0.25-0.159c-0.113,0.025-0.184,0.137-0.159,0.25l0.641,2.887
			C87.753,377.118,87.838,377.186,87.935,377.186z"/>
		<g>
			<path style="fill:#FFBFC6;" d="M72.737,398.829c1.825,4.438,6.514,2.328,11.354-0.938c2.596-1.742,5.242-3.818,7.502-5.392
				c0.821-0.57,1.591-1.072,2.294-1.474l-3.801-5.744c-0.619,0.435-1.306,0.837-2.027,1.206c-3.132,1.641-7.05,2.864-10.198,4.354
				C73.893,392.684,71.129,394.928,72.737,398.829z"/>
			<path style="fill:#F22D5C;" d="M72.737,398.829c1.825,4.438,6.514,2.328,11.354-0.938c1.758-1.172,3.534-2.512,5.192-3.735
				c0.804-0.586,1.574-1.139,2.311-1.658l-3.534-6.012c-0.72,0.385-1.49,0.737-2.277,1.072c-2.613,1.139-5.493,2.127-7.921,3.282
				C73.893,392.684,71.129,394.928,72.737,398.829z"/>
			<path style="fill:#9566DA;" d="M72.737,398.829c1.825,4.438,6.514,2.328,11.354-0.938c1.758-1.172,3.534-2.512,5.192-3.735
				c-1.641-1.892-2.897-4.974-3.5-6.598c-2.613,1.139-5.493,2.127-7.921,3.282C73.893,392.684,71.129,394.928,72.737,398.829z"/>
			<path style="fill:#2E175A;" d="M72.737,398.829c1.825,4.438,6.514,2.328,11.354-0.938c-4.89,2.462-9.227,3.065-10.433,0.05
				c-1.022-2.545,0.703-4.806,4.203-7.1C73.893,392.684,71.129,394.928,72.737,398.829z"/>
			<path style="fill:#D0D0FF;" d="M78.595,399.317c0.097,0,0.185-0.069,0.205-0.167c0.494-2.393-0.346-4.873-2.191-6.476
				c-0.087-0.075-0.219-0.067-0.295,0.021c-0.076,0.087-0.067,0.219,0.02,0.296c1.731,1.501,2.518,3.83,2.055,6.074
				c-0.023,0.113,0.05,0.224,0.163,0.247C78.567,399.316,78.581,399.317,78.595,399.317z"/>
			<path style="fill:#D0D0FF;" d="M81.161,394.668c0.029,0,0.06-0.007,0.088-0.02c0.105-0.049,0.151-0.173,0.101-0.278l-1.323-2.852
				c-0.049-0.105-0.174-0.149-0.278-0.101c-0.105,0.049-0.15,0.173-0.101,0.278l1.323,2.852
				C81.007,394.624,81.083,394.668,81.161,394.668z"/>
			<path style="fill:#D0D0FF;" d="M83.079,393.903c0.029,0,0.06-0.007,0.088-0.02c0.105-0.049,0.15-0.173,0.101-0.278l-1.322-2.852
				c-0.049-0.105-0.174-0.147-0.278-0.101c-0.105,0.049-0.15,0.173-0.101,0.278l1.322,2.852
				C82.925,393.859,83.001,393.903,83.079,393.903z"/>
			<path style="fill:#D0D0FF;" d="M85.158,393.006c0.029,0,0.06-0.007,0.088-0.02c0.105-0.049,0.15-0.173,0.101-0.278l-1.323-2.852
				c-0.049-0.104-0.174-0.147-0.278-0.101c-0.105,0.049-0.151,0.173-0.102,0.278l1.323,2.852
				C85.003,392.962,85.08,393.006,85.158,393.006z"/>
		</g>
		<path style="fill:#2E175A;" d="M67.011,357.384h12.507c0.115,0,0.21-0.093,0.21-0.209v-14.779c0-0.116-0.094-0.209-0.21-0.209
			c-0.115,0-0.209,0.093-0.209,0.209v14.57H67.011c-0.115,0-0.209,0.093-0.209,0.209C66.801,357.291,66.896,357.384,67.011,357.384z
			"/>
		<path style="fill:#2E175A;" d="M96.086,356.982c0.115,0,0.209-0.093,0.209-0.209v-6.988c0-0.116-0.094-0.209-0.209-0.209
			c-0.115,0-0.209,0.093-0.209,0.209v6.988C95.876,356.888,95.97,356.982,96.086,356.982z"/>
		<path style="fill:#F22D5C;" d="M110.567,385.95c0.055,0,0.109-0.021,0.15-0.064l1.604-1.642c0.075-0.077,0.08-0.198,0.011-0.28
			l-12.947-15.513c-0.075-0.087-0.208-0.098-0.295-0.026c-0.089,0.073-0.101,0.206-0.027,0.294l12.827,15.368l-1.471,1.508
			c-0.081,0.082-0.079,0.214,0.003,0.296C110.462,385.93,110.514,385.95,110.567,385.95z"/>
		<path style="fill:#F22D5C;" d="M101.187,389.638c0.059,0,0.117-0.025,0.159-0.074c0.075-0.087,0.065-0.219-0.022-0.294
			L88.713,378.42c-0.042-0.038-0.097-0.052-0.153-0.051c-0.056,0.005-0.107,0.031-0.143,0.074l-9.114,10.769
			c-0.075,0.089-0.064,0.221,0.025,0.296c0.088,0.074,0.22,0.065,0.294-0.025l8.978-10.609l12.451,10.712
			C101.09,389.621,101.139,389.638,101.187,389.638z"/>
		<polygon style="fill:#2E175A;" points="130.012,342.396 124.424,353.085 117.718,353.085 123.306,342.396 		"/>
		<path style="fill:#FFFFFF;" d="M97.312,365.908c0.013,0,0.026-0.001,0.039-0.003l10.345-1.99
			c0.024-0.002,6.422,0.134,13.658-3.696c0.102-0.054,0.141-0.18,0.087-0.283c-0.055-0.1-0.183-0.139-0.283-0.086
			c-7.131,3.774-13.426,3.652-13.495,3.65l-10.39,1.993c-0.114,0.023-0.188,0.132-0.166,0.245
			C97.126,365.837,97.213,365.908,97.312,365.908z"/>
		<path style="fill:#D0D0FF;" d="M108.028,394.635c0.038,0,0.075-0.01,0.11-0.031c0.824-0.507,4.312-3.436,5.011-4.528
			c0.062-0.098,0.033-0.228-0.064-0.29c-0.096-0.059-0.226-0.034-0.289,0.064c-0.657,1.027-4.093,3.915-4.877,4.398
			c-0.098,0.06-0.129,0.19-0.069,0.288C107.889,394.599,107.958,394.635,108.028,394.635z"/>
		<path style="fill:#D0D0FF;" d="M88.801,393.808c0.048,0,0.097-0.016,0.137-0.051c0.088-0.075,0.097-0.208,0.022-0.294
			c-0.469-0.548-2.531-4.066-2.758-5.353c-0.02-0.113-0.12-0.186-0.242-0.17c-0.115,0.02-0.191,0.129-0.17,0.242
			c0.248,1.411,2.34,4.954,2.853,5.552C88.683,393.783,88.742,393.808,88.801,393.808z"/>
	</g>
	<g>
		<path style="fill:#FFFFFF;" d="M254.118,69.691c-0.085-0.046-0.139-0.135-0.139-0.232V56.492c0-2.45-1.994-4.444-4.444-4.444
			h-17.258c-2.451,0-4.445,1.994-4.445,4.444v12.61c0,2.45,1.994,4.444,4.445,4.444h29L254.118,69.691z"/>
		<path style="fill:#2E175A;" d="M227.304,69.102v-12.61c0-2.742,2.231-4.972,4.973-4.972h17.258c2.742,0,4.972,2.23,4.972,4.972
			v12.809l7.942,4.277c0.107,0.057,0.161,0.179,0.131,0.297c-0.029,0.117-0.135,0.199-0.256,0.199h-30.047
			C229.535,74.074,227.304,71.844,227.304,69.102z M254.118,69.691c-0.085-0.046-0.139-0.135-0.139-0.232V56.492
			c0-2.45-1.994-4.444-4.444-4.444h-17.258c-2.451,0-4.445,1.994-4.445,4.444v12.61c0,2.45,1.994,4.444,4.445,4.444h29
			L254.118,69.691z M254.237,69.459h0.006H254.237z"/>
		<g>
			<path style="fill:#2E175A;" d="M240.933,56.742c-2.361,0-4.283,1.921-4.283,4.283c0,0.458,0.701,0.465,0.701,0
				c0-0.987,0.402-1.883,1.051-2.532c1.4-1.4,3.662-1.402,5.064,0c1.851,1.851,1.139,4.961-1.246,5.877
				c-1.447,0.557-1.863,2.299-1.534,2.629c0.219,0.219,0.598,0.066,0.598-0.247c0-0.38,0.119-0.744,0.328-1.047
				c0.208-0.303,0.505-0.545,0.859-0.681C246.894,63.324,245.64,56.742,240.933,56.742z"/>
			<path style="fill:#2E175A;" d="M240.514,68.685c0,0.557,0.838,0.547,0.838,0C241.353,68.137,240.514,68.128,240.514,68.685z"/>
		</g>
	</g>
	<g>
		<path style="fill:#9566DA;" d="M275.947,418.855c3.698-7.955,11.674-13.043,20.447-13.043c8.773,0,16.749,5.088,20.447,13.043
			H275.947z"/>
		<polygon style="fill:#9566DA;" points="293.678,409.832 303.285,409.832 319.764,377.916 310.158,377.916 		"/>
		<polygon style="fill:#2E175A;" points="272.734,393.874 328.639,393.874 345.118,361.958 289.213,361.958 		"/>
		<path style="fill:#FFFFFF;" d="M326.459,392.882c-0.047,0-0.094-0.012-0.137-0.033c-0.148-0.077-0.205-0.258-0.129-0.406
			l15.145-29.332c0.075-0.148,0.259-0.201,0.403-0.129c0.148,0.078,0.205,0.258,0.129,0.406l-15.145,29.332
			C326.673,392.823,326.568,392.882,326.459,392.882z"/>
		<g>
			<path style="fill:#FFFFFF;" d="M301.761,365.829h22.422c1.598,0,2.221,1.307,1.385,2.905l-1.319,2.519
				c-0.836,1.598-2.827,2.905-4.425,2.905h-22.656l-4.203,2.928l1.532-2.928l0.483-0.924l2.355-4.5
				C298.172,367.136,300.163,365.829,301.761,365.829z"/>
			<path style="fill:#FFFFFF;" d="M317.301,378.982h-22.422c-1.598,0-3.589,1.307-4.425,2.905l-1.318,2.52
				c-0.836,1.598-0.213,2.905,1.385,2.905h22.656l1.139,2.928l1.532-2.928l0.483-0.924l2.355-4.5
				C319.521,380.289,318.898,378.982,317.301,378.982z"/>
		</g>
	</g>
	<g>
		<path style="fill:#D0D0FF;" d="M152.749,414.707H84.58c-0.207,0-0.375,0.168-0.375,0.375c0,0.207,0.168,0.375,0.375,0.375h68.17
			c0.207,0,0.375-0.168,0.375-0.375C153.124,414.875,152.956,414.707,152.749,414.707z"/>
		<g>
			<path style="fill:#D0D0FF;" d="M163.864,414.707h-7.54c-0.207,0-0.375,0.168-0.375,0.375c0,0.207,0.168,0.375,0.375,0.375h7.54
				c0.207,0,0.375-0.168,0.375-0.375C164.239,414.875,164.071,414.707,163.864,414.707z"/>
			<path style="fill:#D0D0FF;" d="M184.281,414.707H169.33c-0.207,0-0.375,0.168-0.375,0.375c0,0.207,0.168,0.375,0.375,0.375
				h14.951c0.207,0,0.375-0.168,0.375-0.375C184.656,414.875,184.488,414.707,184.281,414.707z"/>
			<path style="fill:#D0D0FF;" d="M191.558,414.707h-3.319c-0.207,0-0.375,0.168-0.375,0.375c0,0.207,0.168,0.375,0.375,0.375h3.319
				c0.207,0,0.375-0.168,0.375-0.375C191.933,414.875,191.765,414.707,191.558,414.707z"/>
		</g>
	</g>
	<g>
		<path style="fill:#9566DA;" d="M172.503,418.105h-68.17c-0.207,0-0.375,0.168-0.375,0.375c0,0.207,0.168,0.375,0.375,0.375h68.17
			c0.207,0,0.375-0.168,0.375-0.375C172.878,418.273,172.71,418.105,172.503,418.105z"/>
		<path style="fill:#9566DA;" d="M183.617,418.105h-7.54c-0.207,0-0.375,0.168-0.375,0.375c0,0.207,0.168,0.375,0.375,0.375h7.54
			c0.207,0,0.375-0.168,0.375-0.375C183.992,418.273,183.824,418.105,183.617,418.105z"/>
		<path style="fill:#9566DA;" d="M204.035,418.105h-14.951c-0.207,0-0.375,0.168-0.375,0.375c0,0.207,0.168,0.375,0.375,0.375
			h14.951c0.207,0,0.375-0.168,0.375-0.375C204.41,418.273,204.242,418.105,204.035,418.105z"/>
		<path style="fill:#9566DA;" d="M211.311,418.105h-3.319c-0.207,0-0.375,0.168-0.375,0.375c0,0.207,0.168,0.375,0.375,0.375h3.319
			c0.207,0,0.375-0.168,0.375-0.375C211.686,418.273,211.519,418.105,211.311,418.105z"/>
	</g>
	<g>
		<path style="fill:#9566DA;" d="M331.121,418.105h-7.54c-0.207,0-0.375,0.168-0.375,0.375c0,0.207,0.168,0.375,0.375,0.375h7.54
			c0.207,0,0.375-0.168,0.375-0.375C331.496,418.273,331.328,418.105,331.121,418.105z"/>
		<path style="fill:#9566DA;" d="M351.539,418.105h-14.951c-0.207,0-0.375,0.168-0.375,0.375c0,0.207,0.168,0.375,0.375,0.375
			h14.951c0.207,0,0.375-0.168,0.375-0.375C351.914,418.273,351.746,418.105,351.539,418.105z"/>
		<path style="fill:#9566DA;" d="M358.815,418.105h-3.319c-0.207,0-0.375,0.168-0.375,0.375c0,0.207,0.168,0.375,0.375,0.375h3.319
			c0.207,0,0.375-0.168,0.375-0.375C359.19,418.273,359.022,418.105,358.815,418.105z"/>
	</g>
	<path style="fill:#D0D0FF;" d="M348.919,169.874c-4.861,0-8.815-3.954-8.815-8.815c0-4.861,3.954-8.815,8.815-8.815
		c4.86,0,8.815,3.954,8.815,8.815C357.734,165.92,353.779,169.874,348.919,169.874z M348.919,153.006
		c-4.441,0-8.054,3.613-8.054,8.054c0,4.44,3.613,8.053,8.054,8.053c4.44,0,8.054-3.613,8.054-8.053
		C356.973,156.619,353.359,153.006,348.919,153.006z"/>
	<path style="fill:#D0D0FF;" d="M92.755,148.87c-4.861,0-8.816-3.954-8.816-8.815c0-4.86,3.954-8.815,8.816-8.815
		c4.86,0,8.815,3.954,8.815,8.815C101.569,144.915,97.615,148.87,92.755,148.87z M92.755,132.001c-4.441,0-8.054,3.613-8.054,8.054
		c0,4.44,3.613,8.054,8.054,8.054c4.44,0,8.053-3.613,8.053-8.054C100.808,135.614,97.195,132.001,92.755,132.001z"/>
	<path style="fill:#D0D0FF;" d="M364.608,176.481c-1.832,0-3.322-1.49-3.322-3.322c0-1.832,1.49-3.322,3.322-3.322
		c1.832,0,3.322,1.49,3.322,3.322C367.93,174.991,366.439,176.481,364.608,176.481z M364.608,170.43c-1.505,0-2.73,1.224-2.73,2.73
		c0,1.505,1.224,2.73,2.73,2.73c1.505,0,2.73-1.224,2.73-2.73C367.337,171.654,366.113,170.43,364.608,170.43z"/>
	<path style="fill:#D0D0FF;" d="M66.105,244.757c-1.832,0-3.322-1.49-3.322-3.322c0-1.831,1.49-3.322,3.322-3.322
		c1.832,0,3.322,1.49,3.322,3.322C69.427,243.266,67.937,244.757,66.105,244.757z M66.105,238.705c-1.505,0-2.73,1.224-2.73,2.73
		s1.224,2.73,2.73,2.73c1.505,0,2.73-1.224,2.73-2.73S67.61,238.705,66.105,238.705z"/>
	<path style="fill:#D0D0FF;" d="M178.89,72.611c-1.831,0-3.322-1.49-3.322-3.322c0-1.832,1.49-3.322,3.322-3.322
		c1.832,0,3.322,1.49,3.322,3.322C182.212,71.12,180.722,72.611,178.89,72.611z M178.89,66.559c-1.505,0-2.73,1.224-2.73,2.73
		c0,1.505,1.224,2.73,2.73,2.73c1.505,0,2.73-1.224,2.73-2.73C181.62,67.783,180.396,66.559,178.89,66.559z"/>
	<path style="fill:#D0D0FF;" d="M101.226,118.875c-0.624-4.312-4.334-7.624-8.819-7.624c-0.452,0-0.892,0.044-1.326,0.109
		c0.007-0.163,0.025-0.323,0.025-0.487c0-6.31-5.116-11.426-11.426-11.426c-5.015,0-9.265,3.235-10.803,7.729
		c-1.121-2.76-3.824-4.708-6.986-4.708c-4.165,0-7.541,3.376-7.541,7.541c0,0.971,0.19,1.895,0.524,2.747
		c-0.233-0.022-0.468-0.036-0.707-0.036c-3.691,0-6.761,2.652-7.412,6.155H101.226z"/>
	<path style="fill:#D0D0FF;" d="M335.249,100.207c0.585-2.664,4.061-4.711,8.262-4.711c0.423,0,0.836,0.027,1.242,0.068
		c-0.006-0.101,4.77-7.361,10.682-7.361c4.699,0,7.1,1.441,10.121,4.776c1.05-1.705,3.583-2.909,6.545-2.909
		c3.902,0,6.888,5.831,6.575,6.357c0.218-0.013,0.439-0.022,0.662-0.022c3.458,0,6.334,1.639,6.944,3.803H335.249z"/>
	<path style="fill:#D0D0FF;" d="M307.764,93.48c0.585-2.664,4.061-4.711,8.262-4.711c0.423,0,0.836,0.027,1.242,0.067
		c-0.006-0.101,4.77-7.361,10.682-7.361c4.699,0,7.1,1.441,10.122,4.776c1.05-1.705,3.583-2.909,6.545-2.909
		c3.902,0,6.888,5.831,6.575,6.357c0.218-0.013,0.439-0.022,0.663-0.022c3.458,0,6.334,1.639,6.944,3.803H307.764z"/>
	<g>
		<path style="fill:#FFFFFF;" d="M335.134,177.888h-28.909c-6.485,0-11.792,5.306-11.792,11.792v16.563
			c0,6.485,5.306,11.791,11.792,11.791h29.858l10.842,11.887v-11.887v-3.751v-24.603
			C346.925,183.194,341.619,177.888,335.134,177.888z"/>
		<g>
			<path style="fill:#2E175A;" d="M319.522,184.969c-5.113,0-9.277,4.16-9.277,9.277c0,0.992,1.517,1.007,1.517,0
				c0-2.138,0.87-4.078,2.275-5.484c3.033-3.033,7.931-3.036,10.968,0c4.009,4.01,2.467,10.745-2.699,12.729
				c-3.135,1.207-4.035,4.979-3.322,5.695c0.474,0.475,1.296,0.142,1.296-0.536c0-0.822,0.258-1.611,0.71-2.268
				c0.451-0.657,1.094-1.18,1.861-1.475C332.432,199.223,329.716,184.969,319.522,184.969z"/>
			<path style="fill:#2E175A;" d="M318.615,210.834c0,1.205,1.816,1.185,1.816,0C320.431,209.649,318.615,209.629,318.615,210.834z"
				/>
		</g>
		<path style="fill:#2E175A;" d="M345.342,229.164l-11.383-12.479h-29.693c-6.708,0-12.166-5.458-12.166-12.167v-16.563
			c0-6.708,5.458-12.167,12.166-12.167h28.91c6.708,0,12.166,5.458,12.166,12.167V229.164z M304.266,176.539
			c-6.295,0-11.416,5.122-11.416,11.417v16.563c0,6.295,5.121,11.417,11.416,11.417h30.023l0.112,0.122l10.19,11.172v-39.273
			c0-6.295-5.121-11.417-11.416-11.417H304.266z"/>
	</g>
</g>
</svg>
